<mxfile host="app.diagrams.net" agent="Mozilla/5.0 (Macintosh; Intel Mac OS X 10_15_7) AppleWebKit/537.36 (KHTML, like Gecko) Chrome/131.0.0.0 Safari/537.36" version="26.0.10" pages="2">
  <diagram name="Page-1" id="YJ8sZgT-e9l4LMu1bUg-">
    <mxGraphModel dx="984" dy="708" grid="0" gridSize="10" guides="1" tooltips="1" connect="1" arrows="1" fold="1" page="1" pageScale="1" pageWidth="850" pageHeight="1100" math="0" shadow="0">
      <root>
        <mxCell id="0" />
        <mxCell id="1" parent="0" />
        <mxCell id="Wm-5a7XVV-4Ad_fjWUDz-24" value="" style="strokeWidth=1;shadow=0;dashed=0;align=center;html=1;shape=mxgraph.mockup.buttons.button;strokeColor=#6c8ebf;mainText=;buttonStyle=round;fontSize=17;fontStyle=1;fillColor=#dae8fc;whiteSpace=wrap;fontColor=light-dark(#111112, #cdcdff);" parent="1" vertex="1">
          <mxGeometry x="31" y="51" width="819" height="1417" as="geometry" />
        </mxCell>
        <mxCell id="Wm-5a7XVV-4Ad_fjWUDz-31" value="webname" style="strokeWidth=1;shadow=0;dashed=0;align=center;html=1;shape=mxgraph.mockup.buttons.button;strokeColor=#82b366;mainText=;buttonStyle=round;fontSize=17;fontStyle=1;fillColor=#d5e8d4;whiteSpace=wrap;" parent="1" vertex="1">
          <mxGeometry x="41" y="53" width="150" height="50" as="geometry" />
        </mxCell>
        <mxCell id="Wm-5a7XVV-4Ad_fjWUDz-52" value="book-catalog" style="text;strokeColor=inherit;align=center;verticalAlign=middle;spacingLeft=10;spacingRight=10;overflow=hidden;points=[[0,0.5],[1,0.5]];portConstraint=eastwest;rotatable=0;whiteSpace=wrap;html=1;rSize=5;fillColor=inherit;fontColor=inherit;fontSize=17;fontStyle=1;" parent="1" vertex="1">
          <mxGeometry x="372" y="147" width="131" height="50" as="geometry" />
        </mxCell>
        <mxCell id="Wm-5a7XVV-4Ad_fjWUDz-53" value="about" style="text;strokeColor=inherit;align=center;verticalAlign=middle;spacingLeft=10;spacingRight=10;overflow=hidden;points=[[0,0.5],[1,0.5]];portConstraint=eastwest;rotatable=0;whiteSpace=wrap;html=1;rSize=5;fillColor=inherit;fontColor=inherit;fontSize=17;fontStyle=1;" parent="1" vertex="1">
          <mxGeometry x="287" y="147" width="85" height="50" as="geometry" />
        </mxCell>
        <mxCell id="Wm-5a7XVV-4Ad_fjWUDz-54" value="home" style="text;strokeColor=inherit;align=center;verticalAlign=middle;spacingLeft=10;spacingRight=10;overflow=hidden;points=[[0,0.5],[1,0.5]];portConstraint=eastwest;rotatable=0;whiteSpace=wrap;html=1;rSize=5;fillColor=inherit;fontColor=inherit;fontSize=17;fontStyle=1;" parent="1" vertex="1">
          <mxGeometry x="202" y="147" width="85" height="50" as="geometry" />
        </mxCell>
        <mxCell id="Wm-5a7XVV-4Ad_fjWUDz-55" value="event-news" style="text;strokeColor=inherit;align=center;verticalAlign=middle;spacingLeft=10;spacingRight=10;overflow=hidden;points=[[0,0.5],[1,0.5]];portConstraint=eastwest;rotatable=0;whiteSpace=wrap;html=1;rSize=5;fillColor=inherit;fontColor=inherit;fontSize=17;fontStyle=1;" parent="1" vertex="1">
          <mxGeometry x="503" y="147" width="129" height="50" as="geometry" />
        </mxCell>
        <mxCell id="Wm-5a7XVV-4Ad_fjWUDz-56" value="FAQs" style="text;strokeColor=inherit;align=center;verticalAlign=middle;spacingLeft=10;spacingRight=10;overflow=hidden;points=[[0,0.5],[1,0.5]];portConstraint=eastwest;rotatable=0;whiteSpace=wrap;html=1;rSize=5;fillColor=inherit;fontColor=inherit;fontSize=17;fontStyle=1;" parent="1" vertex="1">
          <mxGeometry x="632" y="147" width="85" height="50" as="geometry" />
        </mxCell>
        <mxCell id="Wm-5a7XVV-4Ad_fjWUDz-59" value="guide" style="shape=rectangle;strokeColor=none;fillColor=none;linkText=;fontSize=18;fontColor=light-dark(#0000ff, #3363aa);fontStyle=4;html=1;align=center;" parent="1" vertex="1">
          <mxGeometry x="12" y="291" width="150" height="30" as="geometry" />
        </mxCell>
        <mxCell id="Wm-5a7XVV-4Ad_fjWUDz-61" value="start using the library" style="shape=rectangle;strokeColor=none;fillColor=none;linkText=;fontSize=22;fontColor=#2E2E2E;fontStyle=4;html=1;align=center;" parent="1" vertex="1">
          <mxGeometry x="323" y="319" width="150" height="30" as="geometry" />
        </mxCell>
        <mxCell id="Wm-5a7XVV-4Ad_fjWUDz-62" value="know about the library&amp;nbsp;" style="strokeWidth=1;shadow=0;dashed=0;align=center;html=1;shape=mxgraph.mockup.buttons.button;strokeColor=#d79b00;mainText=;buttonStyle=round;fontSize=17;fontStyle=1;fillColor=#ffe6cc;whiteSpace=wrap;" parent="1" vertex="1">
          <mxGeometry x="84" y="393" width="210" height="137" as="geometry" />
        </mxCell>
        <mxCell id="Wm-5a7XVV-4Ad_fjWUDz-63" value="book-catalog" style="strokeWidth=1;shadow=0;dashed=0;align=center;html=1;shape=mxgraph.mockup.buttons.button;strokeColor=#d79b00;mainText=;buttonStyle=round;fontSize=17;fontStyle=1;fillColor=#ffe6cc;whiteSpace=wrap;" parent="1" vertex="1">
          <mxGeometry x="334.25" y="393" width="200.5" height="135" as="geometry" />
        </mxCell>
        <mxCell id="Wm-5a7XVV-4Ad_fjWUDz-64" value="borrowing and returning&amp;nbsp;" style="strokeWidth=1;shadow=0;dashed=0;align=center;html=1;shape=mxgraph.mockup.buttons.button;strokeColor=#d79b00;mainText=;buttonStyle=round;fontSize=17;fontStyle=1;fillColor=#ffe6cc;whiteSpace=wrap;" parent="1" vertex="1">
          <mxGeometry x="568.5" y="391" width="212" height="134" as="geometry" />
        </mxCell>
        <mxCell id="Wm-5a7XVV-4Ad_fjWUDz-65" value="discover the unique holding of the library" style="shape=rectangle;strokeColor=none;fillColor=none;linkText=;fontSize=22;fontColor=light-dark(#111112, #cdcdff);fontStyle=4;html=1;align=center;" parent="1" vertex="1">
          <mxGeometry x="141" y="567" width="534" height="30" as="geometry" />
        </mxCell>
        <mxCell id="Wm-5a7XVV-4Ad_fjWUDz-66" value="author&#39;s collection" style="strokeWidth=1;shadow=0;dashed=0;align=center;html=1;shape=mxgraph.mockup.buttons.button;strokeColor=#d6b656;mainText=;buttonStyle=round;fontSize=17;fontStyle=1;fillColor=#fff2cc;whiteSpace=wrap;" parent="1" vertex="1">
          <mxGeometry x="76" y="653" width="214" height="158" as="geometry" />
        </mxCell>
        <mxCell id="Wm-5a7XVV-4Ad_fjWUDz-69" value="research center" style="strokeWidth=1;shadow=0;dashed=0;align=center;html=1;shape=mxgraph.mockup.buttons.button;strokeColor=#d6b656;mainText=;buttonStyle=round;fontSize=17;fontStyle=1;fillColor=#fff2cc;whiteSpace=wrap;" parent="1" vertex="1">
          <mxGeometry x="323" y="657" width="214" height="158" as="geometry" />
        </mxCell>
        <mxCell id="Wm-5a7XVV-4Ad_fjWUDz-71" value="exhibits" style="strokeWidth=1;shadow=0;dashed=0;align=center;html=1;shape=mxgraph.mockup.buttons.button;strokeColor=#d6b656;mainText=;buttonStyle=round;fontSize=17;fontStyle=1;fillColor=#fff2cc;whiteSpace=wrap;" parent="1" vertex="1">
          <mxGeometry x="585" y="659" width="214" height="158" as="geometry" />
        </mxCell>
        <mxCell id="Wm-5a7XVV-4Ad_fjWUDz-72" value="upcoming events" style="shape=rectangle;strokeColor=none;fillColor=none;linkText=;fontSize=18;fontColor=#0000ff;fontStyle=4;html=1;align=center;" parent="1" vertex="1">
          <mxGeometry x="54" y="867" width="150" height="30" as="geometry" />
        </mxCell>
        <mxCell id="Wm-5a7XVV-4Ad_fjWUDz-75" value="Search" style="strokeWidth=1;shadow=0;dashed=0;align=center;html=1;shape=mxgraph.mockup.forms.searchBox;strokeColor=#999999;mainText=;strokeColor2=#008cff;fontColor=#666666;fontSize=17;align=left;spacingLeft=3;whiteSpace=wrap;" parent="1" vertex="1">
          <mxGeometry x="359.5" y="243" width="150" height="30" as="geometry" />
        </mxCell>
        <mxCell id="Wm-5a7XVV-4Ad_fjWUDz-76" value="" style="verticalLabelPosition=bottom;shadow=0;dashed=0;align=center;html=1;verticalAlign=top;strokeWidth=1;shape=mxgraph.mockup.misc.progressBar;fillColor=#cccccc;strokeColor=none;fillColor2=#99ddff;barPos=80;" parent="1" vertex="1">
          <mxGeometry x="144" y="930" width="469" height="20" as="geometry" />
        </mxCell>
        <mxCell id="Wm-5a7XVV-4Ad_fjWUDz-77" value="recent news" style="shape=rectangle;strokeColor=none;fillColor=none;linkText=;fontSize=17;fontColor=#0000ff;fontStyle=4;html=1;align=center;" parent="1" vertex="1">
          <mxGeometry x="45" y="1002" width="150" height="30" as="geometry" />
        </mxCell>
        <mxCell id="Wm-5a7XVV-4Ad_fjWUDz-78" value="" style="verticalLabelPosition=bottom;shadow=0;dashed=0;align=center;html=1;verticalAlign=top;strokeWidth=1;shape=mxgraph.mockup.markup.line;strokeColor=#999999;direction=north;" parent="1" vertex="1">
          <mxGeometry x="427.5" y="1051.5" width="20" height="136.5" as="geometry" />
        </mxCell>
        <mxCell id="Wm-5a7XVV-4Ad_fjWUDz-79" value="Window Title" style="strokeWidth=1;shadow=0;dashed=0;align=center;html=1;shape=mxgraph.mockup.containers.window;align=left;verticalAlign=top;spacingLeft=8;strokeColor2=#008cff;strokeColor3=#c4c4c4;fontColor=#666666;mainText=;fontSize=17;labelBackgroundColor=none;whiteSpace=wrap;" parent="1" vertex="1">
          <mxGeometry x="59" y="1056" width="308" height="143" as="geometry" />
        </mxCell>
        <mxCell id="Wm-5a7XVV-4Ad_fjWUDz-80" value="Window Title" style="strokeWidth=1;shadow=0;dashed=0;align=center;html=1;shape=mxgraph.mockup.containers.window;align=left;verticalAlign=top;spacingLeft=8;strokeColor2=#008cff;strokeColor3=#c4c4c4;fontColor=#666666;mainText=;fontSize=17;labelBackgroundColor=none;whiteSpace=wrap;" parent="1" vertex="1">
          <mxGeometry x="483" y="1051.5" width="308" height="141.5" as="geometry" />
        </mxCell>
        <mxCell id="Wm-5a7XVV-4Ad_fjWUDz-84" value="" style="verticalLabelPosition=bottom;shadow=0;dashed=0;align=center;html=1;verticalAlign=top;strokeWidth=1;shape=mxgraph.mockup.markup.line;strokeColor=#999999;" parent="1" vertex="1">
          <mxGeometry x="52" y="1289" width="791" height="20" as="geometry" />
        </mxCell>
        <mxCell id="Wm-5a7XVV-4Ad_fjWUDz-87" value="load more" style="shape=rectangle;strokeColor=none;fillColor=none;linkText=;fontSize=17;fontColor=#0000ff;fontStyle=4;html=1;align=center;" parent="1" vertex="1">
          <mxGeometry x="663" y="1246" width="150" height="30" as="geometry" />
        </mxCell>
        <mxCell id="Wm-5a7XVV-4Ad_fjWUDz-89" value="&lt;span style=&quot;font-weight: 400; text-wrap-mode: nowrap; text-decoration-line: underline; line-height: 150%;&quot;&gt;address:&lt;/span&gt;&lt;div style=&quot;font-weight: 400; text-wrap-mode: nowrap; line-height: 150%;&quot;&gt;email:&lt;/div&gt;&lt;div style=&quot;font-weight: 400; text-wrap-mode: nowrap; line-height: 150%;&quot;&gt;privacy:&lt;/div&gt;" style="strokeWidth=1;shadow=0;dashed=0;align=left;html=1;shape=mxgraph.mockup.buttons.button;strokeColor=#666666;fontColor=#FFFFFF;mainText=;buttonStyle=round;fontSize=19;fontStyle=1;fillColor=light-dark(#2E2E2E,#229AFD);whiteSpace=wrap;" parent="1" vertex="1">
          <mxGeometry x="177" y="1331" width="655" height="121" as="geometry" />
        </mxCell>
        <mxCell id="Wm-5a7XVV-4Ad_fjWUDz-90" value="webname" style="strokeWidth=1;shadow=0;dashed=0;align=center;html=1;shape=mxgraph.mockup.buttons.button;strokeColor=#82b366;mainText=;buttonStyle=round;fontSize=17;fontStyle=1;fillColor=#d5e8d4;whiteSpace=wrap;" parent="1" vertex="1">
          <mxGeometry x="41" y="1335" width="130" height="114" as="geometry" />
        </mxCell>
        <mxCell id="Wm-5a7XVV-4Ad_fjWUDz-91" value="&lt;font style=&quot;color: rgb(255, 15, 47);&quot;&gt;1.title&lt;/font&gt;" style="shape=rectangle;strokeColor=none;fillColor=none;linkText=;fontSize=17;fontColor=#0000ff;fontStyle=4;html=1;align=center;" parent="1" vertex="1">
          <mxGeometry x="179" y="66" width="150" height="30" as="geometry" />
        </mxCell>
        <mxCell id="Wm-5a7XVV-4Ad_fjWUDz-92" value="2.navigation" style="shape=rectangle;strokeColor=none;fillColor=none;linkText=;fontSize=17;fontColor=#FF0F2F;fontStyle=4;html=1;align=center;" parent="1" vertex="1">
          <mxGeometry x="57" y="161" width="150" height="30" as="geometry" />
        </mxCell>
        <mxCell id="Wm-5a7XVV-4Ad_fjWUDz-93" value="&lt;font style=&quot;color: rgb(255, 15, 47);&quot;&gt;3.links&lt;/font&gt;" style="shape=rectangle;strokeColor=none;fillColor=none;linkText=;fontSize=17;fontColor=#0000ff;fontStyle=4;html=1;align=center;" parent="1" vertex="1">
          <mxGeometry x="355" y="488" width="150" height="30" as="geometry" />
        </mxCell>
        <mxCell id="Wm-5a7XVV-4Ad_fjWUDz-94" value="&lt;font style=&quot;color: rgb(255, 15, 47);&quot;&gt;4.content&lt;/font&gt;" style="shape=rectangle;strokeColor=none;fillColor=none;linkText=;fontSize=17;fontColor=#0000ff;fontStyle=4;html=1;align=center;" parent="1" vertex="1">
          <mxGeometry x="184.25" y="1021.5" width="150" height="30" as="geometry" />
        </mxCell>
        <mxCell id="Wm-5a7XVV-4Ad_fjWUDz-95" value="&lt;font style=&quot;color: rgb(255, 15, 47);&quot;&gt;5.images&lt;/font&gt;" style="shape=rectangle;strokeColor=none;fillColor=none;linkText=;fontSize=17;fontColor=#0000ff;fontStyle=4;html=1;align=center;" parent="1" vertex="1">
          <mxGeometry x="622" y="628" width="150" height="29" as="geometry" />
        </mxCell>
      </root>
    </mxGraphModel>
  </diagram>
  <diagram id="ahpFxDMEZCWjniMrarFQ" name="Page-2">
    <mxGraphModel dx="984" dy="708" grid="0" gridSize="10" guides="1" tooltips="1" connect="1" arrows="1" fold="1" page="1" pageScale="1" pageWidth="850" pageHeight="1100" math="0" shadow="0">
      <root>
        <mxCell id="0" />
        <mxCell id="1" parent="0" />
        <mxCell id="_dNYfmlN74PMvxJpYnuO-12" value="" style="rounded=0;whiteSpace=wrap;html=1;" vertex="1" parent="1">
          <mxGeometry y="48" width="829" height="1462" as="geometry" />
        </mxCell>
        <mxCell id="_dNYfmlN74PMvxJpYnuO-13" value="&lt;span style=&quot;color: rgb(15, 15, 15); font-size: 26px; font-weight: 400; text-wrap-mode: nowrap; text-decoration-line: underline;&quot;&gt;book-catalog&lt;/span&gt;" style="strokeWidth=1;shadow=0;dashed=0;align=center;html=1;shape=mxgraph.mockup.buttons.button;mainText=;buttonStyle=round;fontSize=17;fontStyle=1;whiteSpace=wrap;" vertex="1" parent="1">
          <mxGeometry x="353" y="58" width="150" height="50" as="geometry" />
        </mxCell>
        <mxCell id="_dNYfmlN74PMvxJpYnuO-14" value="" style="verticalLabelPosition=bottom;shadow=0;dashed=0;align=center;html=1;verticalAlign=top;strokeWidth=1;shape=mxgraph.mockup.misc.progressBar;fillColor=#cccccc;strokeColor=none;fillColor2=#99ddff;barPos=80;" vertex="1" parent="1">
          <mxGeometry x="499" y="183" width="63" height="20" as="geometry" />
        </mxCell>
        <mxCell id="_dNYfmlN74PMvxJpYnuO-15" value="explore-books" style="strokeWidth=1;shadow=0;dashed=0;align=center;html=1;shape=mxgraph.mockup.buttons.button;mainText=;buttonStyle=round;fontSize=17;fontStyle=1;whiteSpace=wrap;fillColor=#dae8fc;strokeColor=#6c8ebf;" vertex="1" parent="1">
          <mxGeometry x="331" y="166" width="150" height="50" as="geometry" />
        </mxCell>
        <mxCell id="_dNYfmlN74PMvxJpYnuO-16" value="Search" style="strokeWidth=1;shadow=0;dashed=0;align=center;html=1;shape=mxgraph.mockup.forms.searchBox;strokeColor=#999999;mainText=;strokeColor2=#008cff;fontColor=#666666;fontSize=17;align=left;spacingLeft=3;whiteSpace=wrap;" vertex="1" parent="1">
          <mxGeometry x="3" y="297" width="150" height="30" as="geometry" />
        </mxCell>
        <mxCell id="_dNYfmlN74PMvxJpYnuO-17" value="filter" style="shape=rectangle;strokeColor=none;fillColor=none;linkText=;fontSize=17;fontColor=#0000ff;fontStyle=4;html=1;align=left;" vertex="1" parent="1">
          <mxGeometry x="5" y="267" width="150" height="30" as="geometry" />
        </mxCell>
        <mxCell id="_dNYfmlN74PMvxJpYnuO-18" value="newest" style="shape=rectangle;strokeColor=none;fillColor=none;linkText=;fontSize=17;fontColor=#0000ff;fontStyle=4;html=1;align=center;" vertex="1" parent="1">
          <mxGeometry x="514" y="292" width="119" height="30" as="geometry" />
        </mxCell>
        <mxCell id="_dNYfmlN74PMvxJpYnuO-19" value="A-Z" style="shape=rectangle;strokeColor=none;fillColor=none;linkText=;fontSize=17;fontColor=#0000ff;fontStyle=4;html=1;align=center;" vertex="1" parent="1">
          <mxGeometry x="630" y="292" width="82" height="30" as="geometry" />
        </mxCell>
        <mxCell id="_dNYfmlN74PMvxJpYnuO-20" value="ON" style="strokeWidth=1;shadow=0;dashed=0;align=center;html=1;shape=mxgraph.mockup.buttons.onOffButton;gradientColor=none;strokeColor=#999999;buttonState=on;fillColor2=#008cff;fontColor=#ffffff;fontSize=17;mainText=;spacingRight=40;fontStyle=1;whiteSpace=wrap;" vertex="1" parent="1">
          <mxGeometry x="726" y="292" width="66" height="35" as="geometry" />
        </mxCell>
        <mxCell id="_dNYfmlN74PMvxJpYnuO-27" value="" style="shape=image;verticalLabelPosition=bottom;labelBackgroundColor=default;verticalAlign=top;aspect=fixed;imageAspect=0;image=data:image/jpeg,/9j/4AAQSkZJRgABAQAAAQABAAD/2wBDAAYEBQYFBAYGBQYHBwYIChAKCgkJChQODwwQFxQYGBcUFhYaHSUfGhsjHBYWICwgIyYnKSopGR8tMC0oMCUoKSj/2wBDAQcHBwoIChMKChMoGhYaKCgoKCgoKCgoKCgoKCgoKCgoKCgoKCgoKCgoKCgoKCgoKCgoKCgoKCgoKCgoKCgoKCj/wgARCAG/ASwDAREAAhEBAxEB/8QAGwAAAgMBAQEAAAAAAAAAAAAAAwQBAgUABgf/xAAYAQEBAQEBAAAAAAAAAAAAAAAAAQMCBP/aAAwDAQACEAMQAAAB8WQSQcScccccQcSQSccccQScccQSScQcQSccQcQScWOIJIJOOIOOOIJJIOOJOOIJIOOOOJOIOJIIIOHZfoOHdFxb0MdjRkDRESXE6GLQQJLwUKCKhzopXFCpIvR4IMSyDSx5jXjI0zk40uevpnn0wHWfbU3eUojUmT1eKmhBgsQvFAKXKj8uX1DS2Fa4YhiGJXIpVElfFbZYW2MkjMvocd789Si1QFLgwY5AaYjgVj3PXFgwElAroxQx+oZeDxeDjctSSDxu2WDtjKWViXYx3e56qKWOwpTKUWE5eKhDRkidSVGQQcXGIBSNh1iUdj3NIjEogxx5LXLz++MnDEuzju7z0EHYQXosjYWWh1lVVRoZ56sSMImNqmRVgRJUNLcKF5ECnJ5DXPz2+MlhiXex3Z46tWbYUsGHodkdjJ6XMy00kKxLWxuM2n+ap0CMCdlFPDMQtgsrEhSx5HXLzm+MkjE63sNm+eqUnYUgaNGTOrYhYajK6TLJCmQ0I09C1rsqwheYVgdlWDy2GJLBDyG2XntseJGuet3LbQ47BZAtYMfNbk9IvTY9zfJ9hnL0Fo8mf0d5DWtUBpUYW0HlpaaCSELp5LXPze+NiQ0voMd97LvP7gEmhDBrc3U5ee7mojvHXne4AOtiyGjOp6M3peUdi43FatGnOkLHJaI7BZfJa5eb3xk4al9Dhvoc9J2VOIqRqHJV7NGH5PK92YOpIIhhWjCBpc9ZfUZBpcoaPNz+mlzbpMWPKa5+a3x44Zl9Bhu7z0DqVOiKqcPDEa0ljIrPU8pQiEAhRGnuaCm0AcDGZVeq/wAylMxMvk9cvM748SHl9JhufnoVlgVcWLGjI8h5dSQVeRvVlYiE6iwKqB4KBEqscGiaYltDBePJa5+Z3xsQMzr0GGzkoClcVONKT0ch0xXW0iR5brqB7mupKXArn0QsBFqJFi4QPDEp4ivKaZ+a3xsUGZ1v47Oc2hAOoIQ66cmtAJZPLdwS6sa8gFrZRMa2yylS6iQgaWw5ARqVhOXyumfmd8ZIGp1v4bOSjqoIqXKlLNfnpCzhiDmggJWUAuF01IoWhPpRGo5ZDxUkZlaSp5PXjzW2MlRzm+gx3YlHQBggvC1DIqY0IeNaRYMY1oQxxY4x7ChRqOVuB0OHouSeU1481tjJA3Lu47t81WrliwtV404VsUNaXSgNmJWpCS3FK4uGFkoFGpeGYkoGDRJ5PXjzm2PFhznrdx2NKtYxKQDQk1jhMMHl3uXkOxosHEaoh14AlAhw1KUKFiCFKhY8prx5zbHiTRnWvhsaVPo1BgRBpSKUwMSmjrPNWtBpesSRsHWhyuYPSQgWVyGC8VODqSTymufndsoJG+evQY7Sow5AMixuNiDpMozA6LK9KFA1axqGpN6Ol8n2RrlND0GCwOmeVgh5bXPzW2UkBuevRY7cvDkDOrYnJxqHkzrcpV6z1ZlXsKFRyDptyFjCvXmuzMso7LZLrUPBotL5TbPzm2Nigxz16XHYS2JB1oSbshoeBJ5zqq0xLk2swKVgYsGgzShlMC1WpGJTBYIVG4LBDyeufndsuIGZfT4bKuikAqdk9BIyjEZFuTTsAty1k0ebY0IZFrKWZFJ0IIHXpDKaBU/yYiy+V1y89tlycrMvosNxrxBcuWTak0owumhFRAzr1Uf5pjT5ugmf1ytSpjdICBCYup4qNw9FDy+ufm9spOGub6LHca0JQ62BGsh5IDCxSs50uMwyrkaUYvUaGI813OJlMcXDRxcd5WPKaZ+e3ysUHOb6PHcKyQNFSoNDGpJywlKQnStGGYYGwJEq9mdYUKtE4IpokvGjCh5jXjB2x44bl9DhvCwSNQCuITUIQhQCKOhDUWJsdjckRXzHa0FIUaFCL0SXGYCuLpl5vbLkhXJfS4bxLNTE0AhIGRlOKkLVQjsWW5RNBMKglyxBKwhlEMxxwSXK0x8ttnYqNS+nw36UdUKjYQVQldA7Cl51QcjgweJRmvP9FSxBEWqJSBi0CGpaGLpl5/bKDhiX1OG5Z0FOrSkHQhY6tjkSUFIU5B4JYzLKVGEVrBtgERURcIpIgosGnzfMa4+f2ysWCS+ow3iWKuj4JAq7Dsqq6knWLEKwjSElsQWssiq49qoNVLODLIILLRNTm+Y1ywNspOGJfT4bxKtWzA7zaXl0oulBmAUeKdTQgkVt6JLJSpjHtyLbidmzyDbm0EJK1DceZ1yw9suIDS+tw3CoDVS8NSiroIhxRdWTlIjFhDo44kggy7Vp0Cy6crsY3RI6nebYwNcsPXLiBmX0eG9Fuabm06ybSIWWS6bKM8g1IdGzjomuIiBG0PPU9c4lrZaMTpeWw3Fjz2uWLrlKQp5dzHesrljMnTpZXJ01JWxTqUXf5S5IVV5ySK1aK10RSsuLbldTPt5H4UtmGpXILHnNssbXKycGnW3juNdSQNgZ1y+uz6rYj1zlrrII1JywKujuWzjo444zL1iWGMToBeCAx2HOaQ87rlk65SlVZl2Md4VxzCgnT0es4ojL75TlbRgdkaMe9as5XsfiqynCqgXz/UHSdJrcsRBzS5smBrjka5yVGZdjHcatuWee1rNrm73BHqZvTPXTR2Is1eZhXpyUdjbmy0KloXrzvTNqoEKtiUIrfIq4emWVrlYgPLrY7yraTOm+bsSNy2vPke2tzQWMh5NSTNt6dIUOzVkXq0a8mRb5fpSglVsGOLQ1KSMfXLI1ylJUsu3juFXoGrkej4q1abnyfcalZRBduDoxGFa5E2KrFh41JMi3B6I0AIt0iWaLK1BYxNcsnXKEtTHPW1juOVoJOnU0+LFFRa8jXF6aMjpWXdnNVXrPsblx1itzmYPTMpelzTlsiqiG4MrEeb1yztcuSVNLt472lkal9Fzc4bsYSoJfO0GzfS3NcSg5GT1DS59sIMRoVAIX0XMUM23g6mg8YGuOZrnBKEnW3jsaddLtwRaRpuaVWd1vPnqSp1PYcTFt0TNs4op5KKt1M0VoI7HpOVJ1gdFeoeViG+b53bDK1zkkNLvYbv8AHYep6Xm4VaUhQ1g51gd8qzqwym7OQrKJ1tcyyp0qpU8/1U7KL6biEnWlHkey9kK5Bow9ccrXOC4SXcx31s+3UVtlXHLaZNmlLkmL1dCdDvC5v8joQfgFCRJ0/J5TuhGDf5O82x57pndQKvcimLrjja53IDS7eO27noCy6sg7DJl01BZcXqK0zBo04uNIxA6gWViPNdlzSkldHjq4l1znqGjB5cPXDI1zIlVYl28dtDjtqXqaS5lWHnRLLQlZjdN/i2vJJajiFKwGhhpfL9uNeSRvm6EkHl+uluhoZlwdsMnTPkkanW7ju3x0c0I6yhh9CqIei0Cs3+aJyvS9rUhpeCIY8/1cemo9HzF6rOwmk4Ttw71CMRh7Y5WmcFhmXfw33M+6WXsMmbWH1WDoePRZ9ZHfDcVHErLVdCKFEMeO0qBqyej4K1k3pqXUnDUeP0qgyuNrjl6ZynKxLtY7+gz7m8GitBAidApavT8UCOknBJBLoyjs5Cx4rvpDprcz0/DF6P8AHfUy4ahK3yXdcjz22OdpnycrEvoMNq2ycUJJJSqwUDEgyQsCsWWRmLopaMZLwMdhWihYuWW8eb1yy9c+SVcl9phqktCC5Y4qSWIKgSgySQULF4IQUq8VJA0MZghYPKU8htljaccWLmhLEScSSsknRBJYggkkggsccSccQccQcWKnHGV1zSrArOibYixBBJxxBJxxxU44kgk4gk4k44qWIOOOOKkkH//EAC4QAAIBAwIEBwADAQEBAQEAAAECAwAEERIhBRMiMRAUFTIzNEEgI0IkQ0BEUP/aAAgBAQABBQL/AOXH/wDYtI+ddelWgpuH2ajy8BPJgqKxi1pw60YNY2gK8LtqurWyiVYomcQQ6pbVEpLSF68nDRs4KFlb8oWdoU8jBhrO3VxY21eQt8+StdXkLehYW9GzgryluK8vbV5ODHkbfI4dbUeH2+Tw+2DenW+byFEiHjww44gHBN3PzGz1A4YTZlluPL1JPHyZr8NFG3UhzIfk5h0ouhteR/gdznFtG0zS5eOyj1lSdFsrzzXYYUpwkgaSZhpQQxIVC5/1X+m+Qd774F7eFt9mVjrxT9NBtJ1stcxpJXjOl00RDYK2wIV7c1rLPC2xJyKFcP8Aed4uGbGdjyVQ20M51UvRJjFSuKYxz0BprsaT3/8ApHV+MQDt4W32W+Q+5sctRmmTTSt1BzlmNNuoegdxs2rWYE/rxt28OHj+zlTYsYnjeDTzWndq10w3/W01yojRxoj75zSZDrtS1xP4F7eFt9kjMo3qQdEPf8IwcVGmquTkJGM7LRTUZTUT+H+gcHh3ymGXTYQvGUxoLAUO2RUhwOYmle2aTvUfyt7xXEvrjtjwtN7s/MRX+P1xQUaY1qInEUitVwEEVq6ZmdGqZSXi06H3okUO/D/k0T1w9JFrtHFHXalAaRyNJWNTCqsusUpBr8izrzlv3iR/5R28Lb7X/r4P7m9vev8AEc2mGTLOMyWsEDUbQIJtQePZW7bUpOeGfKzNjhuTQUuJRGAdOmL5HGzYzkCPRkmuxUdfY56uI/UHt8LT7Q3nWKiDToDRDUPdEOm3hqWFVitAwjt+ktuLv5Qd5O2noFcN+V/bwvvCSg7L7mTOdOSa7gHBPvqPPMbd/wDXFB/QO3hbfZXaf/NZonXTR4pDvE+mi40jl6muemNiUujmZdy3tFZNcM+R8Y4Z7uos0UilzsmabNDW0ceqR+Q4qdjQTlNAHYY37NxX647eFr9oD/olJFHem93evwdNI1a+loVC2jFmuXAX3N2YnpU7bVw/5dOV4f7o957lcPN2aPRWnDRD/jki/r//ADS4zdCEvHyvLP7gd+LfCvY+Fp9r/chJNEUcV+5oZWtRBWQUlzGAi86S7h5Mn7/lO1WJVHQ9Fkyq8YHPuFZ5UVdbzSYlYPSBGgkjCLrXy7VMyvJb4jibesb8X+AdvC1+0/ytQHVTdv0HFRjL41GKyBCokVwBU0YeNwQ1fmNlUklNLMhFKMAE0KPcnqbYDevxTWxYbVvWa4xvAO3hafab5G38M0dwdq3zawl2jiWOi1XgbVE/MjvbkQq87MeZkQHmMsbCuS+q4Z9E05BEwJWSlxmRt1waJ2j2oZygrNJ3bv3rjHwjt4Wv22+U7HtR3JPgMVFNLFQ4g1F3ERmWWGLMcMjmSQbmx0Mx5UcXMzUtyS01wPLBWxjS2nqyYyx1Io2IxSClGaPt1ZZTgjJ8OMfCO3ha/bx/Yd6NGmNbmgu5BJpLrVCz9aSShlgUUkCllhdDId15ElXI0IFJpwKZd2GkDelpAKlyKX2xjEjbrSDrb3Dtxf4h28LP7feU7E0NyENHah2IwT4dzbDqRNbLrxohjpVD1JK4cKSUGl5yBUbZqbtvRxriY1L7VwVXv/od4u7N1rXGTlB28LP7Z3lbamqLcMdVSdMWa9zBFC8iiumo8LHbR6je3DCTelmYx3HSTlaY7uchH2Emsx7Mo3XettCDpTYfnYx+5q7Hi/x/nhYD/sfTzJNq7nIwFxUnuxqoquO6KuquXk9ztDE7MXMmVSsaaevwYYFGplNI+kzMGVe0a4qIDC9goCnvH7s5pq4x8Y9vhw37Z97nVXZotqbYT1ACzOaGWOgpQ7JEwa8m1UN6XdS3Q0vQx1mOMaRlTbrra9i0K3fIzq2icihnB79i29Rrufd3HGBiMdseFmcXJG7e4jfUArtmsho4zg5GY4xCiq0sdsgCzya6Y6ZMYKMuCQC2KC0K5eoxR6anjEiPFigBWaHdDmjsO9AdadMhHWvbjXsHbwtvsGv1casqtB6A1ymxXCosVJFqrGBdqNJk3mwazvpplpQMKtb1GzpUUgkQ1dkUfdhBUOMw7jIyvZO6nTR98dcZ+MdsUathm4lO4pdiWrY1YjXchmwsJ1Uxq7mLugzUnt/eYaHdVoqdKIxkIerCQh7u40s7ZIzqqMHXEMUV6juysaSjtQ93Gd0/PC12url9Ui0MAMR4W5kEmnSLaQlZH0i5l5ccaGtPS3Y91HVyseEYrkhhyOXVmuJrnPOPbOKUb6q/FYgl+hTVvgs3hxj4x28LT7cndFzWKKilXNb5DMJI3Gl9yP7pgAA1NTjqzSSFqzUNCruTFRvHG1yuYMZCjqG1Y01+fmygpvAN6zleNez88LP7jd+1Gs1H321Ps9pKytLLlUXSKkJHhL3PaGhkVE2DI+lFZZCIlZrjqiG1dq7jvQ9qdxW9QrWOlffxn2Dxs/utmmrfJqLsR/Y+8mrBLNK8Z2aSk9xO8pwxNR7VqNId/eJEASCHmLctoP6e49o6aU1tnYD8t/dRO/F/Z42ZxeMK3rfOKiO2f7B2j0q8RjWsZJUCvbR3Eg3xS7Lp33WoZRS4NXEqxVJkudhW2B7h3osMY2i98j4ESbcaUrH42e95P7m2odyoxtpY7CtNQsc9q1ZZ2yBRoKSzYob0FrlA0qFVf3d6x0jasiv9d6FLQO4bDLlqLf2cecPHW3hY7XUwwc0KJ3XJoQ0YqZWBBC1IcUDWdtVHNBcCkFEbClG8gKvnfNfmBXel2pRim2Bp+ql6EhGquM+0dvC1+xOSWFd6C65FjCLqo6SzEClBeliihVIo3qW1WlVqRAtDchaVaZaWPZRV3b6wFxTLprQSApFMeql2pjX+Y9yW1GL28Z8e9Wv2J6zqDVACZZFwCKGSy2o0hukAExxhUzqWZQsgWlSglBa01prHhLCklXESxSMOhSWBHVpwaBpz1DZVFJ24wNvG2+xN2zuT1WwyrEawhNdMSnTHHyy0SGKMA/8ANaDW74aaNaA/gP4cS7JrqE6SwKtCscqyWpAzgLTHePOFrjPZe3hb/Yn6XzhF7o3REqmTm62hxIzNJJIblqjm1LNzHqzwsD/YA/uVsj+d/uLcDQoCu8Q1SRGFo5AYuIYpaTJKe5a4x2XwFWv2mJrSQIAS+d4GUUHJCs2EExLLl3JAguIeWCKuNpmyLz2TfzuFySmkXDRx093iortXXIQzvqmZdkG8WcJXFuw7Zo1a/Zc7ntbewd5TphXarWLWZAY2uxiWS4iegivUT5lve0vytl44zqU/yiOp57nS7zF2zWd0kPLB6mbNf5g2i/OLe0dvC2+w1fijCDet3c1AmiO4XMMx1CSHM/KjSK39917R8Fs2a1csg58M/wALP4Z0C3fljpcEtSdk8Cd4fYd14p2HbwtftSAUuM6ywfKLVouuZBtJUfXaTSaaMqyxWq7z+/HRYGmxXwnavzw1ajZ/X4gNF3LMTCGzX6ldlpj1R9mORxTYDxtftSndO7HeY/2jraFAD+XXSLYhmYHQgD8PhTlxzN/1Kcpb7Ts+K5hhYdFNIoVHytxJpSEaYbRwy35zdE0MeGMDIwvdz1qw05FcU7Dt4W/2G8IccwnqtFCVaLsz7yLrj905KvNw9n5l5LplvBpkh+KZdFzq1UcxCLVTwhxFLoSIGZzslsdQY5fbU1frGtqjO5+TGa/OLDFAeNv9mTIoCl2EalnOSR/XGmWkbtYJqpeiWxIitAwMkh58No2YnXUMFW5RYfHUyvjUkZtpco/tspNUkvTdfpNJksV3eox192/EJFcWOSO3hakeaalpe42Fkn9lw29vijGzz2ceLV1zIsjRqY1nEUb24jflyKcg07jlDmCo3PImRedIdISQPHw5/wC+6+y3arROYbiPRIw2Ub7CkrfTxOh7R4W/2HJorheyoMlAIo86mi6YUarX4mOImXMEO9Wt3mposFdRQ2jSEqkcdsw8sZNFvHl3j1NGxIpX0g4oncAGkTkw3MZCnsuVo4ylAHTxXY/mfCD52G27kHqto9K3L70wwAlTPyquvjLYt3qzUNdTDKPuZJjGmogWSB4o4mkojTe2IBq9XSSByPzvVlFrmuWBMy5snXpApsGot6208W7+NsM3WmoV0iGLU7FYYxkm2GWhfmyGQCS7UtFz8xOdNs6YUjNRSa4jKqKIzlg928WiNXALNhqstq4guQDsOxqEcu2VaUaosnUBknNJmsnHFu/4K7mD7Lvih8NsBFFI/OcAlpv6oLfpjbUWE2Fu4Q4diyT/ABhm0PVkmhLmQmG0x5QOlPIjLL7rerr2Tx6X7mKPW8IwABgsFq7Gif8A2KShXGTlvzes1bfYcmuaNLMZW2SrTsf77mF9bRStz5hh4m6LqDS2okczKww5POxUu9ra/X0RFjy6l90GzyNqN0S0i71ENMcUvTFcZWTVLV0hkTTgLpCj2r34x7x42wzdSVHjGwKLzDMeUqxqsF0eUsEYSjMGlxoq8mjkVYtTLYOKltpjVpGpFy39dqf+dY4gTyhU/vQ4GeluoRjDP2hiPLhQ0I1xpGpk5cv+h21VxfGus+FtjzMq4KfFH1kr0TaUpTpGGkcFlBeoV51XNv0cNUPPLJpqI6FhOmOfDLbDNt5cU0ICMiySLEiVO55T7VagtLp31FbXzJYQyOajbMd/GTTNStvkZ4x8v54Wv2nUVb24KznRJbSaSAjNMeWc4rnOo5hItH0NNvHaMIkjYrRQ8sRx6rxVW2s/gIqT4x88nsmOFLZFh9lulz1GQbItRj+wirqLlSbkru3Fvl8bT7ZzlLnodZZisVxTWWsmxjwbMU9uUUrijtUD/wDHDE3JzKQ39kkLZF7tbWbZt9QFSdUf/swyr/DkY4b9mf4TLplLiOTLSGAjTV1FzY12K9uKjEnja/akNCeQV5iavMTV5mavMz0bmbJuJa58hruoldV8zJXmZa58mUmdS88jJrPK2yrlT5qWluZzWTgd0bQxuJGXmNSzyZaVjQlk1C4kws8mpRk5y/F/f42K671+HMaPDpABYzZFjOCvDpTR4bLXp81enzmvITChYykHh8uTw6amsplpLaVqFpNnycmfJTUtjKyenz0OGy0vD5Mmwmr0+SvISFRYTAnh0tGxlDCzmyLKXT5GTDWUtJaOF8q2eNpouD4aqVyG8/c16hc16hc16hc0OI3Veo3Neo3VepXNepXVepXVep3Vep3Vep3Vep3Vep3Vep3Nep3Vep3Vep3Vep3VeqXNeqXVep3VeqXVep3Nep3Nep3Nep3Vep3Vep3Nep3NepXNepXNPI0j6q1UP4Y/+P8AP4D+R/h//8QAIhEAAQQBBQEBAQEAAAAAAAAAAQACEiAxEBEwQFADIUFg/9oACAEDAQE/Af8AGhRWygFAKIUQoqKioBRCiFEKIUAoBQCgFEKIUAoBQCgFAKAUAoBQCgFAKAUAnN2o1BAdIcz6N8J+KNz4T6Nz4T6Nz4T6Nz4T6NQ4xwDmfRqFxrt130bnkHSNH0b4X0o3PhPo3PGOu+jc8WyAW3WfRufCfRuegOk+jfCfQeE+jfCfRvhPo3N9+2+jc+E+g6G2my2530bnpb9B9G54D2n0b4T6Nz1d+V5o3wnUCHg/SgQ4dlstut9KBDi313W/TfQIdYcf0oEOsOP6Ubmo02Wy2oOIcb6NzUaBHTfQ4Q6Y0+lG54joeoNPpRueIoUHRGj6NzxCo026L6NQoENDoKjp/Sjc1Op0Go4Dy/SjcoUGp7T6NzwnT+ajqfSg4T+iooUOE2fQZ0FxqecI2fRueQ8w4H0bnrCoKNn0bmxQsfzm3u+jc0Oh03W+m3XfRueMVHSfQZ037LUbPo3Pg7p9At/BdXdbqRUipFSUlJSUipKRUipKRUlJSKkVIqRUipKSkVIqRUipFSKkVIqRW/k//8QAJREAAQMFAQEAAwEAAwAAAAAAAQARIAIQEjAxA0ATIUFQUWBh/9oACAECAQE/Af8AppWZWZWRWRWZWZWZWZQqKyKyKyKyKyKzKzKzKzKyKzKzKzKzKzKzKzKyKzKzK/IVmVmV+Qqmp4VcRQgA6ZY6iWQVRsf0hB50QOwyqtUguoQ5OjsDz4qrGzRedEDzS+k2O6jsKuahoqX6RsYmBvRA81unsYVWqiNNHYHmh06NxGpBVbqIFGZgUI1WNnk8qOwPNLXaVVjYQ/sA6/t6OwOtpmxsLNIQ8+wPNT/R59geaxZrmACZNs84HmlpG7fB5wPNTWZPEfBRA8+Frjd5wPNwFx8PnCrn+F5wMhMDQUNnnCrmsptb6/OFXJvAbBr84VckYjUU2zzgfge77DfzhVz4GgN3nCrnxgbDfzhVz5hpN/OFXPlbWLecDz/C84Hn+CV5wOp06fSNvnA6H+rzgZOuxOsReBt5wMTBk3xiPnA8ibvdr/zWEyafnA8mULNca20G3nA80Cwi2g2eZt5wPJGAidBQ0G3nA8l/7YX/AKjc2H7mNVEDc2P/AAjYRGo6/OB5EQNjbiOk6/OB5E3HEYd1GBnRA81/2zXfYJecDAlCAkE0ShA2Bl5wPLFPpEeQKGyiB5b+6BYXKCMDYXNxHzhVyzLkgihd9IuyIQQj5wPIiQFnTo/H5wPICLIoFGTp7iLJrCHnCrliULjWYixuID9384HlsV+gnCdZJ09z1PAIzPELhGwv5wPLMmTJkyZMmuyZNZoMmEGsyZMmTX84HidOnWSyWSyWSyTp1knTp06dOslksk6dOslknTrJOnTp15xxCxCwCwCwCwCwCwCwCwCwCwCwCwCwCwCwCwCwCwCwCwCwCwCwCwCwCwC/GFgFgF+ML8YQH+T/AP/EADkQAAIBAgMFBwMDAwQCAwAAAAABAhEhAxAxEkFRYXEgIjIzgZGhE0JyUrHBI2KCBDDR8ENQU2Bj/9oACAEBAAY/Av8A6bhYb0k7ngfuNvDt1ZbDVOrPK+T+rgpLqzy/lngt1Y3KNuo1GNcThtMp9OnqzZcF7nlprqxUhydzy+WpJ7Nt1xSlFp9S0XtdSuxu4iX09ebF3d/Epsv3KU+S8H7mj9xd3fxLwvW12Kq+WWjbqeH5PC/cfcfuJbD9zwv3HOFU1KlOxgt/qJXutTZh4UU0L6iw1eljZp32Xb2tdDZSdXqUehpZ2KRNn3NSbZPqUY6ajpOmzxFpUcoTSceRtS4FpUS3inWlNRd7ahxFBaLU8TlwP6rlKWroUw67PPceuUrC6GpL8uxh9Ta02rM5FVqxi2LMUsS7G3rwK7xM8KSHLfuHtajm13UqIcVdyJUpQRyMThQj0X7GMuRBLkKMU9uV5NIUqU2tUbP2yEloykvQTlXaW+Iu9WEtGM5kv3Ncn+X/ACLPD6nqOo29RDerKvJpqzImhoV3ka2VSQ88ZciKUNEYu2qVRGc60SXuWdL8B7VWhPehWKteE+6IoQrSPHKxOgqvdk/y7GH1yvqX42zsUeuWg7Uofwiq15ovu5FFdyJU4Z4q5FPoepiOcWu6I8W8sWZfUaPnsPoemVv1djC6lOeUqcCuTbGd2DaKOiK0RWTURyhVroKhpcm+GVeZi9Dy5exi7aatvylLEpQ4IaoRHtKJL6fdaNaFpJ+p6E68Cu6mX+fYw+pbjlE5FLm/1Zcr9Pa9SunQuWZ3dBbLoUJcy2WL0I3lV8zGq3oQgt+pTb8JaVaDpwEXhtHcWztfAnbulPpwXplNcj0y/wA+xh9RdSoqFVS+qL3yvl3UjvU710Narj2GVK6mL0ImN0Kx3rsveWepd6Fj+SXQ9BDp+sWeH1F1GXra+SUl6nTsUbezyFGEXLhQrKzJCuM9MsToRMYw4xeo64sa8KjNqvoVT3DnVcBx+psJcWbTxo0ZSMlwqt5szntOlieIsTwl+AjT7+xhfkL8hJVyfChyNc6Fd4u5SIyrFQos8ToRuY3QwSbU1XhQkjCw7VY4vch/kV3pH+n/AO7hegvqtroYv0dB9BcD/PsYfU9c79jic+BcRtzVI7olY+F6CGIRLakkqb2UZjbUoxrzMKrVncbw8bDUXzMPblGidRvD2GtxGVVVqhLDnNR71SkMXbrahgx2lVD5UFRp2MWLaTehXkI/zFnhfkepzz31OQzkUpU75CCjaSyaZ0Hkii15GzKu0xK9jXXJ0fAuUJcNxvsa7iqe4Q6cB9CIvz7GF1PXK/A1LcDUZbTiaZKcdYqopLeU1m9ENmiKSdE7IltU4G1CzpYbmtlxpQhLutjcrF7j6GotnK4qO9LCfIR7Zr8xZ4X5I9S5Y1zY/pv0KSw78UbezH3Npa3sykXXejald5bGIqrUcdlOlyO1d9R920ClU3sr3yqvQrHRlXoVydnoIVhU4FEcdC/AQvzFnhfkj1ysXNMnmsPEi9NTu2O4+9od91fBHdjtHcSoJuGjO7gtsbsk/tKkZLgctUS4ajjIpuLOw7ZVFHLXJC/PsYX5LK7Qy5YrFVSKjTK51RfQpCOzHjvG5Sq+FRS2VGG4l9OWynehWb2h8xUFzJdCtdDjUpW481XNVZfiRp+rsYX5GhXUsVEvcpvZR2Rd0qU3MVGqj0FHebW4eHB0NbH020kuAqcCpavI5nNFdCUuRVnMf7DpwNSvPJ9BEiPXsYe1pU/p1pzzohci5oczS6ucynDKvAlP1uf8CGsSNVuN6OOXdVy+hxKRFbLmXNkuOnQTXAqR/LsLo/2JdRL5GV9iotBbqEhIVrM2Yik9BQjpvyaoUZpk61O6ju2qJ5MRFG6o+eTJFBKpH8n2F6/sepzypls+xSiZa9TafiY9pU4G1K1NRL7P3OTKM19Tv1KRRTef8iaTOZRj5PKitktcuY6ks4fk+xHO5qMio72aup3VfiVkWNp25ZdShcoXeVpJHijLkVpTJ8cm61L6iR6CZYchMkuZD8mLOB0L6ZsSZsSWp3sramytFlu7WztUrxHyKO6kbCdGO9a61G80y7qUWmoyYi28janeYs8Pqd2mytC7L5WFsfcVxHfchqW7R5W8Uir3lxrJccqZtosSlXeVrlXdlrl0OeoxCe6pDq+xg/ksm9xR5aC3Mq6iST2Xq6by+4292mVs6spLdlzyUE6bVjWq4m2tK5Xy0ysh/BUkI6Mw6cWLPB/JDbys8t3PJiw402TEWtdM6Kt832azZtOVeCKR3nQfMT3FD/nJPllJCGYfV9jB/JDrkt+UnvESostKU3FJvvFi43QZfNFCkVvNqduh9OtcnWyKvQlXNU4lx9BLiU4GHfe+xg/kirqaZu42j+5nedh7za3luxrcplbKxReJne1y4ZoVUbj1OqLeJnhbZhVWrl/HYwV/chpJlx3FRupuNmI1kl+5xLy0LaGuhrbteN05Day9C+WufofJXcIWxahgNc/47EfU59iiO9L2KRqbqFH7ld+dMrly9S+SJJ7jTPlktSmo1lY5yL6GFTn2I5a+5Uoa3HUobP8AIowW0f1u9N7jwtcqjcHbmcDnlpnXLaj4i9+QzT4LnQRTLhk3pwyw/XsLOMRfwXk3yOBRXlyNrGn7Gz/p1sx/UzuvrPezhHgJaNs/tfxlXt96NS3dTQ3pQfUqtS6GzTLmxb8sPq+xE0Hs6I0uXpqf01Tmb+S4jjG8n4mKWJd7kNzdJs7z726xBu28eJwshxe9DT+3/Zj6jdNB2Oeo0/EWuV39h2MPq+xDmykZRkuRqJIUIrTkVenAns2jpU2pWw4aI244deFT+rHDY1HCdPg2VVbiO49Cd93+zBf90PF3Z7iSsQTlY2oPQi+JGKpxH7ZOljmYfr2ML8kUL7stEzFctKDS8JsVYu831djZjhJPqf8AljTVVKbT/wAjD2PAYfF2Ic4nKf7/AOxh04n4s2pKre42VGNOdzZxLGzu3DpoiMdTa4IfuXMP17GH+SFlLcUuU+6W4uOQppaEZQ11RVwkpNXI7Fdn7uRbTcRMGXU5pifbxetDEhS9Rt509VlrXKpVswr3v2MPrmkhlXusKnsUJmDL1Eoqu8UsNUrlETf6TE6lfsfwW7SfFtjjWlb6Ckr8UeHZyY3lQbyw/XsYX5IdM/7pFDal4YZU4oVd1hNKtFQUuPHLC6jQy/hOOH+3ZajoQruK8big+7T5L6jJdCxSo7nIsYfr2ML8kOmUVu3FN0TZiRw1ou9LnlCf6WY+C7b0Ti9Udym1EjTWdCK/tEycebLru7zvXwXo+BVXgytbZUj4noIoiS1yvnzyfIoRIevYguZyOnATfhV2V3jxHpuHLiR6kk+BGni1qT6Dw0u7vIRjuIYvoR6FVapRjUVtYe9H9KXdreLPFszaHwW8+pNUX2rLFas3oS69jQ0yfAQrVoQ9exh9UXKGyiiIxw/CiMSvMZiT4KhjR5Mliy33I4mPvdeg9nw8RLhk4qrod6x3VSTKKtZfav5MPDklS9bWZHa4jqTjuROPPLkVEIW0PgIsiF669jDrpXNrdlcjHKEq9yjMTi6kpcYjiltR4Mcm6YmIlsiV3EdNMnuG4NPdqWxMJc6jlZybpVbyVd1l7EGrJqo2cmiUlx7FnurkipqUZGvPsYf5IenAb3ZcspSZKW9ivvoST/Uy+uyVrceFPTd1PpY1nomX0T+CkGf1cV7PBGxFUqYtaVW8hJ+HZFX7o1YovTcWdLFLDucixGqoxTe8Q2srMe8hTsQ6je4oNHybC6sjsqjZh4Y+tSu6tx23DVCD4ojt6VyiquqvsxNqer3IliYu8xObIwlpHVE2l/4yNVuMSleNCtd5bKPAWGtEP+050y9MppWIdjDVfuRe7HOSXBCXEq9DalrIq9w57txsj2fY+nvRs76mGITk41fjuUw6OTdtk+pjPmxfbhoUY0ojahJKf7mJKlJU2WYfsJrUa3lckoeKV2XHF8KZUroIqOph9jD6rLD4UHOdq6G/YWhRGytZEE9XccoqqrcW1qfVwhN2oyMkyjy+pIlypUjXe/5NUTUbuhidF/JgrgLqUfxlTRDq65u1tR8zoVyw+nYw+qKMVtEhOth8irV5Ow//AI4GJiuySsQSb2W9CS+3gyVbW9jor5cBTnaPA/ZHLV82Q4V/kV9Du1qo2JfiN8LCXAb4WKE5b9xKsoxpw3nj/kpBT6uwpfptk3td7gKrLIh07GH1HfeRW7LvXh+5/wDpKyHCPiYv9PD1ZtpJtcTZkqRZfEjVXq95SEqcdxSLLYirzQlSMlyHKV5Rd+ROpBviWl8jaldRpqL8ShOW456lRRo6JfJOVdeJ91OlC8a9blPsmSw2WoUZyMOn6exhflcfAT9y9kP6fioLao8Tch4v3aLmSaltG8VstByp4UcyW1PvK+zUvq+8zEe1WolxH3nTUu60Vik19p3YRRRDIoxOv8CotJfzknLR8zB/7uFOO40FXKHTsYX5IpepFz4aElapJyq+CSJScdlv7plZyq8vEy9DUkYj3t2Np+KWiKyrt4limzWlqslsxp0I0yl0P8SXQb55K9d5X9VjEhv1RXTcx0vuTHwj3Vls7txQRD8exhdcoqMZSdNyF/SS5yZecV0KzxWfd7lsM70WXXujoN70QcXSWtxfUjGhR32CK4yJEX/cakqcBfiNEuO8oejJ9KkXzJ1Ur30E6bEVvY1vTvlp3loUpcpQh07GH1HT3PHL3PMfueY/c8yXueZI8yQ/6ky85NFbmypOnAtOR5jG1NqpWMmmbM5SNndlq10K7cvc8xjLm1GzKSnJivc8xjrNunE2tt1PMkeOTRtSad8sP8f57GFHjIdJr2H4X6miNPkvso8UTWHuVrH3Nz9S9EUt1qfbTqeDXgWi/Y8J4Nx4fkUlSnU+33PFE1SHeLK1iJ2HTZ9zWJdW5HhFWgzVFKlar2IJ3ez2KqzR50jzZHms81nnM81nms80834PN+Dzfg8z4PN+Dzfg8z4PH8HmfB5nwjzPg8z4PM+DzPg8z4PGvY8fweZ8HmfB5nweZ8HmfB5nweZ8HmfA5TvLLT/0/wD/xAAmEAACAgICAQMFAQEAAAAAAAABEQAhMUFRYXGBkfAQobHB0eHx/9oACAEBAAE/IfoBEZ6zVxL6agmvpqDEub+prUUA3OU1c8Q3BKgm4DMn6v6ZH0UswQfRfVagCinrNwxX9Fv6KL6g28GFzExBZi6iOpqBQYhEFfTX0IqHz9BnRAo8JyDycUQDf+0FQ2OaPvKy2LNN/ZXrLCkyO/luLo4nJ7NqDUJxY+Sp3QE/cSgjiz/sJtiPB94ZR8mj7wAzs16gKjTk/sbDNNDinGCeYjRL50Y0ZZSOF5fL/Zf+6wGITbSeK/YyoXYoHG9BTPgxYusACyoRUQ5A4WtkGYRI+eXpFmffxMwgGi/sZJYO8cgAPOX8klYOb+0KgfoIGuBJUgkItiW1eDWzDYHIr2gQBg0yxCcUkP8AJWsDXGYBbHQcjNfSHiXS4MvMcY5i1ABMhINgcRuWwj4ECJIT3kYP5hZNhPv5cODFg9QydSjnqEYKEIPSLxbMaDyBcKd4AvmUkLbHMMAYawgQZFRahzQ5khYhUCpkNR8QkQ/f8mFFRpAAvLIFEoFQuygVCu4yF2r8Sg7y3MaZQ3SMX95ijm5WAsRYYO1FJQVjDJdIFGh9PcB5sxiBqEUegI0AIiAYVgH7wAYtxnsQYg6BhiBUBvYlwgyB/YZQtBVCMoZuFXJCIT4VDJO8P7gAgnzbtNCNf3Mqif0m84AKB0jYMH5+oR9JDg4gEBFmvPxQYEXp1wYSUiuyFyDsuCNGA7efaNJhFhy5c0I0VlKJzr5H6p5+gMCRMCRoMZ8QqoUCMCm7xLAUDHvCuiqhl6YgV+D3myRGPeDAwqhcrmCNR9owToOoMGWaB4hAlAx1MxiiPghDyBijv0gCIrHHrCEwFWR/Y9EOWAAI01cIYZQok9o5y8ZAEKS+3nMOIFQWoBNhiwdzOKvEIL/ZyPUTQH/kBANKnoBEQ+xLnLkbiDlI+mYVfEzMzz6ypLRKmT8nUWXsOJQjxhzD+k9XMGAPco8woI7gNCVdwJxowTn/ACBhZZ0BzIw2GWEJFAxAAQQoRby65MBCYSdoUx/2IV7QAkLH7GVeyWLgH6UuMEbSh8ggPKCAnAS4od+kC4soRgHR95YQUtte8saNMRg2zkwEJsUIKYGwgR2FGoAsCqx6GYRByM1BIQDYhQERUv3lhAaJO+o6GZLMsXGj7R22dw8jjUsIH7QYiBjOBF3U3LTDAbOvFmHESUygcKm2u4bSAA5OHBKWijjdgzQfaaxZ/qVAahLUGNfdAFlUgXAkBJoAnZiBoUj2B+KFsBoFHWBELsT0nBqe0wUYQgMHScywOGxA3hDAyFDuUxyczKjVGManw9Zij+jgo4wlLE6dfmdMQNMoIAFhzqYlBPJBiLW8whjI/D8QhBXUUoFk9Zl6sHNx7KlqHnEL94LeG4uvyMRcgUbhVA7xMD7IpqIMlCRMoiS+YVHAEuBBtQsECP3GLXK/nxQSXnywwxHBJ2LnJo37xPUoaTRURaAjPmHlSs/pCEpsZgzoEb5hD6pVUp6HEs2U/BmKGanLVMwKBmxsYzEUFYmxWx9xBCUIPzKE/aNU7z6wBpsPcLrQiAwVQbUD0DRQAQSpAdXN0bJvxEKaamBtBwErETzDfg1BaydKtygSFTPrGhDFriF9mfLgBbYPvEWdvAHMCIGZQGbLZgtBFQiEyCi4re6EbolaQQwGjgsHtgBtGoIKfIMPJAvoS8eAOEJ8wWdSmyyfHvNbxg4RmUCrlFGAV90QQIRp9R4Mw8ycQyAJwgbOAQDA9E6B4hcoTn0hkU8P2lgqgWfvxNmmEEuGqm+A0P3AFHQB6giH5JGSDqlMYOAcjlRW0MhCOzAGiuGAIGMUKJLYQnEERBs8OYY4ReiJYB2BuAiThl6FTg2pdEC0PmDWFwQX4EQDI/qACQuehx3Yh/YOocobMcPSGmzeY1FD8RTkXmCrHkCcwEsO28+u4dsKzCdhXncBCthuWyaf2mEtQjyFeZmaP7QMGQAJEFfFuYnRAgwoRu2p64eKgTQkz0f+x8J+wYG+nf7QBZyDzGnB/wDUcHso+6XsgrGaFvlTQR48z2BErj/qYZlmciF7eFgbRDCLRNA1G0cAY94wWOopnTvzKAUoxNWYaRtMmxDSVGIYaoOTfZmtH+HUsEKYLhuwUCx6mNYBX2gSetePlSsREOSBcmKimhE05gh8mJxQ1KMkEZBWgUUIsQTQguFtagyIbdZH4lnZsGFBY3MAWqjUNWWe4OhOaR3AYAEfVSxH/wBRJgAKwf6+iUXEYI4SwPKYMqb7faWL1z1EErJ0txF2cwosik2Biq6WXCFwBxUbnA4FQEIZK38f0/S2PBh0DnbiH0NqEoUCQsLrELPopiXL1UGKEABDmEzZQ/eHYCbMkwAIaZiUo2gtKC7+esBY+Cyp5l7qigiWBjqFimXwISAXBZ4OdRyHIiM+YUJ8QbkkYbHxRmOB6nIE08rFvzaXFObNlFMoRSc7CAIHImYBuKA8j0hYKw3BgGXqQDyzB4MDgGA+AMMBXkwGzZqDAdcOxBhJIIgIYC3a/wAljiIUw9wSyoaApcOIdDQ4gwBwRZA+xg3JpkSoy54lkN7FwaEkbH+yrEGWimpMD1Ebl9rrmIRvTOZSMqAAgNqZ5C/wfpGeoIw+JcQhflKjbDuYWOCLE5TFkwBC0hcJBy/DhEHtvzD9EHaxDE0mSWN01WvaLEAA7QGYSdehYh80py4GjG5zYAKxKwJp2DsH1hBCiNAAX5gKBBjisyG5mBsSDCA1kEdh6xsQXDqIwMsP2ijTowmFDuIUmVxWjGJVDY4lnLC8CKJisgkfiCeASXsiBRE/tGTU04hOOQ/P0ymTN34GFOBO3mWHpQDlMFxdqMsqh3HWXCAAbFvxKwfvC0swTMUshMAQACXMYNYQnHI+G5i8XoDQ8mGPegfqJvdwODDKSQdKCrsWWY9gceePMzqBHwcyxAJXx8cLPcjzK0NvsYEAW4T0CeoAAWWKmYUQZQKCXo4gECUNKKQ6f2aFrcv5oPMiVGYvEJvEE2/gYUzk4gA2QjeIIRB0IxwQ4qWglh5wIToIs8w8jAyR1iAJCVoGM0/saAYvzEACyXBAsQ2dy5NM4FG5kHnHmw+0XA3DZ7McyTQY40iKdqBFR2Eq7SN/OY0xoFGUBKLBJIZOT7whmAZOAKi4T/4gglZAy+Jg+wXEE3o6Fw8tKoBiGJhhTYxABAkX7mGDsr6ORgWkPoMQBUBBmtOoAMUCAQFtyYQBUXmOhY6gsQRZNQIy5ueYUGRNYr58qH4GK3AoGxUuWGEczCkBmAKSfY3A8Ck+E1T+mZSy21xqFIAyWX6hcXoghfotwLpoLHEMVKfOzAAChu4ViGxOZyw80UACoaSwtgOX3HUQ8JqPiFiIJy9/+yxYWr+0sEYKnx+oMPEIJMzBMAkXKzH8hiLOET6xFIFvcUTSeeTBoBC9hMTORARcj+ZYrlmnLIEsTIhTZsjmNYYK73CxAjJgZOgDuNdZNIvBR4i5AhMFHiFrBOjHpCAIIPBC7EoN4j3NbmUEhm4ywrzXtMrbFiWgJyTiMMIfmKrIjEW1Qw9CFdcRBEAEHW4LPSoQBcqgUijGlMTF7TBBAoocH/dDoKA4QdGyYtibuvugFa1bjHEgk5eYywnSqGJROg+fEzJAqB9IWIaqoJ6hgx8m/UvuBxDHmFBCKo38zABMu4QpJvTjkIeNxzchdQobKLGh8cII5siCeSOhAJjH3jHQO9RK0sk/OodxBJlQMQIFge47OsfYy5sL/sSIskqMB6HUGqamu3i8QQviNwJuCsqvyTki4QmGEhOhwTFli+oDSnGCBhmLQC/iMerlYuzM2bgB+orRrmnJbNQSjDeIAohbp4JbG40DA8IsE6yI0E498SoBvZjsKtLDuAbyhkKj5gxdEgBQUI381B2C0LEIJZJB4gDZyJMS9AhQQMKbnEx1qEhNhcMoqAsQCgsD8Qig8QeuYT1w54fEzPuP1DbVBlQgumP5LhKuIDgCQ9I3IcwVAALGpfhQ5JcFZOSZe4ARpEJWJAPKBNGSKgXFaMwFsr7Q1CF5iGVGJEEnMU2SQ7UBw7JOEWlyBEABLoZhMh7JzgJ2IkEqYOjHNkhAGWx+owRg1ImUNB+kK+CFdwDAoAQ+QMQMiDYD56z1MG9CeUCKXcUhFMqgFnHSATfyIGSeoHJ7TTBErmAAglQxxCGO4lL1gjUupiGAdcRzoOjC9L5gRaZ7uZaKiCzK8HIUGiEbOEWGhJZgSQ0AhiWzylQhTZAgiYIhwgjdjEEaZjdbl4sDDOIJAQkz7oyZN0u4foKgsGBgfRDtlyoNUXP0LTsRYcAQCPuIQtjEdH0uEoAAqJd2y5i2aOsSsAC9SbUi5P8AYHvltloDiFL0UCZD+oYIlniGsS3G123mACIyOfSbYQKAhvglsQuLJYRuAdki5aCZL04lwYSR94Eer6hl0e0yTORMAGHEaGCx4jQ2adfP5NobHI5mALGJlkTdTK8F4l2/q1MDiOjMw7hn90RiliFsUvyYaIpxjQP6hKYDqYgeiDBCGyTOE5DG36gWlQWYQzNXUqYlwyI8SpPDzLYO4ROQltyoltAHEXZikZFFkgG/3EOK4iYmKjj3MK6KCRLsf7CR+LxHQ6q5RIa5qUWEzBIDTAXEqhQ+fyHZjeIKGDgO4QLj/wAvoCZcBs+Rj5qGy9SIWAgYb+cwlTFgQQRADRtSHcFDow9AlYBm0h06ajEbwYK2vWGFQRoWHXmAbhqGAgW8wwQW2ZoWJajBltbhzh8gwn9uVUYBh2hECAa4HOI2bMFkBTjhw0Gyw9TB6Q4MIWJglmkAIoa5hl0ZxNOlweoQJEhmE7/SXEKgDxPWDZlwggHd5gEhArKgMUnhQIr0OACPyXO6ySjBg1QhABjyYzQ6RHvGl9GFRYsbOag9YjNjUtkJOjqCpgxocSp9wAPpFHVT/omoFmnLI6CBEBh2dSmyoALJ7NThGqDkUD7wFUyRuA8oJHGZgAJPCUNh+VCprCGpBnOAWoTUBGv0goCWdwQhYyPzRJP6EIMOnPECACYi2zBmoSLgEqFsmHcv9MvLg9oxgsTRN1CLhFMDiCVRYMJNwbGBNgsE6iGAp+5mJpZKCA/nD2EBbxCQdMCEpgM/aAKLvHhagkZPZ7lzlURVRgp4CwolpKUAAVlQFcEU46QXWI9AODX8hFRRgUdUCHCEg1hwA3FvAlVGhMQfaCDhQzesILwxgOHI/UAbFYEpw5GIX4QeIskiM6SxmYJjpwQBEB5VMmTZagqUVSmqejMN+pB8oaaG71AIs+YPAcoGBADzLGuxHheCgCc40S7gGVX3DRl8tCHkv9gAFpfqYEU/UogvHmYdOiTLqhS5igGAUXmCMQNJZnyCBCMI6T3BpIsyODANYnlMwsTh9jExVoSLMMqwcKHYk4tKAsJJPNwKAMT7PeAqgNxcBgdAwzpLSdDFghC/WA8BnBWInTVSwEFg6lEAZNwc8HDOlIIN6J0KnjDHhhmZYWizqdbBG5Q8+YTI3+kFATlA47lHdLzdIRwG+oPKpP2i0qszACJifEbOjqGDqA/pCpCIruNV3+JmZmOuGIBsYPvKbROGYdW/eKy9ilNTacRW8YRtLZAH3gwdEP4hSygXlXniZ6rjlqFXgb5l1nY8wCzFoCB7XDJgekMQRCZLPrBVThjYwxzAdrPaUgBJVK1LAGSL6Tga66hKPD8QoI28iM2zgM7J5sesNPZV+Jwxhnr58xMg/oggWzCoFv8ASDAhEMKHnn8QgESif9hUAObho6FqJUFNMMQBGZoBCMWEBJQmdimhlDSSAsgq9TBFDvF+OYcu7/scR2LW/wDULHkAPWFZCGXtBgHPEQgFTcKMX9CqBPoWBAU5ZAcdxjLIDFQiBDjoE0BGC7LUsAB8uOAbcxq5RT+fPeWQu6OJacQr8xbiS0v0gFCMxy7MP9RABPP1gBlKAZeJbtHx7wWJSID3waAAJJ7P4EAQ3iL4cBD+n+0KriwIFNIAliAcddhg8/MwSpDY3uDjcAcMDlF7xAigcZ+gy4J9mKhgCOKGqHESqgWUype29Kg2EO+e4Tl644hXLDAzcfBebJhwRAPH5gCJCIN+fjhBBlhaiVfFQqOO8wHLjEAyi5mUb0i3WInYid6mVACyUGIIkFsNyhJRCMkfyGcpggCHmCigZVAmIDH2jZabLgkhC8BrcBFkUBDJAbwhtRgpbjOD0YxHAY4So4xF2hJ/KZWpkI9ZDdZiKxiCQ09QIEPAVcZOoJkDDVGZu8CYTAN48wOAAQEsCbBHLzAAXz+kwEWcQMwRz83mFAAQ7uGwACPQeX84lSA0I1dMjxCWWPqepoVoCAR7QISh1I/CiCyocD3gFAALdmODqYhuj/ohoPh8EHKVQrhEUQH0IEEOsav4UEMMUkeICoJJuDAEsEyRVmAROocCcvpzBZykGEAxKlk/PWBBEngmaTshCog7eJV3P6zEo0QHuUICiPyRjAPaPsxDRKtqEWEghTiU3mAcRVa1niCuOINhvCJVWQ4QIZVBJGb5UYALNV0gYykXB9kfkQCkReHU16xjiYRXDiKXLDjRx9sf9i0agHM8CY6ELl2+zHDCGGZwPBGsQc/eFKySrhIGGcdwSRAxfM0ID1AyMVvtMHiAMWIQDA9YYxGaEDCAsZis5AY9MwksL0oDSaIehCtDJISZJiGvaglMgUZiIsAuxCCYDgBkRGG+8+8GqKuCSvLhDgG+0v8ALAi+pzmQwEAbA7gN/Q446MIk3PvB+jZBCgAhsSiiQTtw0VeIRHGs8Q7tJgJAoo5hgIHA2IznG8wqrYuO5/CgMFmMjmOb3oeY/SnuZhATsTcwwAsg8CW0dBzzrfyAA+IiPMUQArMvBA0Zm+f3BICHBKRZo7gBZ576i8EgxpcKhURaPnzAxbIBRiFAicSpUOlIIJ7jqBEFF2aQcanMAubzEbRusxRw7HMG0RAStnIM9UbpwwLmxmqZUH8FxiKhLtL6VIStnrAlkJu8y6vMIWKnSGJ6AGOI5MhoITBQuWWoMDiGQbKWBsGoYJ3C3FmT5/kEwFmhzBWjm6hlsBhO4BB5yBN6VXT8nhCRuSuPHMOUGLFw/WfTuVgUoXMCJCi6wqUl36RxDCtRGB95Im61LmGowRTgQWMBgjQNKF4GX4lAjmszDbGCGM6QFZ0zyllHaF/LhTgLMwRXCBt574glVyggdvCMukRYDDkkDaCDJ+wYVqZAe8SXBKGDxpEb6ST88QrRfjZlwDl/UtsbYTSfMeIMEppBaMswE0P6YYMdLiHeeE9phXxmZkaJxuGhRjAB4OZYGgjAVs1DB9QH6SjmUqKEwnQcOYmrjB4ntAI9df2gJKcqHYApncDDEZJGzAglK/EO2qPMHAROVC0IWnUKPKt2YB4S4Tf4bmUdFa18YnSLf8QLzhBrOdGJAAk+4K8mtQ69os+glTe8OygCwNNzBcp/xCA11DoNAPiCud1PcOxFg25weEBzal4QGRBogVsQiOVeIQbYH5RUDWowIBe4BAtjmKekK1MBlLjXTHEsQOL+gDBEQKzHVUoHNL58TANgMnj5cUEA8zl3ogPoQTAGI+BPczH21AaA5A9p2DP3gAMmJeGMyYDkQe0gbAPk+sXJMbWX9oSVVGMsOH5Qr7Cf9w60Aw3uOwEMwQIUxGN5LAHRNQC0EXFAIZDVJQIgAizqCxZ7MF3N+koqFsVC2viHTXSUZuBbVEAPMIrEQyZxuj1m4yg4EsqBeYGWyDBjBIS/vDo3V3GzA49oLe6X9pWZ2/ZBI04PSYNASAQTWiLvj/UBzTudGErKkYJCPTOpcJGkAKKUFfSDiBYEFIO1BZrKb56RPmQZfqFyCAFIA3GlAzYcHA26gihJggEhzBGNndxSb1WMwizJ1OSCFUFiFjEKyUOmYbQFP2gjymZpUpUOJo8YTcZVAABSCAWoAlUAUIkJBg5DRIBiwCvWLBZZXA+CH8KPeGXj+iIT2AJGDQCbEA9rF6ztWeTqYbIg56BkE/O4pl1apnyQxw9QZi2i+oVqv6oJVDWCyASWHvAPAaQaPxQ7aLAYmeQ1cdA6hAw1LJ4EKsgZ7xLiLAH2glynx+4S2KvWYgAwKDEuOtARBuCx3MdAIGDAjXJhZlTAwfeEURkc1EuNAtw5h7H7QowoRXivnrMeViMxBHh8DhBwl/Cs8hBvi8LqcayyoG1EyBII32IAKSZcJl1cATuNFwB6EwhrnX+x+gogt5L9hEAxXVODDVxl5/OJtCr7xdFAQD+4RANZr0g3RcTruMS7JjMDsUKrGsvcJ+RS64A6hOCAXEHADqN6R/M/SYZMAMKY/wDaMduAaWED1iMDI2h8mEHPc2HalNb7PA+KAfkJUYA44HcGkJPjEIMxyIRVkIRChEH7KJSNnOoZyFe1BWgeBuEFDR7OogtkvswlXpeH+IZixarcBFavjnZE/Y/2GOU4PmWSzj2SwV4MHsNpaEY1jvAU555wYTzcFwNO38MGQ3+0uSKte4WhaKECgQAG8S93f0uDA7j1H0WxM5vMs2J2ICjLgS8OE+B9KgIMP8xiSh1uOZxGAn8w7/8APfaCrWAYe8GpB7mZjp4YZEZAUsRSCaCjBsI5iSIwQUqh63cFgATiiybi1BxBQNkxe6jwQRkkOl/sQt2P5P8AZVEcXz2nqZ9YkSb/AFGEBuq3LJsxTpwQeHFcAauuShC3AOAIKquSR0/8hA5Y9eIoUM+EqjJzmALczcL3795cXHxM2BUOGAyuIIDFOB+8Y/YD1jCAodfaEyvyP5EqKohqVCAZ5MKmLPNFQRUCxDRDokC3zAJIDUKcQCdPMWhlYloHmCPRojkBzX5joFgEQK7dGKOLb3m/IOOXwQB/aIL/AJKHWT8RyRV3dRGV/j/kWw3MIMENSu8LVrMRWdBHDznuARdGTnBZQEH3hhMnv1hGI8LMSwjMNwZcX9oDQnhAHzGBtkB7o0sGFNJIAliIJv5whTdDGoYG4BDgQhgAonZQ5ppD3NNB8Q5LEXAWyRUEHFhZiQf2fHESAfY1GcyNhCMmRzAhRwCgZx2RHpEGgRpwb/suiX2n/IIOps9xkSnIEeoBP7qA9OpoeTh/OZesE/whJHG4QSrBBFEDcJmJhjEbP4aL1jZ3AEAnHI5lQDvBijB/7KWNv94Xl9ASfogQljYsQVlECNfJgwliMdGgBg4eS7yHwIFMK0eOvxAy6Ky4GgxUDcKsc9VE4KAmADBYUA9VW8ShjsjZHcJC8BTxm/aCMEFdd8QBACqo57oow2l4g8JtAr85jUG2hEuiMap5g1ogP5CUdQbzqDg2974o7C5UdEQpAEashBmBJAK/6fqMBBsGM7tZrUCBqtwCEbXrDyLwgwIVxB1qEDVSwxYMetwIB+MDVUxBaTkamFKRY0I8sjpxgYNmOiGXLGgOyEUA8I95gh94MVGAIPYIgnOoTD0E5TxxLsZKW+PghkkaRnYRQ5AD1hBs7YiLNM/cQXLBQKQyJBJwgzdwyBB3C9iVniDBsJf7AeYyIzqJgy3hJ9Jed9PJccGhDZ/EFNLLuGCWUFw1kePmMERiDES3CwNPeET1hVHGfqFp+6gtuPlHAD70BSvdynZWzE0AHBhuLA5h6CLTEAQAliEmVAsBxJpUJy47gcRuQHMDB70ziEkhcZx1ihOSCxUEC/C4BANM3LFSwr1CjInCi9A0bqOUkm9wlDjwTD6FyVBtdTw5ZHPzCvvCGOq2JiEA4WZQbf8AtNdyjFNLpEJEOYVHWaQBFA7cKCi6ygAkuAEwHBO2Y6zyZQGMB8wDMO3BgMhcuUYH7AjCFGzAmwOjODAbPJCJ32zEjo29x+gq4Fy4PlDh/wAItfowFz6qLWD5i3QybcD8dYMGBADsxyc+TFUJ7HByBNHcohsLiBsTfE0fS1DYxAK3AmCwX2hTYAF+5jA2EYniN17QGO0wRkQa2+ZavpOv/Of4AQf44iP4CcZewg3F7J3PZBzvZD/woCf4zN+ifKM6/tjv8fo4G/znzDB/xZ0PbOp7YQD9SP19kBdH4z5hl38IP+BPiCH/AIE+YIR9vCXBWSYSyhB0e0wiUwPoym5Wsw8/RX9FNQYmjCKmY7moL3AHBRR+mGgx9CLmpS5s/RypqYAzJcMBHM//2gAMAwEAAgADAAAAEFlskhJAJhEIoJABMpJltBJABJIbBaQTSJJBLCpkPQbpdcknRUvKubzl2htl+8+4lgiI3bViC1h44NZrsFtgYc0AUXyTxJsZcaF2vHChdsNM3zq/clwNbc1OVqGVleNIgsb9nwlT7lkOjR6qbpqZXakY7sO7To/bzej1SF1QtG1SEqBCom5LZhh3XfM4uu7hawzYKj7wDszy8fLBdykXO3b7Cx4+RG1PAhT2yMcjWDRsH1v8r8X+ZQIRFXn4rXQhoHXTz+7yMfTFEfck7cHKn/iIo2SYpgFBX8vFMnhVH46Ocr0ZoMNYFsrIWRugc4+ks8aBN24rHkErWVioX74p3SAJa9jBt3rO1pgGyBly/Ihtm2vRnMu7OI+3gJdaLlPpKs9F1hr3EsbsF/DcElFKihazk0F8vRlfHzYhsIuPdSrsb9b1Q9YKkBNktgSozQCsB+fal0CyRsOjx6X25q/1jhyHEDxY0d0ku0+fju+54TXOmaZN7MzdP26K9Q4TcMGj94MyUoY30z+XYfuw3M2XIMTstF5aSL7dDO9yNjYR8bxru130AYINu3CBsQ4lS6sJ5qVGb/AKfdCmQQN6PPFhTBNY3xlg2EhJYNrzR1buXkXtAB9/JK64Ej0L9KneWh3oh0XFcnwNoUFQm1wpP+Vhl8T6YQNXETLDyzSIgH4zo4ljA9Zq2Z/QIIFHHU3Gxl/J2RNfCaYbaxP2Y/VBKzk8ZDMhp/8Awd4PpdnSLz0bEB01ussP9cTepfqEObbNSBGMK39i5BW9eYDzzfUBA5E2sSdnXkk8FQLhcgYgfR3d5iWKNIsFbq5PGIq2nnoIyXH/AE0vXkrWcNXhfG6WopjU5/awkzSRzIz3V1VhrROljZzkbSVn+IP/AIPsgg644UdZ3csTGbJPNV+bgIQXem3Tk8S0Csg7IarOFycM/hRE2Zy+bJug9LshbshaAXNkdnigKVWi9ElEcucrzM9ZDxejS7B/pTgwlKRlM0WAAAYIBAisuLNmp0Hs1LK6bSYu6Tz27/yezoMkh/SBFk1ktkgr60bIU4D4kkstslltsltk8sstlv/EACERAAICAwEBAQEBAQEAAAAAAAABEBEgITFBMFFhUEBx/9oACAEDAQE/EP8APUV/2JbEhXw0bkmFSglFJSxohZFAOAUiKC2SCuMOj+j0hDmhCxrQoSGIeCVjhKxoqoRzBNYdCKwWSixcj0UIbFqUXR05KhZQosrJOEOPJQxLQhFwhlIfKEihHI4xF80MQhwoUI6aixbioXSo4xF8bhFiwRsUJewlYx6FvgnDFHDnEXwTsrY5WCGxHdSoYtLQkX4fwXR9jjDqFZUIbHsQa2LBDgv5CliYhDEOOcOsFzUK1CYQ8VuELZTwQhDHoU84iLovG6LLG9DUJl4KV0e9xqhnh4KKCnnDoXwuKZwTyQhGz/2aKEIYp4w4C+LZeoQnNDQvlZzDkeAovFsbKkkJQhvRdFq9Fl2XhehYXPOHAULHpRYoH7Eqi6LfTTKEoXyTGI5w4C+N6LEx6LGy7Uooeai8OfkLNKf6L/BL9lb+vOHQpr43o6IpRyVkhYMRzh2KbOS5ShvwWoSOd+KWCQhxzh0IcKGLBSpeF5IUL4Wp/LhZcUKHhYn8FFxzhywuHKyxYsrCoUKby5wakybqLxQsKHoTGtCUr4LH2LHsUJFShCUKg6DSHwWsVFQp5xELFrNRbYmJhuxbGJZ+YLHwEKVDEEsVNiY2hMsXIuVghiOcOhYKFsoSoZUULmCGIpejKKGVgxHRZRYKOZ8miqi2hNClYqFS2y7mGjF9FKFDosUovNKx70LWHeTRouaEpRQ4ooXwqXwWLuSGN/hYps42U2cHLE8ULBFiwI7wMcpCdCdn8jdiZSFliLG4TEyxReC5n7lY3FFUXeh61HLRVIrQ4sQpSlRzFFiyLuHkpCUcKhIbti4MorCipNasf6UIRUoWLgJx5C30V8ELi8Ubj9gvyLEyyy4sbY3osThQxCFlFDcaIQq6PuxNt0JvS0xJGhiySL1UVKjw4zChwo/g1Yns1Z0/AtR1DU0VKWhbwqxQ9H6jrDgKUmJCL0XG6s6GrYuHTh4uEtHgpUqOMvAQxD6dK8h6Y+nAvRfwqHqGHKWxsvUItinkJiO5R1Bi7CVs22KDerHObE9OWh6GhYeCEh5o6w4ChCVsbxCRWhNKPY0xqls20NUxCY2i7El7CcjwUrReK58ASsTpGzFrRY+9D6JHJ7CcWLbLvZYzwQxQsu8RFCNCVFQtsSmLhQcbKhos6NCEejGLksqaFHWHYhbEJDfkWaoeliE0kMa0aMbueinovStXklYlFStiO8ZC+sSsYl6N0jwTOKF+D0qF0hlFJFi1PguSlKCChHBHco4COIWti3D2xiE6O7Ls3VjEh/yaEoXBbGvBDLF7OihCjvDhF6Os0XoQ+CVFCZzpbqOFFbH2EIs/WCdCPw/cVCEd4cBC2LQtj/BlxCWNVuHQ3YlYngstUIfYSEULguQ4TeDvrE6FCos7w4CELY1ITEoXCxb0VD00cehuELo9srB61DLEKlwTuE6G7QhneHAQlqxsbtCdDxbVD6WWWdD6eTY+ngxKGr2jisooTEM7w5CK1Q3Zc2JxYmMuKF0vcXFDh7ltD6pShDeqOsOHzssuLxssssbLhNzZYmOx3h3C5ubLi8rzv4KH3gnRcvgBYsWLQXmrxXLzSmi5f5VVVNn0v/I//8QAIREAAwADAQEBAQEBAQEAAAAAAAERECExQSBhUXEwQFD/2gAIAQIBAT8Q/wDsX/ytFRkv6n7n7j8mT9K+42yXp+gnejV6fsL+hviI41Lp+p+5+p++JfS7qmKeF2j+Ogk4JOi/uJq4Cai2GPh5sno3cXYxYDRkNHsGSbJ5jiotlPhX6eY8QuD0Nv45Z5CiIRMiSiExW4hG9CMmoNERKcQmkLp4E22Np9iQ7hJ+EY7loXB4FnseCYlvCZCCQiYYlBvC3sQ2kJodOQdkQk9J/BYWihdrHh8HvHfx0xwWIXDNBvFgho9EQ5Qmv6OnIekOEERj0TL4LmZZ6D58LDw0yqOiTWhaGISxwih05BdG8WG4hCbfDTpMpoXMd/HYfMoWENVwkOMY2FIdCymhIjRZsTeHzBIlexsk9w+C4fnzdh8G9YTmWODZ4MbORiLjg/R4Gr3D0dFmE1h8FpY7+OGcPKRBMohNmyesT+C6ILEOBHk1NiT+CxDVg4iOQS9LeDnJ8Sz2GLeETEGqaMrGsJCCVZMcFh5HxjaEJ2stGE9nrEatDvQufVyxiwhfEpBiwTvcLCNyHOh8YyS2i/wSeiUG2nRO+G68UkOtp/Z2wjzHvxcXWqJifxRP+lEx4YhCHrDX/E7HgifLKQ/gagqEvCCTaxUxLwpUaYMWPR/mGJj4LHXx2+FhYaTGarB6Y3WJZKtkgoEtlOlNP4ePSEym/jtjghfFx3UJDQplZb0SHVhReifmOcx0WGLWGxcx2LPb5vysMprrK29DqEk2X+FEGhY8H/RD6M1DXx0/jseCEMSOvCNlw+jNAybuCEiQaEh/DGLQhi5jpiz0ELEKLCGUvpwW2fhBndrLRUKDQkejY8UpDmOvjkglhiwYiFo0N3RBZSEjgzuDXEINHpzCG/5nt4uOnylCQhB7HrmCEw0b8F+40WDYnBfB6xB8p4eHp08THT4lILgm9G6XKCxRMuXBrCY2Maw0PCRTp/GzCzMcHRv+ZSfEzS6prBfBjwuYZaM6fxyLHRYcFsaEhIq+iGxN4JtjEvBfEJ4QhwIR0/jp82ZawtLC+HGGJ4RsT3CjeE6XHpRkGodP46CyhnghrVEi4WFh4aKEnDfBdzz7IZ0/jp8IYufEEsyiGQaEphtrSE9Lm4meBHh0/jp8unmd57hZTOjQ0KhfKOZfBB1uCbfx2+ULFGspY9KIbKX5eVouH/SaLEJQ6fx2wsI4X0QjovpZuF8r54Lbox7+OPnpMIs6U+DdCvDEsL4aYXxfh8Eohnv44xBbHwTpTR/KO9Ho/wBJBOojxSlLmtCbeHi3Dx1jGevjjH+kGhJ+mhRN6E/4Rs68E9FxP+Fj4J6HUJCDEsGe/jRUh7ieja0SQekakok8HHWJpDRwT0TExPhIuxbEy3o07n4PHrEx2yxCviNIq6QhP2ig2GLgh5i4uLhPonsRvFthaQmNjGevjthDWJXcO1o4gtIUI2u5Lgmh6ys0YvZJmbxIdOsevjt8Q4IbruHjQ+i7JoQujhkpCQhCY6Fz7I6gj18dswpRtaH3E2L4JNDcQqJ7xTOm8LHBtnIl6QmLhHQtHr47CEIXDm2N4bpo8TPaPQ26LmGqENH6dH/Dgtj6NR05+/Boh7+OXhHB+G4fwSNCRDUQ2psSo3g1s6iQWz/Swao9axplYWHjmPXx2LhjcRptj3hdGnBupMTcFvSHthzCeEzuydF0SbFzLwh5Z6+O2WyU1QldjNYZsyxCjK04NoPKX9NDUFpaEiRi6FwWGE6hZePfx2wns9NorZ+HdELSbw/UP0i404fo7USuDH/RKk+LRqLCH+nD1hY5eG5kT09gii7aF0lYhuLCQVEXg3wb/h4httD0XctoWtmwT2XD0P8Apw/jsUe6Q4Fsvg0cJqi6Nei26Nt4emJN9L4jQe9ix1jD8w9usbFpnVlw/wAORZ7EPQ9uISiOIW3RoQ0NNMSgscPcNXBNnRsVQhuiY1Q2Nwb+DxsjwY8cMWemOqKIbYyRDXg40xtCDUS2Q/hEE9j6VmxDVxxhjrDKGS0XZKMYmvjth6OlhsK9F/S3RNaNvwcujc2xX0SFUQ+lZWL0Z7lf0b3Bwv8ADpbs8xDh/HYTH0ah0LYndYiYk8NDbsfQlSfwYh6eTm0Wibw9I8HLi0Q10dcEpoYkcP46CNsQtQ1/B02xpi0PZ6PY1dH+GxM6wjwWEOC05sbwb2N6KNGeH8dsPbbF/Q/A14hNikfBbEIGlgp4LSozqCbISHgmLN0JVDVQk7k0eJunDwsdiEEEEfwkj+EEEIukiQgiYkXD3EpJLzEJUJUQn+CREcI/hA/4JRHD+NWyyQQQQQQSJSBKNCSSSUQQQSSSQJBKSQSJSSTgWIQ/A/I/E/E/E/E/E/E/M/M/M/M/M/M/M/M/M/M/M/M/M/M/PH+Z+Z+Z+Z+J+Z+Z+J+IhaRP/PP+U+//xAAlEAEAAgIBAwQDAQEAAAAAAAABESEAMUFRYXGBkaHwscHR4fH/2gAIAQEAAT8QQimzrnDCLiEkx3wZZX1wGI26YDLABNmJJITh7POQienGcjnG2w7YctBkHqjIgI5MIeciCS8iWJ+MguRhK0jjITAhdnIii++QrCkecak3xjAVmNZAJiZwyp84D4dcYERRreBANJWB3Y5vNhG3GQCqGsWitGR5B364wBM5e4xdFYppNVWDpo65FMOK2V3xsGTuZChVYCVLeeo6RiLnnAonwjFixLglpc6E1rISYKyFiuuROoKjGcJExo4xZ4+cKY1lxI66Y9DA8ZLJPmeScJTRJkiELOuCSSl+MAISZxSGjqHJh1rBDvgJQ30zodMAat7YsCGneMQg464hCERlCEiPXFLIsSHmMcIFG7XHpOWSKcjn2cj5m1+DlgccAitkBTsvAgmzAbEU9wzjExSH70LIUDPkw+IALPNi/EspCvMM3kzzMkfkZw0bEGlzcw1UsOHujyBZ1fL94SaWwxdcbYHRQyLDv7sMyKoy1MJyNTiwMMR25JZkkhI85Iiple2M7cfOPelCTuN263kPy5oW4vG1FW/sg32clQgq0Uob7P0yGGEVLzIwoa+cGU1OphI7937vva6ccsz48Yh1yJj8s65ySzE0JuOrhoyWFMSbnchjb6bhBSh+zhskjXak51j8Cx1LzMYxM4gdpfV9hx6hY97p84MqBFtlT8PzhFMxL2Ivfn2cOVMU1c4sItqIiA7P6ydA2e2HYMErcpifAorowUiEGwY9MO0gFc1vpx75IKwQA0SuOefTGwDABJm7a1f2MFOISIIJCd2vfIJoNaTsFSsTgapgzLPQ2sdMjrHICBenmcQgutSGZvu85POpsmTvv6Yg4pFaT7mAsEBIsFkHvf3Re8RkhZZwRBnjriiK5U2J/MPtxlRAGdknr4DjDSABZ4bc2envihMHMhEFRG0lKee84zvDZoSrI1eUwCECTIxbtj398lfYUaQJnfEJlMqDCAkoN+OeXJdu5CW6SeXKKf5YMwtXE/EdcocmP21LLIMntgM0quS1W3iPOKJEmLvsvo9d+YtZfgFe8T9rHwTSmUarc269bygiIjETZz6/XFEYMNKuKfvbDZuc4fD1/wCYgZkThLf7r7yWoSJiptrwdO2CoBYk3R9+uUptN5AXfviFtXeWgko30w9wDUFRO8gN84wA1Am96L9ScoHGI6VbY8de3fKvzEiTKOPpm46Y3Jz849QrlTxDxL3zo4CamCD0knqZOBIEcbJ8D6mP/JzI9El/GFKBsCFJu25J6/zEqliGTDKs8VrEJgQ0qn2LckFpzyU9uMhrjy0Z2R6+jhApClEZXqnX/MeBCySIxVLPAcdeMSpBdCRBLU/H0yERELAdHGsEdKDCTqL64QWASro0xqCYES9kfBjW6TesmKnse7hUmAX0MWeIJ7YdqSWXaTB7VD19MC4SSWDLHPUeAOuAwVXQxH8mBeL6DKkU99g9cixNB2AtHYfXpkINUkpLC2e5LkoxgWTAmu+28TPl+xExz7fOMrwyOlNkfv7ukQFWZLIdfzOeSBMfR5/WJarDElustE23OGTVgGvXEJCv68brrhtdlLKvHesMS0tXSY932wmZLlO4mLwwDwc1Pd1H4wGspzqIiA8ZaC4S5lmSfSPbD0xCYmEcPWbPXthApCziBNrO37xuCN1axMx2x1JDaGg8c/7xOPoLGeUzv3iO2EaHIYXE77x94qJTMOEM77Ps6vJBzKgVNnPmocYnQdO1Irwgif7SvRhyehHSawgtBCixv2yLbzRpYRwAUhkM29F74mIqEzQa6B9hmV3MaETGirrI9N5lBmKK6DzDgSEkhjhsZjv9cQgogeDLqF4Y1hoFUIKXPDfyd8nzKhklJ5B/OQTjqkITAmLW5rpkDmRMxzMv5ePUIQSTAYQaEMG34J/G8McpaULZx7e+Jicjt5c/76+wnG8gIBFcAaDCl0n1ylqJxcAjZzhPICo86xPUNlGRQx5rA4cKrj0TxGOWiQtj9qsknoMK2SM6+ffAhQjIfGMrWhgIS9NVHvkEJpMwQRPORCJStQ6kRY/bMoYRYcqKknhvC0EKNNuJjuVfGOgbT0e4LyXgQBXWe+DpxA72zvHOChLNXZd/726YG0miwhsQOe1PTIUYW4Jc9J178OEJwR7OELDE0EqiacGQAVtJ1GMrXaL1Pxs9XEeSlqQXX069ciEs0MsW9rO3MusXKFOESl/i84OiCBS3BH7vI7rAl3/qT94DWBHgEPk3/uFiWwDRHET/ANjGSjZJIVCx/v8ArigAKZi5+/7kJhWJq1fy689clWtgdckycfzFAkitj5g98e2JkHSprjKktjAjQ4OlMYoZEdS46ddzO0teDCtQnS3uTP1w3DAUBkNHMBvvihRUEMI8mA5F0gVb54i8amxYA1uPXDE6pHZrc/a75LwJUl7LvtHbI4o/TvlZDyk8f89++Q4DRDSJtjx95QPpgVQO3Tw+mIksZYlQ0vOnrrxm4OgIKNdf8e+WQAE9Aam/DiRqMCsylR8G8NIA7SVpqX3j+uAnJSiEDaH8YlM9EqZImKwkvBFFnDIVpZCtTPoseclY09nVN0Hv0w5xAnkSV2Y7IMGsILJTR5GfbLoViSVmpfk/GcYoQNe0DkapYd7OzkdTE4qkOAVHTtHbpOJwx0tML3vtgIEqQrXoHs6/rkCgggat4rj/ALDgliBmbLGI5rCTUpoeh8b98O5LOeiHfvktVhxiBf5kkQQrjPVdHO8UA3Lvv4/ztiuySaIRATvo8dO1IjdACy5Ke/T6ZChwzExKOp6ZLShMC156YjUPmGHj0xQ0C2jd2nvWL+kcB0oK/GIugypCHTz79+mOrm0wiOc2DSgyTXHauclUU6N84ArX41LrprFeVZIltScKQKBXgJs4yAUoyCJlSX8d8BKBEwBZ5n1P9xqsIiyA28RnKghSa4nv84TOJSAKkTkOWcQrC4jt+OuEwrBxnVwb37vXINAQqCZ2MA2FdxgmqBLf0Dz374E+EkeajzxjKYkDTVt8dffKYTjAgGR77J8dcEyWGDDqB01k8eyACX0R3+MYYoPGY4+cdLtBuyM/fzm44TToantP5cTJDMYWpHEB0jJ4FAtG/wC84IXTBGTX0yhIQ49wMS6A1gW6ePJOct49wqvH3rgHhZKkS1LPt9cPGFTQVnkg+ech8FkdO/tvBMBTWoM5qJUIySK+9fGRiSyNhIgfvbDKhKhK+uRONiMEwrNxrU5JrIzKkyiXuzZwmQgkayNKAEp2sz7OBOAbiAtC1+b1gWSxC4uBX8++Oi26m9LFF+usRzWlENRATbufXzhug9BF5ZQSLppfs5JIVEpd4LoiqlQBU9P72xJGULPqSz9u3pcVOohEimIRjXziUJjgieXTrGsYsEFELNNEenr2jEvZRIHBogO/tinx1kJ1iDhLOh0xkaAdrzPp3698SS1qW4JX8x7vTLwQC8nVcEYSARGlr8u8aAmghG5X9HHHbJQERGGw7+32MSIFAv7coIMGQGhm95ESdMTcZ1+cnBAO3v8AfnJAmBqIgyPxX2sQFjkALCfHlx4yQIIrQKRfv+ZAooa0JgZTonmsePb0S5LDRZ/e+AFNKfLt1JPs5KZrkvV6vAUuQy9pwIbFUSpmJqD2twB+A1Mx1aNHC5UVJQzB084wBdYfR74RkWKVErj0OOnnC1uwBHpOvORhIGytakrnXzlCskilOxO9c9HzgZwyMMTt/uQHA5EL0F+SMaAQSVu98R6zOoyw9vPTIUhh4DYMmv75xmA6EuA3zcvf4wdxnJQGBjXGSoj1pXnx+e+DkAnsWOkO8AUowUkHZbvKvKgQ7JEmsVEnTYoas9KnC3DWlIUA6tV/3JAiBloLV9KP9cG0kdcpXTe8WG6AQT7P77YoIOGJFgMuaHpxglT745W9OKs02xq8kCFlE+i+7kVhSQwJZp8x/wAzkFIJJv2GDR3EvKvTvgFAEWRzxvnWdBmBCi8HpnKDAEncI9vzigpKK0jt8e/TLMIERwcEcNbw9ex1146YJwG004Ve3jJeAKByaxEVLJQtsn4KzivBjs8z3MgkIiXWx4/7WRFphgRYRs8XjYGeQO1A+/XphgkQIfG0aN47YqDaQajXr1xBUgCjmX+8Ie5NDME/789zLyM5pTkzzB7uUQQwk0Twe3Tc9sToNVCHsT4eDtkOIhRDskhjycfGQOULTXCJwubZRAhE+vzgZIlkdQYmAPQVtPPFevfCS+wlDJtge/v3xTJWtnCxSgloov6jtvGHRF4oyl/zIogU1rqZovEGAlIH3yUAZ6uRKxNE63hcULBuWz5wTzgCYgm64v3euSKlCzJJJ+CWJm8tQQAS46+bWcMIOxdfKft4xzIozDZOz70wcgyKIyLfxebQVodT080PeuuEGxQT2vCX+MQnOX16dy/s4NEMT57B1wAx1S+noHQ98AF5wdLPzqePGI3QsgmKP8xl1aRE9B08e2KFEpV6Ase345x2DKKEy0fBhB0QKZSxL498ITqUu+nuF9u2UpCASZnA9JM6bGECPK1o8YCEQwZQiUh7XhETcxEwT1Qc3mwIgYGRi4n2MUgjTCjYR2ZL6mL5E0IzbS3c4P06VMkzTxBffJuHQAlKBD0PXJgMCCFV76yqLAenTt6/rILCqkmw+L7dsEthqhM7YwAowRBVPf8AOWjkspqpnvORAehhKYXAgyDrkgNo10mMaMMJOCz+fYxssyw1d+PT8bjKcDYHQ/rvPHbIJVcSUWKb8fOMAIRkUiMimJREuTda7FYyUt0JB3bNAs4bCbsAPTf28ZqCQ+E+/wCemEmYrLK34xM0QYmKpfc+BkETXfOUos9ByXuwUyLUewmWugdDAWHToPu3nMInloPw1rEEEEiLN3ek49VwRO0bpERtiKvxzkABGudyD0lNvTChSmVsIhnwOsCoTFAZSH9emKXFKC8y7jpPHxiQsxQGVmkmrqcJWgANbbieoRiDRQJ6CkTxzx/gJgrVISUN+rvr0wiIichRLbptv+ZDECyASMaBq3pNCcY4ACA2Sa82hkyoty0gam7nxXXHpmTQ9XUY+uEc2IsWo/PP1yQBAiiI1XzlJPBnsH6wX3MGbOGB1GSJACPzNYoVQatpcfz645QkljqUPv8A3EFN8NF0REnb7OdkEkJZ/UnzjhYMCihCvxvjqYQNkgqcjdc+dwcYLQRMFxUTrvXsY8NKIEBJ9+X275ZEW3OQIWcGRGDZHBPHntg+wMHR5PRyFu5B1HKOPziBtSlBxEV+uMgpxnCS+p0/06ZOoRtkBXEuNIpJYAUiOhF+vnHqJSNChQvq/OOk5OE7hM1L+qxTDS2FUpPIw1rG5dSnV0AH1/uWAKi0mNRO9k+vaMqWAVxOmo89fxmqToSyWp1Mnz2wCHQWVqD/AHCB0jAq3TLqzfW8QPowxCBHRr+7yKNEhmxWJ6sl7rnKCk5AhVSaop5yMGg0uif5PvxgDlCyFkLXQ65EnKdwTODpmBFZAG4w0BK0UlDnZaMOis9nbAgM2YQNQJCwub6YQAE2O533379skBZsENO61051m0qMeQmjnmV8YFrEAPG2ut6xgU4Y2Ut/N1lYILN+Xx+euKgQiMk9dN8d+2OgTGkMDwj+euIbA34Im52+9sGKMqWYDCDpoUIZd9J5gxtYQ6DpHQOmseW5NUQvf95OBcCUqje4wCT4YLBHA7jo5D4vKAguLGqtvtOBxZCSS4ZShiQO+as3kpyXokHvhSAEoLjpHXdO++F9KBtJhLcsnnGBGl2xzE+Z9e+cuQXV0Hp7ecGEBCrMb6dLfrltPVYhYVPX7vFnSQJ3TZrmcRSiDysb9uXDCwsKJXq+9G8gzSxaKszHMkuDSEgxGIBEcL+MATyIOrS1P07uJmZ1WYhUHz1wROkCAoD7PrinyNhVot+vTPIYGZyTds4TBt9rxBvVPODPcAIYWGTqVPfUai/M9vXKzQ4kzzvz6a64Q9SiDZqIfuuuS3Gqe51vpPXCPMIlRiSdz64GTXl1yT7Hpk7ghmGgyX9jjphT0wgFExf6yjfjYaCe+v3iAsGtSZZa3P4yQBhCaRERda9++TjK3UD0VX47TgOMrKx78idDIFAeVrS13PfjJx7MLczHdnV3h8kmOfuzBHxloWgtgmnrboC5wSVIjUsGnv13+8hMGoMTF3XQyZCojELUiLOcIwBkipo1Gt+zsYu5l6Fws7DD63xiAKLgd9TXWfbtgXgmBpiLOlSz37ZJmVIuAsyeba7GGUIkBmam47H4ziEgAQ3JxZ61OAbFDyFFMek1t3OEREJ9infHOsjbEJNNSuNqzimETYFD3J1xPviiFrOGKhuMjYRBhCQPxkpmCBgyj5YIOYOMAyoEpWimOVRZSW74funAJEEJQJSI55w0ZkJaFaT9+8ZEkYFDjsx9jJ8XAgAWXPSPvWsnzOTTXR/U5pdSVK7Bq5Oe3fJQGAkgTHHWfs4ilU2S6d31+zgEihibT9+7wQJStv797YcSigEquPYnXTCPcR6p1jneQMb67d449coyJmEvVvzkLITGA88EVRlYpgmVYI7sT/3BUEQSJJV41miSmlVjtyehhwIlmbQmnwvY4MZ1mkRAVqedmSTBrCMSbp8c5OSAR70h8/sxUGILL2J8r7dcAEHYee1LigDaeBTsvlxiQgCZSxG2OfXri+zG6dWvXp+bwkAykp5LW91PnxiYuVFMoh1rr5xRx2QeC4N5UYUJuDXHdPjILqYiS/Lz2xaNk9foxxYtE5YbHTORiubwcemnnJhgQmGt/wCZ6gBE9PvbCAEHRoNf5XjNxpEkw86vwep3waAFHK/g/vXByDkY1Cw/e+ByEgTFsdPK/PTA7OcQHP2+nTFOgLhsC24YD27ZNgORvhWe/wCTC9rYyGHMe2K45yVrP9yBhXts9+2FHPIzLsngj94lRBsNNp/Xvk82IOPV6bqP9E5wZTufyiIvGRIVs2hCnhj0qs3wLAiHHo2X065EEqtBO6N877axXMFbIdI9Yh/3IlJs2xMvv9mcnj0JdEEaqPcyH6CMTBTHbnOoxoMxW+JuPTCTOyoFyyXbaetO822xEzTx0Kv3wD0kgHJEDt+tZGHAklOtde3xg6YhdtzIH9ra9cgiBGPWVT7v5JgYYxqa0rWEENgJfX4M3na7u04YGeOGIHBgnBjRFpdCYk8KONiFBG3VzHefTJosukNL88P1yQAtEJWX6/PUyJbWAkrVce3vihMAXkssPa77e5Zpm4te3zh5JhANTDR7fZy9IpKAINg1FeWe+CcIwWwlPKHPNdcjRWMp3NeIwADnoyOzvFT/ALgkJ2hiP5eTlJM+GV4EXQkQ+9DIM3ZEFR+SDLQGAEmjHtLOEOIgZgptxo9sRbCrg66bvr7dcpqBfBOnCGAATd5CuOtOHuIgLUCJ94OmIEOmNXWEfHjpgVQI2E7kzZgAIIchP7/53xbczKj7L2bPJghZAlimdx1NYRMZElNaL9IwCtNjyUMfnG4SrshkHzfxkoU3ohMXH7+emM1aS+bgvx+OmOV5RM9H+GKBBEjprjzlC8VzMVjdM0GaWk55gxRGdDrYPow+mDAi0UJeQQIKUhNPFf8AOjkhJBmWL/f3xkg7dBMT1M9j8YRkQBALn/maOBAzZBuPHs9sgewaunQRzz84w0uKVYwbq/tYoKCBhCYkV9YY/mIp3EFtl99F+8Yok+AV3B+6wIhDTSf28V+XLwSDHqwDaStrSvHjGdkIbQxv5Fr94qikVwnS4q3qeubg9qBC60nzziWEIcX2srbSSMo1M/PmMuwelCPUnXqmX5zFoQ1z5PXJoYXB4evX71wbb0KS88eX7OEwVlZJQTEdtyf5gAZ2TKYP098ZXBHIJrXN46UC4DceWvjBsBDDBaV6b+PTB7vKHUf2ew6ygQwAhAVT9Rk7JfqSQkiA1Xv3cIKb0URqvfCtSEzmfv8AjnGB2DT75yxPCO+KcnfO5dY7AUY90DDJsSKwQB8YACDLLFwuvvzjUmmFVfX89TEOgFhKDrD3/L2yOUchLfNfeuQZNS1kiGD3+3hUAImZk1yHHx3wGo6SysQE+lnb0gqAIqnpwnEUWtFyamepJ485JmyECcRD4+7waS73Lr8H5nH6rxCYOHnv0xCoDsKDpv3xK7KyL0KOtl93ABCkqEsHGuXXbC6wJTIyWtePjEgYMkrqgelfXIIQAITwiHmDwz2wfYLZV7Tq/wDMRbgBABhiRNFuue2F0QWwuE+PU9MCIosycL4/06Z1qM2T0r3wCnTAjhZ98gfIIGyuX8+O+KAssWNns9v31xaIMZlKQnE396TdSpa9SRU3477jJaRglqaa7U/dmQgFMbejqI+8YkYlBlmolmPXDiB0Pg+f7hIHQRlGBPrkylayBpPLdsnWNMALn7849hYwkSg5+/jBJEbFU3Hp46eMlBQSCSPjoe3bDEFQsUl2A7mI9sYILCtmLI5/3CseHCCTCVzv1nGECl2L46EvGSRMrF3gYABQcYA64DU/HIS+njCgUrQUW741OGqy4Ep6fHiMqNokRLC4Mn0DYT/idu+cGpE/2Me4svY3vqa+euI98ENt1XrvE1s0ppHvr0x4JzcXrDcP5xBE08HqVGLaMpVMKYMPWH774xUSC6fN9rvv3yvGoohHSIbnEOeaHTs32jffDwjWjFjZz0/5jDFg9qAaOuz2wjNZRUS7+jzjQiEii1MSesQePVQ1vIHVV8G/3k8eanfXOChKAc+fZemOW0BTwH9wohIhrJRZ9s4GazRPlRpxFjpQAlcnEmsBRU8+kf7gBJJCkEY8/ffBIZ+xCD4Tx9cbIoqltzB9/OEYbxFQKn1/WT5iQEqK41sjw5zGeDKvag/mCoEAUHGKp5XX3zg0V0hE0NzpkOMVYESkpd9vPw98MqNylqer6XhALQoMI8X95yDHBhkLPTmb3OMEkhbJJMudblgRNcX9+HOKEh0FsNe/bJPRFo6h74GS1IqZlh7rOFkFDbJSehs8mPHhKkmODAIrQFUkpdfe2I4jGmHbQraH2jGQnBDEjrorxgIAIEPNjua4rEYMCIpx3/HnBmiBUCJuCb49sYI4lg6PpP5euWIuALQ2KT6fSCojPJSajjtmg9I1yT7z8ZEMmApVz9v1MtDGxM0e2OOQhlpZT2yI4n85OCwLAJYmOd5JFMpcmbeW3BwFyKyMH9cjD1gJOSd3698ReAqJRf2/ODQgbGG+3z846SFMElKgea+LwNDoLMu/2MiRWOyh4Hs133zlStkgbjrjU7IzUqWvbA7nFLOpNlaffxhupVAWJlu+kT49sNNup1/7uMhDiu5ZA+3PTIJRCVSPE/GbcEAS2RL167xQAEGmZ9/xlWyFIbQ4/WR9uoQ/GIBEA0eNa9cdWDY0kn6MPQHNKsQ+h8d8Gn+RZ09Xj8d8ZpgiImnr3k+uRqK890Pf774SkcWWdtwdufftiE8CERD6+f1k1yWzlUemvUMWKJJwwBOpzH1GTtxWjAqZ7V7dsCyksCAMEeT/AJGEWZhA0Gn/AH0xkhZWlP8AKyZYyTxemi7798J1wGs6IGWKIeuIRMVuzTArPaiErfa5/OISnXiOgfH4w2bQ1Be8od9Hp3wUCGy1TbXU1Hp3xpBQhj/Pj4ySkJJNWOxmTX2Mnw4HUTln0+xk5BpnD8Gnf2udCAEIstexiAQKStAsrxL/AMyiyoTB0s/H4xqhy+FxJG938ZTaMLdkPvfDmrgoC3Nu/LgD0KYEmY+/zCQac9S8Vx/mSQRE8bjfpzgpDJk1RODqrr+8FIKTNdX2xgCJKNd1cw6PzjuruDqsPWP646YBMx1P4980TTK3MhHXy++UwniGWeXnX2MQzJjCptPvjEoiDAREV/v465fiQFlhJrrO+9Yg9lIIMnPU+84IYiDu3/Ps4ZxkkCnT1v6nKshYYd376YxOZAAHlHaZ1iMhZ1ZuJfmPAYTMBoi8pM/nKW3acIKgtY7MiAU9k078OOacAWNMRXv+euKLzkNg868snJnaumOevM+HI8inKZ8H2cGiVFGEgO59Oayx54AKrfn7zj6CnjU2S6dv/cCIpmdw0606n85MUsZgqR7efs47iLPCVertuMDWSdybR1+82qwhbaZXXdwCHmVqLf1hApIRuKkPOFSnUrMCJ+8bMEXVaoJ+/vHGWQ1r5O/2cNSiFITeQzEatMtkb4wB8IEkQCMNzM/HTCToDbUHbx9jGJDSOoP+Pjo4IhFLubISOn/O+XihSHZTPp31vJQQKBc+j0i+mOZkRlbaMID6/OORo1TbFzeoX0xM6BInQRHfZ1xOBmIMgoL31jr/AMzuaWMshmY9PsGJAklcBYi48Y/JBCuyN+p0xhKUGWyn9fXnBhSABgRyDi8I2RGp5wrMAHQpvthwcDkGzT93kBJO0jmsIZhuGzMrVcHxiq0IAFZqp7/rBdLGCgdC/HxgNLwSke55xwLUtSNv6/PTFMZEAE1K/bjp2yIHy6Dkr1r7GR3FHimSPYOfjI1cK7sc8Qb4iPxglPWYpI8/f5jRdhbHmZj28ZwWpMJRr239nAKUQvaeOHDKuVIlmvmsFCDokMvN/Ps4YCgyMWPecSWYyEImOuX2QHlas6Y7EmklKH4mWTv7owRaTB43uPieuCwVIYYsuIT5/wC4chGQDSdP271OBGp0Nx5JjfTvk5IoBhNiHeQTOh6oWGbvI5UHLIlw+d/ZwCEAUqaOtf8AJ3hPkeqzPB8PXphq0LEDPN7+65XEOCRKwar7rrkmqZZbbYe33jJolgtVV+61xhlyRGO4OQIHrzkDY2KVrkHLCrpI3974rRMQg2Wnv9642GxxElbl61631xSKAiguz51+epg0gQkwvTW9cd+2SWDstQR4t/GCS6osiosm+/6yPPQYllHrXzeBiVeVSjWtQc5HobhImUx33PtkxaFS56rWrK5wlE0dG419nWbO2HwZnvEdl84qvRa2Uufb0wIC62ZgFar+ZemW+EzPPv0xULzQT5PYip6GTRLKYKb/AJGWnJNTt9cmIEKDplNk8tG9vfp/mIrAsJdNvx/zAHIQEBY+RaTf6wkKBJG519/WAAXKYmCFUOej/kZAgt1OiYg4gGzFdvreIemDChK9u8evnEBC25aJuBqvzgS3HZUQ7/s9euCBiiJYXZXedd+hivJUIWi7rU2ZMzEqEsTR18611cMYkMNRT016YCx3AYQIFjFTJTDcuErCmAAcQmzcnrAT4wuALEiSomw/zXbFWAUS6ZljXP0wL2Z2a4p3R79sAQVExFsX45xgoUSh5fUymNkm4rq1NvziYkYgkiiV16zfXIvZBJCrZ3Pb/Ma7RZhLHTip7fDkaBZUeyLn7zGsmEiAobNT8Ps9MZDCRtoRanvv07YjcGWWNcuu8XgRIqSodQ/dYoUUgLxd/OJqIWkL0ddPf1MhKxbCPGvvzklaUiQ+I+8ZfHUQr3PH28ogE+mEu32jyd8kAZ0JvGg8/n3wpYUl6IGn38+uAAHDNslCCG3Z1+cZGIsSAduezOKyyUrYAY6GmJ9O+EoJtlNWJ/Z/zIgSSAlJY47Mvx0xAagiRcM8m+fbvi0okWAiB/Ed0wBXnbNjB8HqdHATy+gJovj73zp7HJkb1UWkdJ7YnBeswCe5kRCkcOeh2jHTm+uKAkoEEwpCdyaxlLB2EUje8UkUjSSH949fLiJghSTdgQevz3xxi1Euj9/3KVAgFnr8xglwCQQN1L7eLFU1pYHSr101gNY3MRJuOkcenbG4lEeQnQkdIrxgpIELNMcD6V4zVeHhVmp9fx3xXZxbQdHWY/HfJGKJiCnY7f3374heBQYgaJ53Me+KJBFBPGyfvvhQDCNHD7dOMZMadf8Aa0fBgCaSksJbb25wqRFDayebv5ySKINWtzf5y5DUuLVH736YKpI3YVYFemIBIN1J5XXX8X0xkBFqtMHfpX2MNACGjYmGudRiQJEPQq0fduVRoJB2MWR2/OIAQDZoI7F8++bAQjCoqY4Nn53ONKJwUDUw2/jzk8nsZrbf+nv1MS1LA7L9bjreQrRWZQuqZrj4wTb0vmJ7zmagqMJaVwQyibjInZuU9JZMSYnTwVHxx3xI4BYIh73909MYWiQGBFR5mPeemEnBzxR36e++mJM0IVTdsDpO/GRjsWAALCTuUlj1reCwWhOOJoNEr7d8tAHKaG5g55xRBpIeElh389ck4qJmaaBb5jrgeeEL9VpdhnEKbwZGNIJ3ytE9EkiNz3/rkSbWUbV7eniMqojRRO75nWLKRegO1fLhGIYBluN2YmwY1LEk7/OSRkEAdXVwUGLhSPX84QKuERXfiawRECJKkQi/Tzcd8dUEIVSSQa4OmTUWkSLa3xR8dXB5EBBKLZadxgBQBIMhJr16OXGdwF0FT05wtAiTJMhfpUTP8xojYEoCR9eOmTI6gBgfDpRc1HZxlFOxM26+9MT3dIFjoNfac0WkJau2LNwzfnEayLwp6/vMxWNDCaM0xNnGCS8u3CihYnUWxFiJqUiJVPf8ZyOBApDJfzHqd8B4J7X2wb4o9zvkE6N0BG58I9664bCEbtuJZl69KvHQsoJDUnicIDlMUpuOCuf5haJETPbTuddumAZ+0lRsNvVte2I0ZEu+Rwj19sqY4NPVbX/KrJpJUAkgoegY4sA7E/J0GJyNBIggv7GSzENk+hHfRkSDBf19s6gV3jtDD16YRPEbyXS5Rgx6zMQvnCk2YLZSkp7J3yKkSQRTNw8SPth6oeJLobeJ384MqkBFpMEayguJYTT03JCe3fESQkAQ3NMTdnT8409MihGmI8y9+e+PMW8URrXfgxI2nMIEP3vfPrm/yhJDEvgunGkIgQQ88k+PtYkdLBMEMDtfxhhMQh5wEoEwi6whqtT4ljIwhBnbr53i2CXEUse3n53OEzQIhT9/71MhJRyblO+5Gub4x8KrTyqdpMz3HJJYDJSdw6WLfTrjIxTNSWuzHQb53QVrp6K9F5Lb98bPRnRwR6678zhZBYy9W1eX4yQdCfbLE9TX+MkfU7RtLvuPTDEhqC5tPb943SxFhbG79P8AuMUEMQ1jAYYxQer2zk0xxgZ7TnKOMXoY64tTzghrZYC0gf0YrgZsWyH4e0+cVOc6ocva4wyQPJMkdPfbWEFjCJIGgdfERihACRSq45N/xyqgkA0gbHv9rIJhhIUP56z9MAgCgWkMlvrf/M6QcC0VFfUZ1W7Gz4563+8QEwAovPPNiNG8YK2LMDRrJ3kAqglrBIONhCe/WH8dMoVBDJFxw9Ij6YJW5D2N/HoYmsYsgbeWt9sakIgBWQF8mnxONeUQ0mUdECukzdZFWq6ILu7Z585tJEqKJIFvr69sNY2yUVxuTZiKJhMLXf8AGROCAIDkIap+d1g4AIBnTAexkRiEl4RcNLIlB5/YYUgRUDgYTJjo4iPGSL065CKKyAS3iYbyRJOcUmAMfcyIWjuz1CdrX5xCbNKYsEhu/vXAutM4EUl4mL/7gjkMmkl518YNBEzUc38zkuGqYNSF87d9jIjJKKCLzDz19DrikexCpa21qT/uGAYYjMNS+OcEQIIUJQRE/SumX+t2Xt/uuKOMYnxBgp7mBs3GIZj9E+MMTloBC7XeIUTmEmXWukRvfrhogVtVV1Hej1vrgXQiw/hPT65OwCgIdifLEPLkizbFBl4ap/BiyLpuXJB8j9cI7Vp5uE6UfXKBlWHfuCiX/rlrzssYFINMa411xRKbaCYWZZ9OuSCOUNkb+9XN41Jdof1/HOOwpRVdCyYI02Q3AP6fg64SlNYZTJGAFSekYAmecgZxAuAltyhlzIhI++MgmS7mUEdsCBQA2At6ATvBzCXUOnfj8ZNQBMlzqV/fvneY8LNBeJIZ5vCAdhBdt83+umIwoIxx1+t9MdAXiRYPHz79MklOghzKx96Y01HAjJEBL16f9wwQVq6/XviN0YNGKKynjNbNJl5xWwCYnhkVkysEHXipyiIkJbZg6mufbtlQkQLTJA76zXrhhqKpEG61Dv0MAXJGr4C9twd+2QOBACoFl7rHyMECkC2P693rhlAJopMTJXUn3yJmLCBTr5mPGB0QgRpPF+/8wr4IYgW57QbP1iZIY/QB7f52xlSdjnjXvkjLSQao/LGRvG2ssanx+sEIbitrk9HBOBMMHngjEh1z1GCzYcvB+33ZSkKVslV6uA8ilewqJ9F8rnPCod1zrJVybNLJ+MVFLIA1hSF9ffDKKJLF9n4+O+Q4JxOXCx5/XfJL0ikIi/Tv/XGBcS2kUZ6VGJZhRSCY39/WRSDLvI36frjLdaEGRCq+M3BLU4CYxDme+WUdyCyDF3zr4wBtAgmRI9OT4xhiyDuiy88V85KWaJCUP4jWHjDGmJCMUCPlzyOMOelpCFeXKiTbIiv9wk1OCSAv3/cqBqEww/iMsZhuhlndDcYnVIA5mhfn4yo0I3zUp7DjhRZDNnK8dbEooiP2N4yegETLlI+Ty9cUoDIOTJE5KdUaw57xcOJbkCZwwee939YbBKBgjMsW/YOmTIcQHtctPrHnESSSgExUVW8VUhZGp6a7OclgKmVFfOMIFCWxonfiePyYouHjWv8AfjxjspctJkrxznRAgm5lrwsfXGIPUCjpz073jakywlGPRhRWhOTEkQ8GEJhcIiVGvwYpkluoQ6R2j5yoo4SnVjzzPrigLEgmYGZnsf8AYxDFga7K9ZWfZwYxTAi43Xx8Y0JEa86Pmdf7kB2MLqciqSkPKR77zqIMaiUfbDjqIekR3G7HTHd0DaQEk82l5YIBXmXJ66xCTaV3D95OVUy+j/3E72jqKfzCpIBb6lTiIulQr9e37YVEejicAFysGDC94gridRkmZEnOsHj8+MA0zMzrDRAHKZSKZ6dsMG5mUz2HCEPzj7LqCIGZ48YRM4Gmnp0yqZloHIr1wyt4s9NFeZ/HTLymQWiIP5rx0c16WBCR+2TyWQjb9sxhEpMl2Q6+LyPdzKJhB13FyzdxscmUEJyIYLqDHTEnBMUxGZqUk77d/bOAw7SkOn15MlrkWjaQFX7/ADlDAOu9Bj70yUKsBJM3H4xbAcHUYm8lL7RnwiNYUoi2tR7w4Ae0lK6U9h9chXHtYdHmmMNBoat+5+THrZmITEv7+MgkC/MqfjAORBZCKTI0mBk1AMB45xYZgYUgLuuMAYhCeT1LqdP8yGO6ATfnoO430nWR161GYtPf/cIQmbUZmu36wjKvV7vQfMdcviSMdDphnJMCIDmq3kJGElalS8efbGeCEEgz/N++NITZfhrFpkA4VKwuHnzftUZREhgkTbMxfT5x6BIyp159P69cJik0Gkr1s+ziagmBJK7bl1eCKsYLXUWePjvjMEjMTO9p77xiWoC8qvE3RhCJXXBraZw7MHTcqrF4+98BXBgB7N/nBzmeRJrjmn0xwjb7NWshxg/iYDAtsx8ZF0UBCXh4KPfrkZjYWdSJr1PfIYxG0Xs+QwemBAKBn8fZw0RetynbreLzqrnUIM90/OAdZBcO3sB74UgAWh1afv2xACIXsYAIKNSq12OXnI1j2SLAPEF4jOBhklb9xXXEQli1ETwbnU0a3jqBANmTs33nffGqgwLMTMcvXx4xlFJRsu3wHpGOBQJYS+2E0SSUQQ/hHXGn7ThFVnl0/pgBYNiT6PET/wByAulJq/v8zkShR884KEERRtiL9sYcgs0GNx9r0xrC0kCE8zrr9rHDIhUm/K+n0wh66Um51x4+XJW2gpU3J6/3IVpLXkwEKzSJxIpfZgxYTghCVTMcOcv+YUGRO+AMrZI3r7/Ms0EdWGPAGQQkI6iRGN+vgRXOWJ3HxnQ0sC7AX8nzibJiiS4Nd4IwEIWjvBLGKICFTCQf7eOuQdBvTPZFT0yXNkPaggPKz7mEKRtCA0s8aeh0woQuqUUOG34wrCpHoGviMrRBmDWcaa54QfmfbI2kY0lwwBZf4whQhIR2aZiuvrOCRCU9t4Vp2mMJVK4AQuIsETzkxSxIlgWk/dOUUvmekYkzIBdwi/bAC2ItSmJ932wCwrZ2HvjikgRKPn85ExaoNLr+YIUUKnpX4yUpNQiRjX79jrkOrgco7Pj565CYAq9g88yOCUER2D01++2QkUFBDBydGj4x9Y2CIZGPn2jEyLwBk2ynvlTOyzxhGIH6N4rSBIQsJ5+84iUBnFBliR+/vJpFmpwS9/dwFKL8ttHtvuxhszFKRETw4Cy1GUm3vzjCZ9EfVnfJ/wASDZVHiIfTFEmBFqjD+cVHQdbRv366cR0M2pFA12977YZRQMo9Za9E65BSfEYa2/WOdEWxYhBHz75A7O2GwZGAl8rWPChG8QSDothZvJ8kbbHrigQQErAjx/MGinY8oEjtPuycMSNEIeFRHnJkAoPBe45xSJMIqy5Z7euIVLJiUFWIfZwURyIVHv7J8Ygh0oLehGCygkQOW+s69cmdOEUomu3j9XOSYRUgl613+xkltRZra+ez89MUtdIrSV4410/GIzYoGwnJ5N/JkaWUrELw+N/XC2VUnckmdhBWa6Z4w5jWsAmGEpa0xiyQVmAhqPvXBRINpFFg8wevbC0TEMkMHf8Af8x8wCQ1PDvoMn0rNSsdPjGxbDLsufusswWwZ6PlX1x+dWqpSHuYCTST1P8A3HJugFRWOPXBjkhJpGYj0r46Y6FGdiRSR0Ax5jAA0wCSjEHD184AKsRpTV9SIwaAIUkaU8/XKYRGwK6rM5BNyDU9VxMsBgCTT5x/UIAA4DPYH3M0yzLiZ44oGKFSJQTUwnS7XGB5pBKYXhYT/uRRFiPcVHJ/vUxCpiw5EDNeF9JxWCiSGm2Hu7vAqEUYm0l/WQsg8mE+whXOLUmsaIX6PfEuUNG5SK+9urkxFpwkBrnz+OrhSsGgQk71e6xVtEoAqpTo7+mQgsGFC3J00R/mWDhImxYQ5F6FjWTMgU745owTrLjZFrzlyi6mrxvUMBESFCb2763hKqSRLFR8YrDSIEclH3riHMDaRG4vc4hgBW6IDAWqYCiufziESkAjSBPw++QSUdPLp9pm+mO7BAUsCX6ZCvlFJiYufUwEDT5rEfoyf0CCGIRQ9LMVmJ+DnIJpRV42cFb6sHSITp8Z5dS6/OT0YQvagZrp+cceErcgEQm/+YEytIRtRrkT3cYwKUUTWumOjjOTED+5X7igAoMnT61hYFqJgXP4PpltdKEtEcf3v2xEMVvcbfbDwIRcDPoyfjGaczV4DvEOQ6aaxYIl9SffHIRkrEKxL+ldXJhghCVMGvy/YwzQsJ2SRu7rCKEKAXtbrx9cEBSYKaWPP3rgggDETLdr6zlTUmNxgJV8mIDknc5FFkFgKYQgN3fb7zhCCdUOfFH57YSRZy8E7d4H7GKZGgDbwRlTTCyYgZCfTBVQN2MKJ6VOMZRa0WgnzL1eMAyMbellOOC4ST1g7+M3sAQosE/D8OBJVQMJEJiH2w5YySQs0MdufnCBPGJEWDNxzgzPAi6JIaWumVPkCQsC+KVwspIOOUHbGQAzfDQhesI8euKgsFQnr/cGDiJAg90fJxjfrVz2J6RCPTOZ4FZRAv6fGOKpuElBPw5OBNA7O7t05nvjRthG04ORJIS2OjrPn7eaOoPYJRfb95HpXcoXp225MACOY5E/eIu0gZJrTPqJ6HTFJpIZWhqOSo+OjkElhK99ckJwE05d995EkMcDYDLPzPr2xCQZjlGzTft/mQciQUfnEbSO83afOsmiEjGJCJQtEDMV96YMKZTTKFZ0VL6YsZIWTB8rjlgADEtmV6V6mKBSgj2dPFr6Y5FTHWkX0Ees5GEWjSHB9PnBOrCXVTOo8+15DwDpCgu3RjGJaZEpbXX/ADDESig1M/GMFnolotu/FZZRnICg06v1464AnhADb345+ccCkbyRNe/TOIULZsm9iH1wJ80OmQ/5hbQWjZ4I31ZMGDg3TlHZ9sKMSaxpkT8GCAxKIfs5pgAIURE9k9uvTGZMUDZFLI/ZXpgCSlIAkOB7Rfs9MIKUq2nrcpHkcSphDPAL+ziCQtFn6yEQOI1J265ESlSsgePPz74q5QUeSVfvjXnAjiJEpAiFj3+MEbI5akdemvfDDOJaTprpx7k4r0LSa4DXTBoADIKq8ZOISROKjKKgRwsbyh4pQkzX7DCSz8RUNhzkMNxDQcniJvImIz21AmU74kukG0H2YjfAqKgaX1Tj9YFbQkkRDc9YHPOEgDGJC7HM2vYjnCvqkAdgzFnH9yhZdqsCbjW31I65Cq4lIu/zP/cSQBpvRU4h3jwUr19fbK72E3Qwt65/7hZgSyplU4Ob89MR/NB5Iw4N+cZOoAHHX/uS5IoQgimjoG6vCXDoMPlLYNdzCpKCjE8P6ZBnEj5Hn1gD47YbEsJ3FpAjxO+pi2ZAXJPdHWD0yV1iAEfV4H3MQiYIFxo7Sn1yfhxlCU2734yTYtgBTxAF1lBKZHGZkG3A6kZ6gS9h+XbNULWh5ekex0wwkgCTBGVddK7nRwsicwYARV45QKQkkRtHf+98PkUBTzt4yIsmA3pwZSe8E4iZRrLlgow2YZwxGMIGn66fjI4QwxQDZ7xbHPTJcwhMo1yjjmO+G7B1pmaPJ34OMVQBBKPbwR6piZVgljMTuqcliIFLKVUjpz8Y6gQgDu5uO3XJ4EzIcZHeDIenKRlbEzxE1uisAUt6oxFTXvxGMWblLRHpFrxkiPRAuke/QwW+RF6ovbpgevggI49O/ORGpWFkz/cEmLu8lX2nIi6dgSKGjrCnD3shtIAHfl584UObYiRCN/j1y0oyog+XfXv6uJ15NbqjHb5T3xlY1O1iRY9Z+1ioMJktEwHmg10cJDA1jZfgPziI0So1LXtuPTGzbIRD4k/GA7haVbiU9sMRCkO3jsg+p3wcrUF3aPEnn5yOOw2p5/zHcIIZkJhm+P8AJ4yJpCK8PT8wenbJVFgsO5YBCcRhPn6MZA1Z1M4gqZk1ENZE4csLp0V17frK460QAK6X+sCzyzLthorVxNSecLkhBggvHoccawyUFpQEn831e2LRLfTH8DP0yecGBNJ47/s74QmDJJsTuO2sKlOCXJGnDUoImotaOeHNYiobjvPTESBL62nzgmewSbJXlenPqS0xC4SXSbuTnkw1HJlFFj2w0BPgRcnnG2kl5FN5GAZMtFEfqjL5NQoaEVHT88hGQZMGxo9fpkUmNEffBnAAQnsO8AUdUnf2T6ZKOAzRR09F9MQ1AkCR0PjJpKk8aTFd48+uWuumIkq2+fhyP091RNTd+NYoEbCXhZ+MRHmA2ITvwT7PbNg7Cb+HbX8wgTCbYRPt/wBjBzwMETAL1768dc5M0kvVV9884kJQwZI6n3yBiYye8jkrkw6LIBrcV5/Dk/UiTBt7jZ23hjgwqYOr6fvBTJQfk6cRvjJzMRJaORoOldMRtpIkwKATHlkZCJQLT1/OO4aBSg+Z6fHjAElZlLn0+vbFGrEjRcs63364nlnX9yjui7eUcS8T14cYXGjhBKg1NxEzo4Z5QcjkShFwB13mDGaCViUSA1EJ75Mq0h5O2UKhuokb/eBuAFMud/jGkhCOSphyCZSbkV0/lxCqED3hwhBSdJgRa66K/uASRbHEfX7OVMaDPIQfJf8AcFZPbQZV6knoZbLEv4QPtD9cgA7YYncnl8idMOHxhKtwJehWfa8EUFp20r8PRwzYBEeRyTplNkaHqkBiFktCEIrJPb8ZG1NKxCZufn6Y7AfBETbvvORnYZIcU2T6ZaEACFOcZJJnBhTknG7iQGiOGP726YGqFHqC96+civuIJfIeNXjAbIUnp4/mTVkGjpq/OHAHdKzk15wwMmSTNx5iJ7YlXtQgWV2qa64zCiiAPZWPj+YrOtKBu/8An0cmuSSr2k41/MnbMkiCyT7l7xQhA9EgSckusgWY5vJGZUkphzt6EpDSvOsOlzKkpnWcADJmklj0jCB6VMME4SXPh1kwoIi5mg/OcCH9w4iAnTuSCNEL7ZEJrKjnnfj89DCfuwxJzX38YBUEwXDY+TDLgFLwwCuz6RhZE0JuwIRs/OMfKyiISuBC25EIQeQUD6iYCWd4mW25t/rWS1VJmAz07RGSgrZMzEyS6+mAipJJyBIifTCh3syKk9nGwZA6ZFOi2nnCGwJExasfvOVokFsRqvGHM0TavefvGEsk4CyXqYqA5XQemEQN6HPvnBGnkid9sAAMg3SzFnS/s4vlEIjI7ntvEo2os5gT8TH1x9PWmjucEOIAn4K7Y4KSMsdOMQrDoA6z4+zkFGKoICbieKPbJMHUzUemSUVRkIplgnx9c1qEAt1v84QBMqgOTU2YwQANHr84UaIg6/8Av4wvATT31Pb+YRYhoZ7MSxPZlBi7episO8jbnADN2HozImTzks4e7PTDxweVM9PvxipKpZKElLxr7GMljSBHX04+TphWwkBZHT73xLTEG1nt67wISIrSJ+zhgK7KQzaPec0IiAYrT1xagHMecdZ2LtO84isBg1zb3wbmDIJVxCRi3QhCx/DGfEmYn0ecZErCKk9YMSAoKhJ2iMI4ashkXvB9nGiKEiLHtj4dw8AcecHWOzqO6OPusiJbGyCPHxjTOXgS9THS+oEAe/aDHZiYhG+qdnHI8JpGBpF63+c0w2qpSvn94Ih3iQEPB3wJOFFSHtG8hjGDTc9xgBfmWyHmicMxaWZP4PGASSkM53/33cZ7ShV+mAQGJSGJ1RuOfOQLcRF2zEFcYwkVr+1YcstuE8xL+uMc6rVE7/zJUptodkt6/nfFIJsjRNHfm+mu+SpTBUo4fzE0AlJTDqIwxGkj7D0xIoSOv+GBAgbHrnIIMhZiQysMN/rqTiEyRtPLA4G9suqB4g/mLOnuqfGI19Ttk1+h6YRFb79MoSTwf54z6H2xFmo3/wA8Iwgd/wCeQUH9+2BbCfXWAbO3/PKY+n0wPaRx/jkyPh/HIpND6axTRfrxgiwYPrrAmlfXWWR9HxlcifXpgBAHg/lhvdr/AJ5bQAez8YKxt3X9YyIM9P8APJBJe7/PJSyeP55NgT1j+eREz8f44J1PvrHVXytV3/ccyd73lb8OFeNO8sZ6ZuTTihaT+sGANMJ65EQ2JJk6SB0xEQlOe+KvSJySA6YUxYvPbDq6TiM1aNdspgnQAOQSNbyeDrFHlrNCNxv3x2LPWMUEMPTxmwe2Mwg84+QZJksE4CNWjkUlvR5wlDMMUdQywTU6xIg2OstlqIwk75MQMxkLTi8CN01OWoWoN4uWb+MDNt9M/9k=;" vertex="1" parent="1">
          <mxGeometry x="438" y="370" width="264.43" height="394" as="geometry" />
        </mxCell>
        <mxCell id="_dNYfmlN74PMvxJpYnuO-28" value="" style="shape=image;verticalLabelPosition=bottom;labelBackgroundColor=default;verticalAlign=top;aspect=fixed;imageAspect=0;image=data:image/jpeg,/9j/4AAQSkZJRgABAQAAAQABAAD/2wBDAAYEBQYFBAYGBQYHBwYIChAKCgkJChQODwwQFxQYGBcUFhYaHSUfGhsjHBYWICwgIyYnKSopGR8tMC0oMCUoKSj/2wBDAQcHBwoIChMKChMoGhYaKCgoKCgoKCgoKCgoKCgoKCgoKCgoKCgoKCgoKCgoKCgoKCgoKCgoKCgoKCgoKCgoKCj/wgARCAG3ASwDAREAAhEBAxEB/8QAGwAAAQUBAQAAAAAAAAAAAAAAAQACAwUGBAf/xAAZAQEBAQEBAQAAAAAAAAAAAAAAAQMCBAX/2gAMAwEAAhADEAAAAcYdUs0OCISkchCEKoQQwghGgldYRBCAQggCACiODqV3XLj1LDWyhCEORAV9iEMlfYAiCARDKolsARohUhspRqgaQysMv3zjts3nqWGtjBDCH2EQaIQgEIAQDQQqeIAhoggAEZDFjIpcr3zjts3np+GtlD4SlHUgjrHIqUrQhsA4AJWDwCEIQBEcpsQhssIwyvUxW2bz07DW15FXIB1KEpsksIBkr7HWCVCRKBAEII0QgAAMldY2I1yXUxO2ch6lhp389OMt6Mq3qGgAaIVjUR38pFqupZR3RTacS89cvXLEIhCDKQAppGbLz7W+fcMuU7mJ1zJ6Xhrc8n1jvTjWd8qkJFSEisSd+fcDrh6mvw74O+KfSAj64FhHQRykdAVoCKtj5trnLSMx/TEa5uPQvPtoZJTG+nGt14QhUUaCyx465OuZOO2Z6WefXL3xza5dGW3XzaPfIaZEQ+jDlIBDSI2Hm3vM+45cf1MPrwT0fz63cTmO9WFXpy0KGnJZ5a9mO02HppvT5XudZj3UdRyYz1Y7vyeiGrHljPRjxejBwVI8AlA2IzX+be+46ZLj+ph9eCem+fW4h9Y7041WnCL/AB0BCvfht1ef0VnW8W/h0/HDyu6nD1ODvmyz67ubYStMX6Ma/wBGBVU+UCGgGGv8+15lo0x3TD65vPTsNbaHGT9GLKl5vN1Obrnq8v0u/HXp5xr98dNOHBQwlKEapsUNXHejKr9GLwhENGkRsPPte5aMMh1MNrw49Qw1tYJlPRjAth4/ZNOq/ScG2XRxLOc3nMeEUII4VNHAgKCm75ods+Tvl2mYUDSJNh5973LSIyXUw2vDj07DW1kK5XfHpx9HNj6pZa7TmHbybjIYfYBwgwaUIFEQhDYgtwHr88mnCCMIjXefbQZ9tjIdMHrw49Rw0tIK5P0YRTSbLVLD1zy9c7fCwpz0Sxij6nVL0xx1ZxV9RFhza2zn6X3FB577fO7rkSgVRpr/AD7aDPtpj6wWvEh6jjpZ8nGT9ONR1FlvPnra5aUnfO7mTbzle+bWW+4uX75u+euVKzpecq+tDzaPqd/NFVtlzzfPvb5j1GygAyzYefa/y7FZDpgdOJD1DHSz5rit65qs/RV87Mpk6Zr59/zi2yIznc1+dy3ctOXTLz9QlNVxylWn6nbLZcpF889nmf3yASgZZsPPvoM+gY+sDrxIen4aWkrjPa58nPYx9BdRdc8O2G8xOCiVIweSCEEAgAFLDZg9OpudB1y3XHm2wiNf59dHn3FLkepgdeJT0zDS4lcZX0Y0mvHVx12591O2Z5u+8m8kCqjrm2lkhBOeumEIQBAITGNxntYc9Kyk+h8vm0413n10ufbYyHTz/XiU9K8+t2EynoxptOOznrr5tRrw7jrfeTd4TJac3vN4KUlhLy2NWFOlUVdms4qWIyevL51xI44vRhB1zq/PtpM+3WZGvPdeJT0vDS7lcZT0Y1enEZ3cd8PfLebv/JvKIq+pHZAdkoGEB0AjpWvLuHywmI9OT5eAVjNsmJrcNdPlo0yfU8714mPTMNLuHmT9GVLrn0c9AseO6nqb3ybSIQhpAhitTlrolngDVcgIV889nnPfIRqtGprsNdJlobMlXnmvEx6XhpeQ6snvlRa8Pl7eOrnPvN68b7ybSolSGkKMp2dEFa7iuhtCDQIjHb590Ihrg75rO+NdjppMdHdTI155rxOel4aXgoynoyo9eBLIWfFgnW082sobAVFWEcxYSiEIQKIhERS9S4575ZW8duc5n2ea0jT5aKzIV55rxMekYa38gMrvnSa8AI+8z597fy7zBRVnupGMJpXQB1MK2tjn0UFRlH3zacdRlFl67fjio9fn7u+NNxQZGvPNeJT0DHTR81xl98qHXhBCh5u/8nolUo6q+ySK+nksBYSRI1t+ahIwzuvF1n3HbUc69Ui1x6rLnkjI9PO9eJj0DHTR81yZjbjP7ZoIg830DybziCIQBQ4apEgEAErepgfTjZrDXF1zBZAavDTU59gyVnnm3Ex6Ljpfc1xmNs89tm4QQc9egeXaeEENKAEMNVsPsAhohh5168bFevPqm14Fmz8XofHV1OrqZOvPNs5z0rHS65OMttxnduChHA569A8m89ihUQw2WOzgrrjqgAENIq5LMf6M7Hnp5R65hNL4vZzd59M50S5rp53tn0HpWGlxK6MttnntuEEeCX0DybzolKAIhEZIGUICudcTqa89iY30ZdkvP1OHvg89X3h9/Ft57G56OXM155tnOej4aXErozW3GW0jeendc9fXA563/l2mg0UIhKgoJVHDVW64Od+VeewrL3kry3bHn6zuPB9B954e+bDvPWOMtXnO2fQel46W/NYee7TjnWgz6UtR6vM6N/5dp4IA2JVDhCgGVvdU0m56ZYJ10c9cXTj6zn9PlvvJ6Iue+fvns46r/R5t5zzlunne2c56Tjpc8uavOu+mrqMtOvnvNejCPXD0Dy6zQQBEqDCBHFO8d1qZUgWfnqM56aljLFp5pOdevm0+2MnXHoHEy3TzzbOY9Lx0uOaDzrXnm51v89LbPWn3wqfR5fQfLrPCAqFDhCK93mJtW9c2cjUXOvNZ1TqvvLbnd5ewaeOv755epF1zY83fc8Zfp53tn0Ho+GlnLJGd24yXV1/m9E0tB6/Nx9ceg+XWeEEIlA6ITO3qjaaGcWd4HXFRz6OWdKWPrFveDey4vNe+rLev0x7zaznPV51tnOeiYaW8r4zu3FF01nj9VbrzQerysPQ/LrNzUGwqhBhHItDN5OsX86VG2Pd1iOLLLUacVWsd1L7y6VukXPdobXkpcxXnG2c56Ljpcc0xR93nWXPbl6kt4qdcNrhp0AhBpChwUa6o8/TV7Y2OWue3xXWISKppePXgd8XHn74tOWac6DjrW4atlytedbZznoGGugisqvmwsgufXn6B1zzd4XnF7oEIQQiCQGN67R1c2dK6zm6hvPXz3Y560Hv+f1Y982nLO5oOLrcNWS5evOts5z0HDW8ijvTJqadcZYhXm6d/FuZyoQhDkQVMVlGdVXTkOdebriXvOHuHrmPqd2PUXTm14vMutfjqwzFed7Zzm/w1v4perHNmy9DLvc8VcNKa3sxn5pEII4EOEIyPdHHfF3zVd8T2HXKbrlpY4acG2cfUu+Otf59mRmennm2cxv8ADW/ir6vE7hndgxsuXNVJ3Oeb3MxuOBEEIgwQ1GZjpR3qeJVi644Ncu7TJStoWMsus+9j59oozNed75zm+w10HLjtoed11O6498jyu6Z9poueLiR0qAOAOhwqaZbTl+O9PpxLZzdcjrN2vBsaGxhb597PDWOMzXne+c56B59b2GW0nGvB277hayvXlM+7uc9OjTDu5rkEpHWGAENCOJanviLrlc90W+XRpwxWyiG2W3HWxw1YZzqed7Zzm48+2kkZVDzvCd3WHdLMNM3pOrD0yy9Onn6by+Hq+JYSpDYBDJctrnostcd6cRpw0arYbVvn1sMdGGa6nn+2cpqcNtpzHVn+dmSt089pz0lckNlRbNl6isXec/eEkOJ06I6+UkoFQjM6cWXHWZ9GY04YqGwKt+LsMNIzM9MDtnIanDbZ8xxU3vi41bpjbyTStkfTCM5ZpyzUXm/YMXntgsj6z7Ob38dBUVVlF3zzacrXhsChDat+LsMNIjM9PP8AbOc2vn20kKKXTnh43Vl3M+iVw4QBCs56aSR0S0/c6OO4uuLHlPz0iIzGufFpy3XNqgA0tuLssdIpc71PPNs5ze4aXnPSKPTnhnbs9rHrz9cs5IEbKrFBVxHby9cV1vbjo3nQaYTp089uEmL9OEWnAUjFbebXjvZ49xS5/qee7ZzG7x0vOOqys73Gnfl6TeOjvJ4yOs6JXQbArpZYg65j47XGkdNlqtM6nfzk7ubNzUpOiIwVzurFzdpSV59tn0G4x0uObi9I6WNJJr0TqHvCSVDS85W3NVnG64Ojbz15azZ9uTmtjULDeafbDn7z7uOkIIAE6kupOKvP9s+g3WOl1xTToxOvLQOuiRypEvPZrM+pZVea/ucMsFdnPXZnpHz0gEF5j74ruuWd8WnFQaAkupe4iig6ef7Zzm3x0u+Op7HCAAI8UJWpW9OOufri6477+SHUhkoIJcz3zQ6cRWEkNpn3dc11hGDBpQ153tnObnHS+5pGjgCDDgqQhK/qcnXNzn04I6mxGrhATzrbjn6502fdnFxzTSEIYMKGvPNs5TcY6aKHABK0Ighgq5AqRUhQA0yVBAOQHPXQPRBoCEAYUNed7Z9ZpM+7/muHAHQqcKEIaOEIAhAGKRACgHBEEaCngIgS0vfOQ04loBFCEIAgiEIQAiEIIgBCIABwACEIAqAgJ//EADEQAAEDAgMGBgICAwEBAAAAAAEAAgMEEQUSNBATFCExMwYVICIwMiM1JEElQEJDUP/aAAgBAQABBQJRwSyDg6lcFUrgalcDUrgKlcBVLy+qXl1UvLapeW1a8tq15ZVry2qXllUvK6peV1S8rql5VVLyypQwypK8rqV5XUryupXlVSvKqleU1C8qqF5VUrymoXlNQvKZ15TULyqdeVzKrpZKXYVh+g222WX97bHZbZZWVlZWQCsrKysrKytssrbCFbmQsc0zehWGj+D/AKYHxkbCEVjunb0VBoR6SfkKHwn0lFY/p29CsO0Hrv8A6/8AewrxBp29CsN54cgq+aVtTxEy4idcRMuImW/mXETLiJ1v51vpkx0rlNI9ke/lVLvZDUSFjXzyKBz3J8kubeSLePWd6zuWZyu5c1zXNc1zWEaQpwXiHsN6FYV+vGzEdX8McoVSDdUoAhqwSTlCz+sekrCNIivEPZb0Kwongm7MS1fr4Ugbt2f2xpsclQW4XymhlpVNIMtLQunEmF2UrHwn4SisH0qK8Q9hqKwof49uzEtX6ACVTU93CHM6bKq52VUVEZCxoaJ5pTU4i8Cm/wCQC6no5XmSSJsjaukNOfiwfTIrxF2G9CsM0A2Ynq0FuWsTntaLZ20jcjW9Z3AClgdO8C2yppd652G52jCpC7gXsVLTiHY5ocKykNO7+vgwfTIrxF2G9CsN5UDeixBuasbTtC/CxPlc4vcmdukUsjYhBA6pkaMo+FzQ4VlGYXB1/gwfTIrxF2GorDB/jtmInLWShxc2KJiJZllMRhiJyMNQXQ0ZzNAA+O1xU0DJU+jmjTszfQdmDaZPXiHTt6LDh/jtmJDNWSQ5GP5vf2nC8MTntkHTaPkm7WZ8g9OD6ZFeItMEVhv6zZimpZVm3ExFGeG2dr06/Et6TOMcVFVNqY6mZ8Tkaqfiw+qElTMIY38ZaIl0ZqXzTEVrFHJmgZLUVIlqaikLHB7Je2zp6CsF06K8RaZqKwz9YNmKakC6sFE6ELi2xi4NQz6zdgwupGTStnapHObjMU0jpMShfND5hUwhtQ2WkwO3BLGXFtBSW4WrYJKbBDehl7bOnpwXTorxFpgisM5YYNk8DHzVTQCY2rI4LKAm237PpPygpLOpH0rqatRmjbjL8QpmiomMMRr6Z0eFwGGkZvMNnGIwOUkTqmko53UjZ6jfx0sIggm7bD6sF06K8R6YIrDP1uyunfFUcQyR3C3HBvvJTxxr279n06oABW2ZQg0bLD4Je3CxiyxrLGt07bgnYT+niDShFYZ+uGzFdQmXyuzOjtYs78f0TujK8ObG9sjNskuST1y9qngMjHQSXjpbNMICm7iwTsorxFpQisM50A2YtqACqa2aoIYv7Z34+3sgkkjo8ODRRMqN+HVkjKBkdQx1VLK2vxeSWKCrdNRuraktqKcyirbUtlOyXtUlt3vjm3z3lrvfKbylYL2QivEOlRWFfr9mLd9vNuY5nZZw5paWd+PtrosOjfHHFDJTVEMdTSGqpnVVLCasqqilfV45o5Ypal1dSvllp+ILpYZpgxoYxS9qGfdreML81jmQ6LBO1s8RaVFYV+uGzFu+DZObmEEecvis0C1TH2/U5wat4xVYgdHC5z4fTJ2//T04H2tniLSorC/1o2Yv3k11lE9O90YP8mPt+qqkL5KkAqpc4hv19Mvapqd8x8tXlwTsOUtHI1HksC7SK8Q6VFYR+u2Yv3tjHZXQz2MzRv4u1tlrN1VzyiGGindUQ/DJ28L+ilcWJr8wuVirbSYD2tniHSbMIP8AjtmL930bzM+LtbcQg4iaOXjo4JuHwX+QpsxxOivHXUznnEcPL99FPCVfbJ28N+llJ9YJMhGUtxCMyDBGlrNniHSBFYJogdmL9z0N7sXb25JeMEIjiho3cDTxVTA6CQ10cEja000zaulpnQyup55I9snbw42XKz/qYHKFuUSSwtVBMyXb4h0iKwPQjZi/39A7sXa+d/bilLKiSSVbyZ0e/kKc9y6rBrtGzxBpEVgw/gDZjH39De7D2vgIuhy9T/pa9Q32JwupBZ0bM8kUTGhz2Mcx1isf0iKwf9cNmM/b0Duxdr1ODiPzMELJGD0EgIusppfYHjM3dsc6aNrXuzOHVr3NiqJs6p57CM5mY/pNmFfr1dYx9vQO5D2vWWX9M9QI3itaxMq4Cs8cjIy1ktRC7dQU2+Y9pY9jSSb2miFoKQubGzIzH9GisJF8P2Y1yOZAuK3ltn/pB2viqqgQMFY/dsdyk5ot5MLmqPk58xzOqTlaHSSRe1Se1OF2YO4NlKx7RorB/wBcnWaKyodVSnkMPYOHrIWGNnT/ALh7Xw3WLG8l04+2TkLe0ERqaTMf7bGSot1Cxz/c1znOkjbu8KP85Y9otmD/AK4KrBNK22Uu5QNvTR8o6qK03/UHZ+GonbCwuMj73PNz3HNM3mnt5EBWFxmLZBziYZF+OATTGUYV7ahY9okVg/65BVkLqafkWYYfxWKrY8o/6p+18E9Ru3V7i5NKjpJnhrXwye8qQyNLIS4PZlcA5fYSSNYzPIS6NxcXhzG/il/rHdEisINsPugVjAuN2c9JTNiZJIY2zTvmR60/Z9c1xHMI7yzEmigbEDNCxNeycOG5T25wDZt2Jz2NRfnW69gOVf1lAmlZI4RX3OO6JFYR+v2Yz0haXuZ0rnXiR6wdn4JYWyAxAvrrF7o2tjlduJDUiZuWnAj4RZfzS9yM82e6F3VpsaCBlVM1oa0rHtCisH/X2XRTObOXNa1RuThnLYWKqh3T4O18B6NLb1QyVxaSKlv5WjI5zCUGFRxylGJ9w2yg7T/usF7qKx3RIrCNCFVP5N5Nk+rSbMIch9qn3qkP4/gqGb2FzS1OICjeFUzRpoytdIQd4LUtUGCaXInG5purvusF7qKxzRbMJ0HRTlf8jpG3M1zFlsH8pIDY/DNTNe9tMwGuZkke/wDHdS9aOAzv+lS9xcVSD3zNs5YN30Vjmi2YToP6mabHo36U/wBnBEKpsGRP9kTuXxVsn5zyXtBzukexxYWm8mynADXG7isG1Ccsb0SKwjQNVXKL5hlvypObf6Cr+SpX3jpXfE/6VJjnaYDaOCwytvIBb+/QVg2oTljWhRWEaIKriD444rhzFQn8V8xtyqWXZSgl0HJNNx8DubYYPyVMQzOZlTFIU21m9NpWD6lFY1oUVg+gCl7cKnvnphZo9oUvNNtHORZRPV/iqI84dAY3MsyWspMzsmWX0FYRqborG9CisLlDKAKTm1nJ9WFSu9vXYXtCqTnNO52XomSISLeLOg71u5h/JsRvHLqkfRhGpRWN6IbKTQtRFxMMsknNtJfICSLOKtZPHskDniNxRbdObZRx5xu3hAvCEpTZkHg+mcbuSheDDLqvThGpTljWjRVJoAgVX2aP+aU5ZNhC/otBWROhRY8KBwik5FZQpGWDQC4FxfG+6HTZXRl7YpN2ptV6CsJ1SKxrRorDoRLh2zFtNA7NHe0jHchz9Vk6NDO1B6PMS9yTlHBZoa9XV1JzbTUbnPn1foKwjVIrGdEj1wc/wdmL6aI/heOUH1DkCrhXHqIuXSZE925ZC20ThdXsmyWQdfYFUau6ur7cKNqrZjGiRWDaJTVbGKeV06aS1ibIGJs3PfriiFFMZF70C4LOEJWprw4l2VsPMbkZrrOuqqISV7gQ5yjeSNgsgG2cArBO6w1b2KOQSNxfRorBdHL2rSINkWdMfzmsYmy2G+W9TpuVFU75qPNPjYVI3IpN4IGTskAJRIcixdFdPhEikhdGg5B5WYrMs6zlZyo4ZpW8HUKijfFHjGj2YNoht3MlzTyrcVC3Mq3Uq3cq3MpTI5opI3hwRIAF3Pmp6iV3BTpkVW1ZJbcwswXIpzt0uKjUm5eoAXngplwUy4KZcDOuAmVFE+GJFYtokVg2iCHwuF1LEQt9YF5mMLc20bSAjEwrFYyw74tQet4EyaRYfvy3adhWMaBFYKf4f92Vufwy00cijpC2X4LXVbQyxSUEQmn8nYqagihPqKxg/wABHrgukHot/o32iJokV9l0SgeV9hWMaFELCqpkMfG06FZTrjYFxtOuMp1xdOuMp1xlOuMp1xlOuMp1xlOuMp1xcC4yBcXTri4EayBcXAuKgXFwLi4FxkC4yBcXAuLhXFwLi4FxcC4uBcXAuLgRq4UKuFYvUxywZf8A4/8A/8QAKhEAAQQCAgIBBAICAwAAAAAAAQACEBESMQMhIDBBBBNAUSJQFDIjM2H/2gAIAQMBAT8BVKisSqKpYlYlYlUqVLFYrFYrFYrFYrFYLFYrFYrFYrFYrFYrFYrFYItr+mdqR/Ru1I/ozqR/Ru1IkuIKyKyKyKzKyKyKyKyKzKsq1aBKcaWRQWRWRVlWVatWrVq1cM1J1Il2/RcByMAJwXSv28epOpGpfv0YFYlNag1YotR/SaxYJza9nHqTqRqX78dpjE3jo9hM+nBPa+o48X0E1sWihuBD2evj1J1I1L9zjUBhI6XEKTtJpDBZXI/7jrmlSwVeD2erj1J1Ilw7WK6CtWvp/wDrC5gPhGgO095f7HMVejj1J1Il+0GlzqTeIDQWKcxpXDyfbFJ/IXaW9+4ttHjRZXlx6k6kS/a4m/yQiv4oivwnO8uPUnUiX7TeWkPqF/ko819Ihw3N+92/Lj1J15P2mtLugh9OflD6cIcIXN8QfO4EGRDt+TNSfLEFcQVIRzeFR8+OpHg7fkzUnUiXOopnKhyr7iPMBtO5c/wuPgz7K/xGo/R/op/072blmpMieTcAmlZpFN3+Fwu6pZIPAR5QfhPrLqOPUmRqX7hqJqG78R7QsirMOjj1J1I1PJuf9lVJu/UYryyrpZAxkJ49SdSJfG0BaITd/hO35ccnUiX7jSBhu/wsbQ4l9tfbWMMk6kS+dIOQ35j1iALWIWLVyDvpMk6kal/i03+EICK7XIwuKa0jcnUjUv8AFu/w6QBWSc5FyBuTqRqX+Ld/hHaN/CsqzLBW5OpGpf4t/CdtDpUih2h0iZOpEv8AFv4NooUrpXGHSeCNoGDqRqX+Ld+4C19tYFEFFEINtFMaSUSuR2SqDqRqXrFYrGBv2Ug1NFTivsr7X7Tz3QQGRTAAKEfbHynCoOpE7hukRaIQ9jQh5O10hxOJQYG6kom4OpEtgDpYUFyCkPWG32gItfPj/wAhHQTXG6KHa0nOtfEHUjUjpfC49Ilc3YtD1NbkjYCtZLILsrsLH5TxivuBB7f9k/kaXWFZ+FUGDqRqXprrTelafyWh6mcgYbWV9olWrXDyD/Vy53/ATOdtdrl5cyrVw19RpF1wdSNS9Mb3DtKqQ9Xz2ixu1VqlysrStfxQxXzPwrpMci6zJ1I1IFoHFDvSpPb0qQ9TiKTDiVaee0WfpYLBfadtYEQ3SdDNydSNQBcO0mupA2uQ9ICyv/PZaLukESskzmrorkcGhHspiO4ZuTqRqGyVpbTdp4o37LgJyDbRNOtOcXbhidHHuTqRqG7Vw7wP8mIewxuHy1Exx7k6kakRvw4z1ScKPruAIITvLj3J1I1Ah/XhS4gj7B2j0gUT5s3J1I14cmvHiPaczJa9YNJ37Q6RCd14VDNydS3U/CPbfCoack9mU2r9QT9+TJOpZqW6TfGk04prwU7jDkeEIsraxWJXavyKan78mbk6lmpYaQ2n9O8xyFDkCfR14V5EIFP35N3J1LNS5A2Fyj59pPwgxEUgqVKkGp+/Ju5OpbqXJhR7HsJpNFJpXRTm1pA+D9+FQ3cnUt14VSCeEelfjfgP2hXyqVK07jvS7EA+Yk6luotWrTXJ2vEeB6WwmUqXYWS3DgCnM9AMnUt15XF+AMj9yHkIPCsSSskSD6jqW692/RaeVkrVwPM6luvaQq9RCAWKr0HUt1/RnUtKv8C1atWrVq/XaJ/qP//EACgRAAICAgICAgIDAQADAAAAAAABAhEQMQMSICEwQRMyQFBRIgQUQv/aAAgBAgEBPwEtHZHZHZHZHZHdHdHZHZHZHdHdHdHdHdHdHdHdH5EfkR3R3R3R3R3R3R3R3R3R3R3O53PyIjK8vf8AR8e8vf8ARw3l7/o4bzLf9HDeZbzCKaOiOiOkTojojojqjqjohpCSOqGkiKs6oaOqOqKR1RR1KKKKKKOXeYbzLeeP9ficSOJMgz2V8vL+2YbzLeeP9fg/IjstjdjnR+QjOxf6S5RcpGafycv7ZjvMt54/18bonyUPl/xn5GcErXsnPCSqyGx6Pv2S/wBE6OPk+Pl/bMN5lvPF+ue1lHatnO+2Kti/5VZTo70flOw3eePk+n8XLvMN5lvPG/8Ak7v6PbFGhI5P2GJN6K6/Jx8hfwcu8w3mW88f6nZRQ+ST+y2RlJMn79nWP2XWvmjNoXKKafly7zDeZbzx/qTlawj7Pr+CiMV5cu8x3mW88X6kuFM/AfgPxdfbLVesIaoSxXqz0JWesV/p6KKS2UnrCI68uXeY7y954tDkls/MPlkW2Qwi79Mqsf8AziLo6r6Kpk94hsYmT2Ijry5d5jvL3nu0qJMvMMIey7WK/wCTqxI6sk7Z+x1ZdMav2hKtjdiI68uXeY7y95hBSRLiZRRGDZ06r+CiXK4+kf8AsTF/5P8AqI80ZZ5d5hvMt54tYa9+ylYievDr418COTeNiiQ/XHLvMd5lvPDrEiKvE9eMtlUdfZ6FoiL2JfZ9FZQzqjqiiOscuxYjvMt54dZ/UTsnrwZs9MTodCfohsuhMdfReUdL9nVlHV55d5jvMt54tY0SdCkS18SsfkiGvLl3mO8y3ni1lo+yX6/AhC+Dv1PzH5T8oprHLmO8y3ni1nY4j1416NjVfHLDOzOzOF2vZy7zHeZbzxa8ZL14p0aGrkej6Hoeh/RT+vGWWrKRwTUUTd5jvM954vGevH6LG/dlov0X6L9UNl+LzSOpGDJKsx3me88XjLX8FCVoSX2Ujqs8rvWY7zLeeLxlr+FDQ/ZZEbpWSdiReI7zLeeLxnr4fXnQkIdnWxLHb36IjWIbzLeeLxlr+ChaIyV0OdCdk5KKEQReIbzLeeI7HYvEtfMxF4/I9Hf/AAir9sbUVZN27Yju/o3iO8y3lKscmyDES0P415IQ+RJEpSnsqxpEX7KxHeZbwh4b9lnH7Ja+f68fViG6PciMaHiO8y3n9lie8cOyWh/FHNZsXsop6IwZ1X2JlEfeIbzLeeIkqJSsSshDqS0PfwIpsSNnU60SjftERw/wjChRbOtF+xq8bRFUMhvMt54icvWOPZZLQ/h0KTEWccr2daKkNSFoWsNVIUbRKJVLMd5lvOjYxEZM7Wh/EkbWIaOx3O5+SOhTTxyfscescusx3mW8LCGiqImh/DeaEmMSOpPhv2jjg2xekcpDWOXWY7zLfmh6+VZiSlSIq4iio6xzaON+qxy6zDeZb+BGmP40LFViGeR3oiqWOXWYbzPeFl5iTXyJUWdsJixRWeXWYbzL9sJjZFkspk5fI2aE7wl58usw3mf7eEDfhNehS+Vf4bVEZVsj78Lxy6zHeZ/t4LY/BE1RF1iiivhWOPXlyazHeZ78X4JjHEUqFyHYs9FFFeKJbOPXlyazHeZ/tmrx9edFCyiz69+MWNHHry5NZjvPJ+2ePY1TI/HWIr7Z29+y7K8HP/Dj15cmsx3me88eySEP40rH7JYUrK8OPXhZZPWY7zPeKF6LwsUUV40UP16LfhGdby18Ud5nsWaGhbKKKKJKvBexbJRfkpNCneKKxXhYyO8z35evH0NYQ/XotI7DUWdSspWdGK0MssssvwjvM9/JZRXX4YHUorD847zPfyqTR2+JSG/R3G7+CO8z3/Jv4o7zKPuymUymUymUymUymUymUymUymUzqymdWdWdWdWdWUymUymUymUymUymUyC9/wBR/8QAOhAAAQIDBAgEBQEJAQEAAAAAAQACAxAREiExcSAiMjNBUXKRBDBhgRNCgqGxUiNAQ1Bic5LB8BQk/9oACAEBAAY/AlVkNxGS3L1uXrcuW5cty5bkrclbk91uvuFuvuFuvuFu/uFu/ut391sD/JbA/wAlsD/JbLf8lg3usG91gzusGd1gzuvk7r5O6+Tuvk7r5O6/h91jD7rGH3WMPutqH3W1D7ppiUoeU/D9P8jh9U4HT/I2dU/D0/T/ACOH1TgZfyOH1TgZTc1sRwC3ju63r+63r+63r+63r+63r+63r+63r+63r+63r+63r65rev8A8lUxX0zW07urnu7q+K/ujrvHut4/utt3dbbu62nd1tO7raKxKxKxKxKxK+qcLqnC9/zN3lDgqyFBQK6lFzWrd5v1Th9U4c3e3kXvAKLVUuFVqDV5q9xrmtolnFUBuVp5oF+zcVSKPfzD1ThdU4czkNGgRLhaAV8JoVzUw8wrUXDkqNC+FCNmgFTTFG3tUTa+6pCdZdzToUR1qgqCqOCq29nlnqnC6pwcpnITGqqUCuIYCnC1aQzRJwCESJc0bI5K6Qe11iJhVH4sYk8KCgWtEbZ9FSDG1eThVOJdae7EyoUXMvh+U7qnC6pwacp09AtcqoAqta4cpApytvNytxBRowCoPKoVahCreXku6pwuqcHKYPom/pKvosBROIaMVu4lOBoqQhZ+6txiXO9VQYeZeqtucuDgtZl1aVrpO6pXqF1TgZTA5gJpLqmRVOaY11KG79xctZ91eWk7qnC6pwMp+ypEAcr2uWD0BDY4qHWmMnOa21S+lVabcRiFDDWtNs2cZO8O2HDqL6kptuFDsE3lpwVqlTgBzKtNME/0U/2mlwski8J0PwgabO092AVq1Ci/00ohEcLFRU14K14cMhwuDn4lD/0hsSEfmZwQcw1aUV76T+qcPqnAyn9MtpazSVqtooVnmgonSVC8V4fCyLbV4R7MDFEiWMtmxhVWXwHMHOqHwttptBf/AE+GNOYTo0HkVdjaNZPpxoFBphZCitP6UK8CU5HPSf1Th9U4GX+52nX3IWbslQXlcB7qpcFCoOKGSiV/SVC4iwFC+HuHPBpyMnOc8BtilVvLXoE19guvvAxR17VflpeUGvFCb6J9Wuf4Z3EcF+ytvd+lrU9kajXO5cF8DxjS0DZfwRheEq9zrrXBqbDHBOyTs9J/VOH1Tgf9xmLOFMELYslVY4FVLgteJf6KFZHFDJXq4UngFgJVpf5Dsk8vJ2iuK2itW+b+qcPqnB/7jNvTKrSQ4ckA5xlCzTcpYVTniDFsNxN1yD2GrToQ2WHOt8Rw8h2ScQRtlYXK9XOFU6UTqnD65wcv9zb0qqv4r1lC6k3KfibEK0LTr6qFYNRRRH/EewA0bZbVMiPbSM42QCmkx7f6gW/heGhg0hu5JroT7OteocURXRGF1HNcoUBtrWvJaL6Ij9qYBb/E4FP+L4mJBi2qAcBN+Sef6ytUur6rbKvNU8+sonVNnXOF/wBxm3pVEOYQvo/1VCoXUm5TiNiMpV5cnfCba8O++ldkp7IUMRYRNRrUorLyGxMbuCa2I2GKYvrWqgRGNFmHjem9YUMRWtZDabRvrVQ40FwEVnPiq+I+G0cmpzIkOCa/xOIQaMAKSfkojC2otFVqfdHPQiZzZ1zg+/5m3plUKis4qFQ/Mm5adXEAeqve3CuKtRrJAvFSmOfc4iuk/JRes6UXObOucL3/ADNnTO7EK029QupMy042NLQhYYDivEPs0whN/wBqM1oIFWwsNlqF1NJ+Sj0pZtm8q+J9lt/ZXRFzyV6i5zZ1zh+/5mzpnVH1UBzeLk3LQZBiMAa/B1U6I7Bq+IWhoOHlOyUb+4ZWsWqoFQtlMNmhIvUXObOucPM/mbMtGED+sJuWg4DaEKre6ZXCG20/qTYjceHdQnQmxbV1q04UI7pkMvd8MsJs4LxEK0fhgAgErxLHPc4NF3ovGVcXkOoKpv8A6XRofiK3nQdko39wyKoSbKqDVMLXexUUO5ibeuf1Th5aMLqCblofE1bFmzjentgAVdfej4aNZ9C1NY+KwwxxA1k2PVtGizRRI1W2X8FEjQXsAfiHBRnGJatmuC+FGiQ3M4mzfoOyUavGIVgqSNsBazgn/DFKTb1z+qcPLRhdQTcv3B2Si36toofDcVW2bQ4LbcryZRbQphjNvXNvqTOHlow+oJmX7g7JRafrKs1QJk1taVVGAXINddVUOEh1zhe/5nC99GH1BNy09U09UQYtrmbOAWvFL+d2lgjROAFXVVX7S2UTIWnG0hU1Vh2Cqh1zg+/5nD99GH1BMy8h/wDUNEQ260QrXZfzqquff6p1lzTcopPEoRLXC8IurTki08FcCUAKUOFV8QOF2Ka5r2ubmqIdc4Xv+ZwvdXK5Xyh9QTcvLqcVacW1dstCc75/VXFYXrUrVF5Zrk11kbbvYIBgDW8l6lFlMFqmlUWvNwToYwIrIdQnD9/zKpVTc0YL0Vp3NWgMZM6gm5eWwA+y9ZBvzYlav3VKVPGYuIVoYq0cVTiVR13qvtL6hOF7/mUWmNkq5UTA1WHayq0UvTOoJmXlEnFFz8TLBOKFlwuW0rjVG+hTbsFa+y5BVJRODAofqZfUJw/f8zcKapwRwvVmvFXKvqm9QTcvJDcSUXV1SZVpTNViXeoX7OllaxoqvJvVBLVVnaPojYuCqXKwOaYeRl9QnD9/zOHX1VOBVQSSUXEXBa2HJNzCb5Bs4qrX3rWC1wA919/BbxEfN+VdsrWFQqEge64k5LBtfW9bVUHE4q43SBPBBwhuo7CiZb2qXr6hOH7/AJnC90LpUk3NN8m8XjBMo29MhnaON6ADR7lNsGh9FeL0C57ifRfN7o6tDyTs5BFYJ9smg5INbgJfUJw/f8yvwQq2oC1Veng4oCibTCqb5UM1xwVSag/ZD88EbN6sg38Vir1aAqOCdqm7GRRlEyn9Qmz3/MiBK5Ar1kzNWfJezmFS+oV6Y6twxHNWm3nhyX+52XjDkquGSPBEJ0omU/qE4eZ/OiM5wzwr5doq5gQpxxV3AYL0kP0jFPpwVXGpkVXnKJ0z+oTh5n8ywm4aDHeYbXBAiiAHHAK4XKoNCnE8Zm1ciZP6ZnMTZmZWa0pJyrzlUoqz5ZRaK2sBVWaoWnA09ES3FVVeWk/pmcxNmZk7mq1Rs4hU4hUGCuRreVTyyE0cnVRHZXukRzVPTSf0zPUJszMijK7F0+K9CrTfMqMV8TG68Jr6apVqEE9p0ndMz1CbQeMSkyq6LrrkA/2lisfLc3kU0qJpP6Z/UJw/7mi6mKuWMjTFDmFR491cVtFXG9Y+S4HAqldlRNJ3TP3nC/uTY7maSc33VRO5YSuWCtOGN2j+z2VcdCo4ItBveQn6TumZzE214PqJt6leh5Vy1pWGe5Vhipx0CqxblE0j0zdmJ/UZjqUN/pQyHlhoFXFWRtoc5X6MTSv5TdmJ/UZXaxWvhyVBLGgWKwK2CrguCvbLFYokq27Eou2iecr5VYb1fUFYnuqE3yw0qHWCq1PzE/qT8lsP7LYf2XFfZFwXFcVxV1VR20JXrZ7LVLvRViEUQsn2WKvVx0OYlgtlbK2VsrZVpjKjNbA7pwiDinZif1nQNIT+y3T+yA+G+mS3Luy3L+y3L+y3L+yBsEUXrIk4L4hHoAqlt3Kq2futkEepV8P7q9pE9Yql59ldVpyVkOb7rFndfL3Xy91izutpiLX0x4TdmJnrPmVHBEk4K/VYrXDT2QmObWwqCl89V5AVYx1eFdN2Ymes+beKK81Z5N6cWtLofAhWIloD0WrFd2VaWncz5BzEz1/vJeG6x8p2Ym6HFNL6hb5q3zVvmLetW9Z3W+Z3W+Z3W9Z3W+Z3W+Z3W+Z3W+Z3W+Z3W+Z3W+Z3W+Z3W+Z3W+Z3W9Z3W+Z3W+Z3W9b3W9at63ut6zut6zut8zut8zut6zut6zut8zut8zut8zut63umw4Tgb6n+Uf/EACgQAAIBAwMDBAMBAQAAAAAAAAABESExQRBRYXGh8CCBkbHB0eHxMP/aAAgBAQABPyGTlsyoP8sT/wBWn+ehNt8iP9lC/qoX8R+zl+XJzfLk8n7tDL/PON8T/GEP6wn/AKQwTUewafsYU7w/RUt59Dy/yeP+Tz/yeX+Sjfx6C/of0cN7v0P+k/RQnuP0VI7z9C6RopvIq1MNMQq6IJU0VwEiBKgpCNEY9CZcmQM6de43egsIpDpc2BNgITqV8H4vXIczqHwxTpYuhXIEQJaQIhiWjQ6ISpURf0QNC9MhFeCpQWM1Pcfq9J4KCV1fAmQJEirq3CE5J9KUFuR/wngVq6pzLuhngU2/laGA04/7EXEZMFx2FATnRqURFNY9TET6sU0exEbD0+Pw9Kgh492LjSl00qJ8a+ogDE/7EX9CP+jH/Ri/vxFK+WSSpoqxf3RCsFupkIcj5DNl7yUc5YmVRXWmf6k/14v6M/1h/pD/AGSf7yf7if6hv+4b/oGbqc1fjTLeTxODgLhr+32Fa07VfWkEEEEQUIkgSSXWKoc4Epoj9swNEkzbdiS0m+aoTSiHLJM3YxLRLRERoxlxe6vxolDzuNK4iM0U/b1dh9NZMaMiXB7FStDAJQkhvE7EWarpKr9iTzH2EE7abmOVuXFrVvcQWGYmI/ZGmd1ns/2UAVZLb+CekiYmL1DUFu/A9CxWy+iwvFJiu5+2Wi15GiQ9hljUghackSoKzW4yw7kZYhE0kT5hisuLk2P6UUEOa6uVDZ2VRSMnLMdI+2TGImhe9PsT2NC1iYhjkk5UDOh7O3QVVKsIQiKeiRi/K+kMQ7x9aV4kc35Cwha6qaFGNHJXAQort9S5lpyNF/oHowC2Hcniv0IVJISxot5qVBTK2aGLXfBQ94yRzn0cspICKLP7kqF8qPZLCERllCqGyrSwKHJMgWlSwxjO+/S1p8z60rhalK/cbLRz0uwrz3wiXKPckphyBLdKseXt47lcnsUWLEtxFkerjl8/QlCaL1wLRgTKHSYOq/j9ClppOjQ0MZ3z6RQsPE4LC497/JmBED4Rj1bao9CgI3NySaiKpRCoNxUl1I7lVwoIJFd/wOLuRcuishKRCY9K9C0wNGJJRNdbTgf06hR3sQ1TggRkC0sGhPk/S0glsPJ4GDGUaf2zAhqK6A5locRFBJbdihHBsGo3/ESadEWRCtplol6I1WqyGXqsQwSJkjGydPzCFYVNVF8OzLS5DVPFRW0oWHFP5KP1ZyTvtD7JAnGPsUOJ4pzgs9BVZlqQoQMstkU5a5wh/AuSRIqDKTQqaQM2+VSVmc0vkshFmTk+KiGej2XsW5purZbidout1/ZiosQwSgB0DfKlsN98RFD9gnYhKazo6X6vsekjejxeFqnV8wyxl4vWl9vQhaOj8j3hDX/BeL60E1XDFHFcxp6QvgYEXfhVx9c9QTh0MDDGARYW5QtMzRrpQmrTo3Ege6zIa43DkoqmlYSF3PcaZHv3R+mr4LbbYYnKiR2R3z7GYMjGebwtXl8MtMT5J9iyohSXJIowIiirQGXK34bgdI7+waco5iFUd6UvmdqHTdC/APYmIfwOKQwSKXS4pMKg9QjbLbZEnNLpERRQRX6EEnht9k4Elk5uFDDN2YkXHYFVfQ21NJZdSHiGSppXLKn6W+7y9Mghz+ydFcYzwOFq8Phlpgcyz+wrEE3FTqtdjeGKV7oUraEYEyIyWJ4IJwnRm8nahpJCJrkSwhNkhhn+cfw2imoco1SSskjGllTXnNsCXUcVGo8CuqGxNwXi+jPC4WiN0G9n+Xq9m/sWEHaPt6NXQZDKmazNWOStN7Jo1cSLG45iY0pWL5I3BlMjRWI+aZqCnN+uRflFNKQ0xKp1KJEzNLGKaycjpxbw+ozyONLBfBsy0uGdLZl3FunYPtjShVCIqvtFkBuZM7Qdg0Skzf8Ax09hGb/5yNlGEtSmXR/AgjBBCnchEZpiUdAmC221c4WSKegkSq/f2FobRPaLDPUrlHAhWa8lK8TZDWmRovHX3E5Sh007yLIKt1UY0UCVmlDqlCwpyfVUjyzbQ3g2J6PO4Yi47d/YVkhI8bllda7oaGWBmsUqGsh/TDR2k7V9aTBu/QkxUFU5TEbhiifBODKxnnBkQ1cXYxBOwi+Ahrs11RbnYbqP6GJZvQp3WOhYDLigziEVSdz1bLJe1UOkXLAqTTuJKyRK9xKoDlWEEleVSaqsOSxuMWej+hIdjs309Lkdl9miDyuWTJEKvku0oclphSohSSk7X9ar0K+WmgaZaCUkpbcWVrsMKASNksTozOjF+b9DT4vyEayNnZfrR2PG4ertfsLNH8m7ExlhTleIefEliG5bTtv160o1BMl03L/BGDI7azd3ePYgWSttyfP4PYFttHfVncfopM9IORN+kPciD8iEzaSiEbNJDR2f6FcSh43DGYHjchWJPO5Ho5SYGwqbBGkwyhvh/QtWWwB/EtaE9eBCtCJy9GyfQte9FJ8kjDe3QyJutBfpXsI7wodj+hJDO0fT0dxbUq0GExup4fOqE4KCVVQ7H9CE9F/YtCJd0akl+fgegUprqbEZTyuZ1PwEdnCDovsQu2UBEiiJat1TI6Z2kbQTVtwnPxHtokk7kZjojbKYYk1lLQ++SqixVmmIQiBCkEaf4aOx2r6ei8f4tUZpecvsWiJPNbnZ9FbRIaE9CWUzYQ5sdSkskRBXU5kyhpElscwuMxuSq1JOqVAtmKTFwQx1IoV3JQnFQnXzHuRCjXuQlUSUmOSKMbQKnDCmhLorke+UVOSsKowpDKtpuKw7HZvp6XEk20oKqlzv2q0fwsnatV6Fo6Cc+h6d6FNJNMp5IjR+pIRG1Yb1Yuoxde5VqJtipGO3CEbiHZkvYfT0uEKesrvH4KqLTvQn6PHbnbdVovRCadipEP1P8wbqJ/oM41W7UOclQQ9IpYkiRDpT3OMmeCGZLWY7F3w+npcKrGfsE2Op2X4aJ6+G3O1C1TJGyIrneElKLXaic1IFidrUi+IJ1RfGPTDqxlNgmaa0rnkmLxfA0UPatSgkS7EoRMj9Uso7smKlVmIddxd1wexE3cnbvp6O47VaP6E/JyO3CLCEeG3O2a4EtGtMhg6XLLWBZOw26jZpy2JSOaLgaMwlZlQKV02KUFdZgc22g8yW0FiA6wIk3uMBpFiWjDIkUupCFKdu+npcNb8VEESVGcfgN3x3MgfsKRQ6mBeFudmJEyfUyS95rITni6Ky3bFK7a7yY7VzPMPcqqgylm84EU0zGA4lsNfxkeR1gKSVXiTZBrXkeyRg1JJi3WVJYx3Aclh5rZ6MVY6/cL5GZZRVZssS7ISFJOWdxl4UlCWLCPKIHtdxeduduI1Wq9BsyLIk4mXk3giWstjtwoZ0LocldjcVF1MpUN66EN2S9kMkaDy0ImmqlbsZKJtgjhJvmR/EIuaVmE5bjtyWvK+juhpVz9wkCmCsUrlk1ahS7CVxFFPhuKojRB5nJ2AVv+LhKFRDy5rCr26vJKO6yQ5y/ciqIQ7ja7pszfBiontJGoS6j2J5HEWTAin3SprN3c4tNbjTGDLHlcoXDZfDEyiqjVC81S+6FNXBM7iF+UN5IZbMPxNxjK/rYpYoUkESsNhcUfQR0VLqcSNSH7wUtTbhCiTEEyNWRgdV3tFyinuKJVnngRaPgSJEZs2Fh51rJCGG4FIK0xuRanynS4gPmonIwUr4UFAyok3BiYqkGyMUPLbna6X9C0Zys4wMe23uI6hijTVWLDUXSl0SriVVFPrT3D2hFJ0pREs+nI41+X0JWeFDuxtMG9/8ECvRVhyeKG0thr3A4c1VtCsqaXyOPriosiIYcnb/ADaXCyxYadxmwkUOe/4ENUJjJKlgnVFY7OdprInqmOqKUXNJmWJYbdiVYQNgYsgnGQawG1MTq63G7KKqSYGadqmsbqdmOVsRVoA/QtoSlFhNQQmFppZCUElQlo8rrpeWmJ+4dRKRtoQ263OBZNHBRz+xEisa5RKopmSdO3Ex59ctIpm3CWRJ9Kl1E6o5LgMRJWCOA0boVCONli2CvlBWhFZkrpDyD6hpRs9O6lPR/etq9BKlE2/2DSPw1jYCNzvQ0soYi4XQ0dIjZcuJAkrf8EV0ikOpwpOXYyyuWPRV9Vwk/aKVKdRooYtjzkNEKYoXs1i0DxSQhoIRSE60XJ0kk2HEsdbRvj/eq8DHcVPeAqClGZmSylUdxfFqFpVRCkVBYJxLeUL0p6IuVmcpZJ0g92IbuVw/JXKxMtal+xCkdA6xpce1mB1KKyE1wN7GhUdkXFm+44LDxUkeC7oM2AEnONi9OqiWjqD2LNumTIjozrBQj4ZNH0r1OaqLUPikQyYQlJJulBsJokZVBjpLgQJVHq6l7EkVl6PG5IElaaoYDeHkcr/qCKUzOVYSpZVZhuBGX8YlVJw0VD1GujxQVULWPTvIHhOrlsksSuBG3C8BKYVOR50vuKeCoo1InFiJrfV5nKHqs4MS28J0txURNkXIiwZxTG6Fu7JUcuwux4ilWnBOZG0Si6FSJ5FUNUydELRE4syp025JM6qqiRa9yEUcvoQwVDM2RoXoN6IsH+R9rR99JO5cNPBpnjowYdmRJDardHixCqBWQmK1ogsianc6suvTkL05KYUiWqT0MRAOINWpW6sJrghaMZJUjyuUSgtGAdy6Sf1tnRMFgso7nblCGBTiKoVtkbi+iEMp1gJKmpVTyNylEqFGwXNMiJYmn6klFgrPgQsqmj6Y2NpZDE8G4tNTAkjwJD4l4+60SCJnmovxCp05exNKDIDirUr6SmBmttWOBlXncVlAylD8GHliByK3TJs6RNKaTpysCPkdjH7RguO2jGjrvtanlukRebmv7oYoaQNOTK2aBKXYf2IlIihJcKhrgYm28ZqNHcn2JCVcghEqxLShUkK0owAjiuRLOo04cDSM6Jf9QqhlE7I+mMgYmMP8j7QnpwNK8rRTaxZsKiEP8D6ZCO6BS5IjH9xVCGhW0jAhlpKBqdBDgJNndDHAlhTs2iDegXZ67QuCppE7ZZbDGx21d0+0SVLRT0nRTbhQdhEj/E+mSAE/SSbLoicM3ewoL6EpEpk8iZK4Ev4Q9MDEJp86t7EB6nOilx7irnQTY50ghjYhggN7EyKhobdIdh7HmN9LhlT4UJoSabhVhlXKWSyHOgsicqBom3kgTQ0fKqhws43X0YksPZuGJbpcn4CEGxjbCUE2cqsVQhtVwA+LTHio2ko5Q1bi2bjcJkMSQzSge8jdJsxEDgQ5gS6JFLBLARr3e69yvrmUeI3JKC51/gqj3xHQwd0f38lbpFwmja/hmDjaYhaiwXEpTLUV4YqhZuROFSSFhD6sOQlbl2bkkiolb8CETKVRgBRA5hCTXQrrfcnqciKy3IC/M8jJ7/knv+R/7TysZEZIqpLh9opEm5KHJV5lR+w8DryYRyY0ngSwrF2FXDmMgV4lCRcVCnyxc71jXgCavMQmyYY2UekVWPstwzpdoaEVVHoh2ikVV8SMf4COWBrMhdtDsydSXTDzPlh87HBRpAFvlPkpn+R+j/df6Gou6k2MFol/wY50yaPCESWSuZJVqCuNZKSZLFNErVCiJzkhxyWQnJ4aw89SanTSWnJBBCBuNGrpP2L17FBeF2eGRGlEl0dUeCpZ8GbGn1ws1YhEaIrcsYkedXTCTyDCEpaRiTkSyRkwVJE2IbMzN0KDUivVicEkiY/Q0RpE0OwhyjMITmu5xY8J6oxOkV7PtorCY/QpJWLR3j6Qwiw1yXC7i31uLVEDJGyTJIgtFwFcaLCDYhCiSQpIkaZPo3yNkuV8lXgmYsf6B/Un+of7YgimFREilDRaU2qGN49euKNSQVCVwcgIBQfvGxmSP1DZ+KLJocs4tKYf8wOPAM34o8CukZLdF/XgoLSCIMaoZjVaTPUmjJuIyXsSSXHpOB3MkcH/2gAMAwEAAgADAAAAENu/5C/YAEkqqfX7WbQQlFIGxTQSaSb333bnkEDtJHu/RkkslHQorEaPLiQL45JeVkaaqtgMlLSjdLXP55StqUusoSpkJUePSxIxDtOmucfezqUrurZ7MD5PKzHj3MbP1WoScR7X+bIMBP8Avzh/37Umo42fsisUXsDNyX1pCyfIrmtyCFUIxLO/pPuivnbKWjQjao5aFrvXrABKnZGmwShWT76N/CjZurrFpWkzxtO7s6FBuSS+U03Wtm9hjul/bPLAlMJqpC4llT8K6uX3MNXDIMk4rv2MzAllXFT5snOSecFYilkuRPlxTztZQSC6+4AM5m/AS+2/cvYyXCXx7+c/lpQ+0k1aTpjxejUZZIn3/QywWjYsSaOaLQtD1Z29s6+xfuQivPh9YNLuFk9xZKxNMBzYI8Uvt5t0ksu3zxIlHg36CQuEXPGkh+qpJlklpe3ZwiuOIm2kS719jALUhdCXvBqnu18NW3PkrSdgfU4NQXEJ2mDfVS+ubFjPG35PTkBGx/R1JDArWpslg7H+TtWsL9dVMM813f7SZA0GHG+NF5rOdcAhNRGAxpDhWhSaRuNMzpNI+1Tyc7vEztIkSfcia/y05SqsX/WgXtLQXSZZDiYAVRuueWucYMyWkiJdDPQ/jxPKE++HXW7eSbYmL991Ju5E2cXBJD4DrjhC4gGYirU4d7vdH5raODV/gLFW4Uy/wLFl7d+Mq2OrgiMWFiKKysllMDbOImVWHWcUiqO1wFtNRITOyzsK5Pzj/aCzao1VKAvivXn4N1vhjwFkI5FXjO0szfgSzp2pYMl4sZjmluu+kIDTLxP+FOwB6BvTpuk+FtFz8KQOPs5/ZtCZeM+n2J49Yrdm83OILJE80BGoHPAJ97FDnxwJ8TfnL6qjHauuD0aSpHTMwMSYT2nbROQl762XPCxJLm5HMpR1kjix6WYXZ7xj+T68hXBKWh5kufwAbyqhFZ2bLYC3uCAHthSBqqu3LBDJkpQX55iP2QR8R8mfVbJYV0Pvv/tuAS0n70Ag4SZbbbZJLJZZLLJLJISX/8QAIhEAAwADAQEBAQEBAQEBAAAAAAERECExIEFRMGFxQKHR/9oACAEDAQE/EBMz/I/wxX4AsssooooooooTspFllllFFfpX6WUX+ll/pX6MyXPV86xfN8X3S4WE/Fx/e+b/ADTxfJxhZgkTwsTyh/xXlebj+EJheZ5WJ/NeDjMgi30/2P8AcX6n+5/of6C/YaPombo2X0bjH0aE4Zv6Pgf6H+xq6V+if9KKExRXSsehCfi4WEdhFO4paU0LRHBPuNRYUcG3weLi4os/PCvEmuENuXxSl/D9mQbRDZQlEuDXQgho0N4GQhBLKwhi+tUZ6lKUok20XbuxKHqHJhRMELQ2sH0J2ba0N8Y0n0+qNrCwkQmGhjYrxcPBw/wafBoouDfTErf8wm3FCw6HfRCkJTHT6o+4gjVwheNeLjNpJ+i7JDd9HtoZP/p/+iMaDwaDTfPK9dL7Q2Tglmix89MjjLSxK+GIgSLq/wDgmba+FB1VRulokOtW/isrCB+AxL4g8q8DRZSyazbFa4NO7HTr9LZcP+tw3oZw7iYmdPwcZeF+7QggasExrLhsVDxdzO8I3i0rWPmBfzRc8bAHlsK/RBdJmSTaO8x9ENfhX0TqOMcCQ0c46ZmILnxlcy3KxM0KOm3BL9FUWGLhSeOCobKhKIVCZNFLpbwSnmvnXg4Fh2oShBHwUC2JaITF/jfHwRbCvG8IgvBPGjnPHkY06fQ/K4UXi4XlYQnYaHVFrT0Hp8Y6Z4wvJNaFncS3EsM+HBaXWHaMetl+YTRBIfDk0dF+wmNW3jsPycPAtqFZF/0NvC6JCUFUNVCv0a3hKP8AAkNXL4S1C+gqR/oPGjF8COFns2mTpH2kVBJ6LfleUPh2KQhCHDJ5OF4oJvg+iG6qhroLyvD8XL4N7EfWRejhdGyGc+jhYR2LCfRvYiVIXB5scw12IQv40hWg1dZ/sKQcF8iaMgjtZZBrRi4MmGqWicWPousXWL6Jr6QaEfMENGT2bE01CrXwQz0ORMLtY5iYlzxsglqCTJuiW6R2iUZL0WXwSdE34dkE31im7RaUoux+Tln5F4QLnpLKJ4WGNA3QUejd9KxJvgyg/wCBfGFs2M6Fz0spj9rR8CHsVJiVBFqj4Ma8nGEfA8JlOhcGTEEs7F5ZR6DGwaoOnTd0J5r2aER0/QLC8PglSDWBcxMXF9UeGy4QEuoZUbKMSiRwWmlUMo9oxf7P88DBYSwVIX4G2FCWjo898LCoa+CQ1dkNlGQm3Cn0QbgPhgQ23w+jCU15OMUlD0tC9MShNnYuCfhYYssEnB6Q/wDBJyIWhuaGab6NyURqRxMTfEKmtk3k4zEHwW0R1WiqOxc/jR6fgUtmkOGQN/hwv0i3CIrUMfSig2t2M/5Ep/ADVBJOhkwlqDA7FwaF6hckKinwWg5EzQuiG+gqSZlMZB7Y8lWhq+hfQb9ZfgsXiRwy8jRRBOUOE2xmq4dC5/B2axA+wT8GWjYt+f6cxSX7QvVwaI3+kiHNsqaG01fwSicF4H0ytg/ZkErwbNs6FzEITCwmJJo0Fn+UJWgknBDXRmyjKi2xmHrBidQdoxNKqXM9M8Mx0Zo+CpKG1aYp0hwzj+KNCbVihj27aKaF8E/0T1CHVVwqNh1h9sI6CEcsUQSglD3FrUQgkIWm/wCJf6LY4tFxCFHRYiGyYJQaRmw0j6WbtheDkLZ3hqoT6Jtqht9ixWzXPpRe0JiYx8GQ10Mb/DXENa4zpi7p06EEvByw8CRiWhI8LWy7okGN/Kla6cVCNsMq7E8LFss2UbYojt5kmavY3EytqxDaG/gpghqQn/FGxIoI+kTJqmzhCtD2THTCO2Vxf4JmxITL8WHoNbokcfiE9LsJSM3bPwK9H0fcsh2wvEuuF0ekLUYqkJYUEqBH/RG0Y1hZRM3CpuBqvwvtCUQSEiBqC7E8i3BHcCt5bDaW0LSk1XR60yi/iIf1DUUQS8dP2Dw1H0iRtCagsOkXUWm5+kWmPeD/AKwRBCiHlI2NVmXjpnp4GQqj+iQJcghlh05wWUYyKmhMTFsdm29cFrEIMa0KSgonlds9MIaZPEiYyiQRwWEsTG1hCZfQotD32NgsTPviQyw3Z56ejg1QTWKrQ8JlOmxLEJqFkXSLZDo4RjduMC2izDiYSZQ0/wAFa2Wenol6JGqGQjojCFQoVDg0WNQbm2I3sU0FJpwSMXsGmRm/0Zx4uE8poaIdPAxTgxWUZM0TRSob4RkEtDJNjT2DMNRfEX6Rof4xNsatrZIJ6wmVlKzQNsVOn8BNopqCeFKb+FBDcN3Q229j/wAO9sa7o/2KVoSujVcEe0KpwSIyMjIxLCO2Wg77vjo3Fs2++Cd54RcJl9GtJiyE77I6eC+15Q+il+Vi4ZF6EXZIlX9wv/imYrfcwvElKMgqKir9Kv0q/Soq/Soq/SoqKioqKiCCP0ggj9IKioqKioqKioqE0QKkX/vv8f/EACERAAMAAwADAQEBAQEAAAAAAAABERAhMSBBYVEwcUCh/9oACAECAQE/EBq6z6H2PsfQ+59T6n2/nQAENImfzqqqpJJJehPOe3jCHsWd4hCExMLEJ5QmUTwO3lfKZS8UvJeMxPG7eNKUXjfFoS/i6LKH4ybZXimJ4eJm+LEXK8oTxumEXLR8z4i/Af4nxF+J8z5FPQhqDz4L8D1An0JehC9CjYfA+R8Cfwj8IRA0EhBAkLJ4HYWOWFlYhDg3oy5jYQNuiT2J5hMsRBC8wffPIhMISz+BoDQvktsRqxJsbohy7iEyieG5ieCHvku+EciEwhomxSROC2psGhD2/grpDd6IUEtHVI0qCKQM4K6YoIp0bEy4TE9wTyHXwFivYTPY0ebM0mhVNCaSIkK8czFSpD10iX1HNha2igLgij2Jaw3heedBYhQwepsQmjRsWOO+MewJFi6b/gsc2R0xI1ovkvNOmVsDYv2hzsVemKioifbYkL2ISJD/AHyWVlawK5scReKzvwE2y0oqJIqh0JyyJ1hf1mOjqRwRcJ+fdMpRwGN/0ToSbBdk1wibg94Idwl6EjTKIL1JCUqFY4cODoX2hqOM68pebdsLCpoa3SHlrQ3K9l7uOiKBNSeEvYaSVTENst0cjyImH2yTv8VN4ZY7ZUoNb2Jiov4XHT2dGrCVl7imE70UcEhmwQ4v0h0WwhROoUU68KYQnlu2XGiXNjZOM0Rw0KlseOkxS+U8OiakX4IYg1i0/FfgdMQ74R8BJ0Rwdx4RpqjU74Kq/wCHSH/8CY6JPuy4uOXldc9Soe8xEodR4Q0m1WVVGSRx6G/wImzFTexVahRMOf6KXFSjZ0bODf1EvRC4hIixy8l1z1/0enSKQVvWhKaOo+4Q94NpN9H7BD0/AQmT94EiOC0mnwYEq2mW7x0JlSECmL8hcxugl43TEOxKhNtGR1FnR64+5XhGxJjVoTcWIJCGdHAgi4vo5F8ZNhY7FGkz0MSkMWbHsXkkSPQjT810SIv0bekX+Cp8GhM6QvG6Z7ZaSQ1jNumPosq6Qk2hZMMvmuna/wAxaFTSF+Y8XAS8ZnaLjtlYgzH3KJBq2aA9qKbm6P2RLJgf+AonhdPXDXsanR+xkCxbprzm45Zzw6j7jgirQ26cQbNohQNHAkdBDSUIW0MWF0Wwq/RtTAtuDvofNE/KFjl4me4+vxQ8sQlliZ1ifRE3wSPQklwqXRDKheP2Fjl4ehQR2H1izBIeWheKENLPYJloZtFgNetnvQvFdBDOWLEmOg+izSjEKvQ2nxeKTYqN+xdFFEJm6QUHJsi0mhE1UV2vE64pyz2XFO4+vMIImFiiIcVZaX8G2K4RxAp4QUeK4xPZJDb8O78BN8tExwV7EuO4+nBF8UPCWxsZvRphTRtoSLgm9g9t6GftHFYkPQrS+N0xKIWCVdGeqGpxj1HQ6JlYgvBusYui/S72bYhN3w0Z0YBcBDbGLQcLxu2H2i6LRuUdvWh2Og+v+KLXB/iITRyD/RbOFfs1asRSIUdgv/Y9vjdcI1QaacFaoQ3B0On5sp6pF+jQ2kNpoiWmJJ8Pwhoo/wAkHR7OiGwniNNjQ/EbfO1RBT2RbJITt7Oh08J4RdjUjI8HQn/BNufcCpdGNhnR/iCf0huy/CASjHYI52yPXgrvn3Epkj2JLYkfDodPCL4tCbSIaTQ7SbLu2QTg2aKNxCIyejNUOplhG6Q1IbrZPH64gn64KNIIC0Dv+LQysmtHwQLWsSjQaXTIUfcJMKCJJh+H3xC2dNWLehsEpYbN9/xUOifsSbH0PPehqypVGlkkcjPVnMRw8vvlHGWUtGg1YTqhP4MrSiK305Et7GjgT9jVMWwIbQsC0csN+B3woJQfR8KLeDVRP4PEE1UbOMjYkQiZEg8WTYmISF1Eh+D1EL7GrwlaNXCix2Ue1/LozYno6ekV+x3DUpDEiExHPDXgvtiDGUotnYtbYt9JMQkN3wT8kzQVtUQaGsG+i4LCKNr5PTCGNKN1/g9vCGOiWmPaqFmCWHhYifR1KGvoJoHjFLgnRtS4XO8EM1CTKE9FWj2iXw0yvBm7o1MCfgjkLxuosPp7p6DUwiHRExy4O1GP0JGqSUQMtkOiy1SYswkd8OXlJsIpo0ehbousLFhaNWWO+MeijDhDSX6DXglPYxu/g+KyjjnnmuMpWRcQ3UPwbFhMTNDEaIIHFCN0MUbLsVzLR6ETwefmm5jRkEIQhCZpSavg102Ym09CtGMtNZ0FQmVCRexJ+jp655564Tn4DogjehQgj9HGEiMjGyEzcHWjg/UdJSQfoE01URfhDazs2JlKdxz8DoaRELB9Q89SdSLBMrEYhaCmO98OQK6w9iCIj9Iv0i/RpL2JBk+HPwVlNfpV+l6Kv01+mv0q/SsoQwl0jRIkNCTCP8lEeGaIQJ9hl+E/gkIEhA3c8srSheUzwQVuISJro9dyvCCra8A0kT68+fgwmV/DkDtff4oW1scqQn/BuS/jqWYT+KJ/KpPO+U5wPkfI+B8j4HyPkfI+R8j5HyPkfI+R8j4HyPgfA+B8D4HyPkfI+R8j5HyPkfI+R8hqp/1n/X//xAAmEAEAAgICAQQCAwEBAAAAAAABABEhMUFRYXGBkaGx8MHR4fEQ/9oACAEBAAE/EGl5SGltodZ5zA+acIH7P7h/nn9xE4v13BrUfpzLGnx/9Iq6/b8x9yxlxQWBgkuWZ2D9vMQ1Sv35lmKfXP8AcLNd/ruOSgfrzOAc8ww13dJb3d++oO4R3/iF2Qr98RBn2v8AMy1PvjCsPfiD1vrhFV88OAf9oEU9e0F78yEjSZzUBXnKkA5TExnKZisrWJWH2irOGwqCtEpgxFcxkBQeYHK6uAVntUERMWTJYVUyqIUpQWAqio5ngnZiwAttfEbicMPHFQrXhAOZkEa8QEzxARACBRr0lbq050TyzDNZCzhxqAXR1EF1rxEy0fUCatuZoT6hM6B2xqWjLC6NlBtghVpgsjMq1R8SFjDheJgB53H9AFw7yzVIAJWT0gZdXBU3qADvvqZoBsL1AWt1xBmrxKIVzmdkaEI9Agu+PaZMuO5TdLmV/wCF8BBujiaYv1gSppqo2KOYwKL4hEySm/FaiUPU5lFPUHFLJfnVKqpWVPUvVazhhp27FzL0dsemfeNzLYutXbF255YesXNhiNOz1Lwi5jlq4GqahyYHzM5lwughATUoO45CFE1CnBHWDmV0VbzAbhDKwyOIYT7Y5GX1HU3857iAFpzFC8muZgCcDE04XvEY82zArGW/XK8OZsvxEICDHnlKd4qFUsFgu7MEAmgpfxNErEsCow8QgJG7mCYYQvcAc9SxIYN59Zea2TUGyBQ1LzKR/Ere5RHDKSM4YUUhjrBSstwFcAhKcRFlnzBw1lIG5zNRxDb6HAIVwgzZq4yoErBYuAObjym78iBHm84zD8qNef1PMCUez/ZND971lBz/ALdx7+T+6GaB/fcZUQAbHt3E4x/pzEhpsM3hzBQFAVcfcGQPwj83Lwej/dAKJbSo+Zmyn7dxfu/TmL23r/ZLf3vuCjf6HmCN2e/+4vdl6OL5+/K/7cEPD5zP/NjGxGd9ICDReIBHQ8cQgBe794GBx3HvStG+AIy8+YiDW5kiZ/jRLa/iJC/qAHUAXWZ4EpZwMzLaKhYjVSh5lQ0TjZfcQO8KyxsViBSCp25XuMimnBRfCc4H3LoOFBl6v9Te3Ly5iGZITqSAVqI2Sn9Sg694Bbmf5nZMun+OF1L6V5gS3to8osr7mi+riQWqAetHShb3A7iMN1ILZUsFvU6TwgY9ZpnmCICq1XcfMEqrdP8Akb2J8t0d7Zy664/3DyugteQtQeVCZlXdZ+KH3KUuBshuriqFllCWYzcAFGyOyzIWyqHIMZVb0Hd3SU2eChg2+1A38N5XhgubKgntNsTB+ZSpFVyz3jt6qWgxYUFjLd+ZdhO/0jlRMqzMZTmz6ptybnuYh+AbfWr8BLNytzIfmUD7bPpH5ltqQMVFpax3BSU/ExucmgvV2mKFlIHwQnDX8w/NjLNk5IXa6ji9A/FEZILRY9Zp8NHNuIPD969ryxKylFxo0ChthdIh7Lw8IV/koB3qXFlyr4KIpTJaw1Y2NcygxLAZDow5MPJN/wBAg46Tk8MaOm0217XJ4cnkzKkorIwYzcwx9wXCFY5qZ7jeS47Wy+d0S5uCRgQtxFd/9kArJvmCotKZVetq+qgC49ou5XTn+CXtgrN0vE7sYpb73L5qMlFSx8kpZo0+kwkDuuEaqplD00oPDBjmpvr++JmBsLV59f0zuoJY1A0EMizBlmhvu1hLzPl7RhBt6sqPcmi9HA+8WJ1gaPRYa8OIDTZWWDQMB1AJZE53+ns8xg4oHvQ67ONmNKkkSxOZasmY6xQRMJuUOS55XcQudy6FVNIhxQFHmCjDFU6KBldblqGKm0hzK5XLKCkglw29d5wwpQDl6PmGrEi2z7u4jYeAWv1lvFGBTB7QQvZ6F3+YaWGw2+jHZQrsL4OX+o16099OzXHu6RKBUEB2wzKVJeaDMDeKgbZTuDD/AOXsH5PJ5iQLYX30ftx0JFawjhHpIUZGHKuIK+YFzBuGjvxHd5JU0XmgkOmuaNRYqXP85vy7lqdzMmbWniRp5mQxXFNse8ZmZY/I9JSNTNi0FkkJDAQhIAJKBeK9GUnRlQCc2nh3AgaiaXC0sGO09YE06cfQPly+kJniAjggYzuC1XMHzVRW3iHcW7jWpSo1U7hcAAhSJYkXB60fOb9x8VEGA738L+SQOM6Agt1p8MQ6+IqEqYyZi5SgZd1wEbqouLUotxZH3xhV3ww2majmSBqEhs985nOUT0V4tUhMMAA9XxDqPHI/4mD3wqlv3uOoyItNcW/Mvy4dQUjvwSqlGS8SzuKsprn/AMns1MC6hiWjCeVw1LjKSVUTfc5BoMNckVLTHaNrO+X5hRVg3QeWZa+ZrmNmoyldrglyMygASUcBxk0dJvqewgim8znvFywyqWvqXWiHE4zFXVJFi0sEr4t+ZnKDiimCQphU+8bGMiqjygvyj8R5j1kRlppzUbWNbbXw3yPfrBvtK03KWsrzC0YXzUbjP4xE0KNJ9xQkxC28gGLq5dscFKKs49eriIDLQY+C28oRAqgNrGfZDzjt3wAyvrD6zNxBuB1Zv1ingUtatF8R44Aco1R1hzL+9q2eV+vcOgrXB5gtfA/ZDZMH8qNqFMaLB1MF6nA7QdVc01NSDPUsvUgwagW2KCWiWTFqip71+SCg85VoPVhQoWiwW7jF2vC/gIU8A00WdkXwLbs5u3Ub0r8S4/2tHtLyuERfoeenM0ZVvaF0kHhzKddi5TZaDqE1Zi/jyMVQLaBYEoXF5v2htI0h/k9rIBBUMiNju6mDFk/ZX1UDFy+CJE4HL5qveWCpruqwOBdLNIKPsgzHgtfV3jxazHtvMsH/AHTEbx1OlhHanEvXc2cxV66G2aSuma66az1LQzZt0QtauOInIuOGPiAE8F+Yg+MVu0fyQAq2i7a1vUIA1qCfm7jlLsPpu/iEGP5W1hhr9TEQgCxWuUsOsDY4CP3GEZS1mYp9lp6xxGlDmBis2Kcx3uKVJwtOtV8sprDJZCqBtK/MrAa1qidfOuonBV/FS80FwOobGy4vpNN1eIcImVv1sA9bhtFVFFkV5Si/eGUChNxuqHrT81URDQ5JhVKWtBcZXDqKsb9xWUKXlFQ8W/KZWrmVZuBxbqXSLPmVfA4BVzTmXUqpkixeZiiBbrY6YFKBR5hYpgexMja/AxdCgBkX8Qk7HLW3KTIxLbt94Fa+JvxlizcHLT7ItZr8ETtWwWMyVS6AX7QmhBNzSkgTdi5usw3J3SFmoFgVsC/mUA1cqW2Y3RUrhEwlWMooFHUBy8TLJy/ErVUGH6lmQOeVLfQ3HBZXoV/iODvUvwjgy5Je3NrG1s3cSic4e4UvVt2Tw+sGR5l67KGLgbPmEYdkjDEUMi0FHWoXSlRT4JZ7dNX3DZ9kg/Q4hREEQ1hq1wF4uKSkYt0ZteIDeoZs/ibXDBieabETjIMpwZPud4lwU3Fw1dS8sdR+E0PH4oLJwyC9xIPO/wA0OOMSmtNuj5YiIhMNfPpGZ6sBQgpa9ZxvnEX7ekKnFKvGJoFZzL0+ycYvhIYG91BziJ0SHIIvEXBwg6yV9y3C2Y8x2W13OP8Atcy/WwQ1/wCFioiAMsLzaMzZfTWslRXFKntBpVvI0fMq8ij5gxQsUagxzVF1/EtQJ8ligJXTdwHdxZ8guslB7x1nm4iba5FZvfECXhzM23UaDg8blC505i6HOWnNYPmZoVXgXWQicTLoexDViq8lfEBgKLE58y8uYwZ/QYbGYa3JyZgTFhRTOmy/uD1q0CFn1DDxsnK/uoLC6r0tD6izUMy8Pwl65xxKIDDXp5mx4zLphMmtsNA8TFCYusDTtMGzwBMOJlAQFC7ImPA8MbFvk1/GlmgmgKM1sxwz1St1hcnMVvneSKiLXXp1lDS2Tf7PQ117QCYCilui3KU0vvXEW2GBE3Tpe344iBmKGDGngOdyoBMEMeKe9EgoKybvPiKL/C2ZdNZOfmUbANV96AdHcs/pIyLh2oPIWS4bIDmgo/Eotm5uvwsupsxKF017RZ54ADfZiGKQ9BnDGqSo3DdahtkcC7hW27hfrsIZdRYuVeiVz4liF5IslaiwothDMMM0np8ZMIcjH4qmTvxCYdCdxRSNlZhnAZz1h3n/ABQMsA95aYvzHEMLAPVjHywECDCB6WdPcSH/AASxeK2+gsvM0PSF1nqBW9TSBsywlNDGSb/1S4csvuhlkuIGmLltxHK7xMTOxJdC5YL4QHpCbVuJQS8cQXTYUQxPoQdvMzepqM8yzXh2MS1ZL8o5PYQ6xmEklvnu4cyf8UKlN4lU7hv/AMx6QYPJgIlqGVxjNei68CyrYug2mDqwR6roQw2KMq3XHotClsGe8NMGUESqbjnUF8RUFf8AVDUoETI2wHjcNqvnL/MFZbXgRr1L1/rA9fZn4jgFUiUjGRjzC8xLpuWLsoJ7OIC6RjlsDwqAneZtx/ZMJzqZi3g8kqSUJzE/uY4uD4G+PWfsvCb8TH1PuVvgzOFQtBWSt8zcKaaVwPK0e8QWqK4FFcAa4uLS+kMM1UHROL4l0PczBu2VhqcZxKIeL6ZXQz/FHPuIDU1Lp7OyORllZzNbAK333BrZVGBCl+tfklKdzXLDMzMt1NjJQT9MxVm4jCFBxtGz/MUCekIs72gROyaz/wCXVmH8QQJY09eox4YlLCGIKu4Gw3A9Sz3iG7aCYI+iZBabiLAAX037QYM5So2yU8lCYfbktG6Lo3mBLYSvAtLnl+oeM8sDBgAHO6iiGT3tYTo41M6gxYdKulcVw+YBNlMCMblszT9qYBYLKk9IggR46lJyQMYik94CbeC4wICaJXzMIJdLd5TxgPaG8G4pES3MH/y5N3DAj6weEZslHqWpaNe0u9kGlxQ0G2DetTCCvJECSZqfqELqCk3BKjnppFQPBb4v3jof4xy1oWjgiXwkc6CiFI/MqwiYg6s4OC8tQNW00sd3bV51VY3LiVKAwAjpcaiNYtKALKS9dwM2C31j84MQGpAIIjV4HHCBAGAoOoYuKXRMg/amYd+CCbP7l4hwAKirBEW1vpl6o9FMPV8xhaXYp68MoCAo0jqpYqNUbOntHCrKIwe5O3gmAq7hSQMt24gC/hBy7lhPd9yfEPWpYdy25qps1/eoNDcu7gq//C2K5ib1MLFpmiUNxLYGZuZGJRioBDOS+mU+RhhtmWaq6LRCWIxFO67/ADKJ7hJ9iijgeAFy4oLQNZV8keMszzZgVzYHU9XDirBPJT9QOjgmBq7ZYyD/AGkogXnic8sKfRmHLxw/2eJwsMeZnb3GphMXDVmfEKrrqFnawzBOi7rBFxuYbj4nLEdjqUZP+DEDK+xlKywSG5RKJAbkdOGeuQhrcBEA2cXACaBQLeVl66FqZe/HvHiRnnUysNOF4muXAzVcUjpa9wK3yiCWJ3P+0WTYCw36wLJTFBUp1/FH+ZeW8QcOYI1FJcoGFHKyWBnQ4vW8RrFM5AhAwoCtnD4JYk8hu8UBWNivtNPWcOZZWJZzc7EdBlYcWp0UL7QYUqy18cRFTGDaX5eIUBQtBdK44Ir0XDc/iuCJz5A0HU4iCUncVJ6TSeRpO+JlEGxQwqnJjZjwQSqHFdOpXToh2rmCjrEXIupqrqVBRvJppyLmR2lg+6PkmbmpcLVmYsza++M0ePxTZjHULze5ThiJWcw1BTOYa3UyriFU2AX9nx5lUBmX9RCmppmPEBYWg9rj0l7LpQu9cMZgdwGH1UVZ4yE1hghmXqktg8XtrxH5mwpRxTzx7x9rG1LFN29f7AAJWDfmHq0KHi5dW9qyjKVWdLbGhOA0cr69RYzC2l9KE4CMsyY4m08YmRa1NAAari5L5Gzm4UFudwiIChYtODlNg8BeAJzhcDBsJ9Rfv8IsJr+KFNRMxoeYOJdRcZmzNwfaNhayElFVXuGNRnl28r6HMuO5ORdtvg3AQBSxddiYRoFPPvKQRouxOSmxmK1Zkbcuvz8x07UjJAPo1Vgz9+rLFNx/MfUHXk835hvF3Hi6q9XTDYYZKdz3n2nYhbwd/EaUrjceKjmjbbUyFxCwsAZhQKV43KyxqdBuGEtPBu29riJWYoZXky3Gg5j/ALDErVew9SUtiigeNSg6f8UOvn8U0lUajiYDFsxqcZixiPNQ1lxEA1CRELbyhWPNvxFhtCkaGAD6jPLa6M0S+6imxqwODnMMD2T9ruDl5UdtnnqKtAHY19TVdFOYWsBwCoWVOlrbrxBlNCnVGiKWZXu/BFiZTRpHlj7QHDFKu42/snP/AGIuufmO7KiUrZU1iFvqA3lQd4YVR2cks1cNHj9qJjdPu3XncdmRQReTYP8AcLMKy14C47uP40Wr9iOsqW4NrKOZxBMzZXEPWXX9wyy/sik28HzFAm8AOiAvPFcsBGVjbxfMDR4RZ0ejUFOEUc2r0ehDWhzOl6qNQPaDYy9UIKNCzKuBCUK47/SNRBdFgXX8PxAzXsc+hGgIilLXoRR2J7Xxf9QcLal9bIcLfGoS3n+CAV2/UwwOIWFFNyCkrdcSpvK+yWLCHZLLr1NShQJQLkeaglhcheaYA0MNraHL6wK6gWhKa8rHXh/CjNXAiFGIlYGesuBC/aVTbE1AfoG2ihqvX+pYJya1Fjj5ggAllC34i8WNCraa3BjII1A9zhganFXQovn0l9A2BWv6g8cFMgPnUsCLxZe0Mg0LaINcZnPOUEwdPHELyUtvs7ZxiMo+91HEG3JrmpeadXeL36ytAD3skBEqqw9wJSLSE9Iuv/AFkyqqgC28PEUBg9IcA2iLrcCgiwoW9HVQLorvllBYNsH5ipu5MLOuZZeKl2SpQsCiWdRVC4qwDAW+xziXlD40bNqrm8MuVi8qGvzQn3F+TwdOM6WHlYyJR9QqWeJabADk7lR1mZUdieY6gqPkeS+NxKcBgnDjCWH3mKHm7BRr2nBU0lnGCga6YTDgzZQ9jH1Dwcg0B1K+1mRzUdpwB7jKhzEDgY+4P68TP1rUznsSUz9wmbnYfSCs5CZ+USmXhtwBchiZuuohpj+CGBAjaZYh2gV1OelikyaDjHpP2/c0eqfbEpxBhTiC33LOFmuZsgshFKOAFOTmDY2wAUrr2hyjXgAU0rrUoJO8OLjebziNYnlMK8VGSusMU5DiETYjJdLA25tWiw6p+oMOezYmQO8VmNVaFjeqYpg0n3HtuPuP7uUH2hiCrgsvFJDBrnDasqQuKAcEFHtMKUJkj2uKzT6x2hwJxBMjIauIbAtXFStpzdVk5TGXBKw9O/rfUaho0unv1DVDeSWZqIYuwzor+YbU8zjMBY8PvlhlajucQ7him56wZhGGjWpoCB5O00dV8zIuhzbYp9Co0+NVVY/K+sqQYFVW1o7lieU4jyfu5fqld2ECWwapW4LnhRGRg5uo7dLQlN/cdLXnDCBq7PzEFBiwfiUtBSILw7mAy77D3lHcwKOIrFvzwrFGJpGj0Xtfs+WICsDEZ4MwywomnXkmDgYkckS4S7441/soeVtNd/UBq+VL6stz6y7xNniC16QW8ziXUTzK0soNpnzXEZ4gZlpojahOTa2wZNUJ9hnHgasiqkXBdq+UswQoVbKbV5mEEqL/ADFUreIz4jh6RlKTk/mDMwBF/wCP7gM4bDx6R1uRLIgHvHDxMddPNC4rmPDmPzn9kAOPxK63qKRsbetqmZaIHEsSWzXBt/4SqjqrgLmj/EakRQp6L+ZbLEN1TFnitreYb3eX6oh91LsKHqhjEs5zF4mI3ChmDMveI+4mRDtVwIoBqVTXgtPmBiYw01VerNRUVXwCrceRT8HUWCcjTJXE0IwV7/8AIYKFWuQ6DeYd51QQ9DGSjFvB0ES/WEpeH5/4y7y2orJwgF3FVzf8EMzUpdxGHXR5Y7wkVo3eYWgWcpxlGnS1VcccZUa9YQ/HmOtZdPiINMB9/wDjDcN1bHELjJQv41KqsF+ldfxBdOeGEGtyu4Gb/wDA0eZdI5+IFZ+ZznU1d+0w/wB1Jw037wwF3A6R2Mxw0q4S036iFx5IcS0PMP6XJYmT4Fu3FfxGbKTAJdK4Vp+475sUvV4+poIT9nwhguJYF0fEVhT/ALMUbcwZ4R6Lz9HT7mCj5mPV9XYF8NRAVOAl/KG3gsJVEzW+2A+mHs4hTpjSjC6WujEKsbLI9LFkMKj4mz3NLZuBxCCs3LLwQb4x/wCYK1ha3WJa6HtC2S9uub3LSlu7LZ7QSuC7ls0KpV5ycsoIWNcrvPcrqRxx7MpJEYoRQcGZtvTEdy8ucygauWIqp7/+ANNZ9Ycm0PXlgSrmMHpWo8od5ZAGtCS5oErlCA4hygEBWGWe4+0eBDqvnJEUJhDjweYvoE08ntl+6u1qjogYroFM0QsUHDLOtYbj9RwDEhbUMuGYZlCKBLUKOMR2+TUz234lM1l3IPTOwhgbWekIRSGsJddY2A4GNBMVlb3m/aXG20Nxaitv4l6VLYVRzMUXTINdw6SL2bsPzA2qa5wB0nyxugsh41L9kyFOiPp5YIudb5a0NvtD5+p335l4u4r3htK16R2KbKUH+sTI0iz58kpoXD9w0SkZsxqVxMWmZs2OYL3Nm4YGsTXhXUExaxdeYdgK8Fdh6RFQwlpw4T2/ENtrYtF7OPWL1YFrjFpEqyqhxmJvJHbOotkdLrKBZoupR7PLAAC7L8/1AWtPePHtA0HlcAB+T7mFjOZViEGA/r8TI59xxyKyeY7bsCOrODawdVDtGNwSuFX5mduWoTdMdjaHJ/Mz5ps6gmXyQ0x6KGO6z1/5WYG7lN5LIGKGazLl0wbBmtxmGmHp/kpbFRlh/P4zkhJKNu/WVsTMvLq+34Q0OIrV8QPbs+2IFrmXqqX6VAFQhpvqlKo3D7DmMAx4PmAGkaSw2h4Fag4Dvi5YEK7MwuedXmI0A2U3HAbZCjtR+6jxVdAx/qWLSd11GOQxwymX7NXFUxEyxp1FaiCworYwjZ7SrpfSF8x4Ski2XIF05UfyS1oVA66+oC4tNyLlcXLfip6ldwO81DipUq3ITG0uYbYAxz/PGAi58TIUx4csXrn/AH1mNxmcyHPxsL5FH6+5XDsZoAP+2Ha48hr2SqNYuaObOYGj1Cw3FTsgjAlgUuAsuXJoLHPR/iK7KEtRfJKmpRdkANLunmYmKGnxCGruXoiiWvrOggEFkLFykVqKwviUwCVR0OvqAXFw7cvrx7xZ+7fmVCptfvFizUwZ1AHEJu3qgKNXZ3GZvcYuM0KnmLSk7fHMuPi8VF6v91ChV0FS3LRGuLsYYOIRi7Oe5jOi6t7lAXALmhxAanPmZZ5nN/4Ic4l2QWw1AHxUSWeFyTE3dWdxZ9KJZDh7vg8v0R1UFcAdEWGzvl/mYWN7lWqmniUNVuA6gArb4n4JhsVRLC8xWpbSC8uY1GmWA7mNDBFsUuGkD1PWItzMm8VEolMdBWnvcaDnESLTBt/2hdrlAdg0P1CXItEmUFARXcwIjwwFLPVqOVCjsjRsmZTZL3UqYAk6PxDgo+Y1NVUY57/ELHabaovKvX5ghFbQ1W79f6luLco5LmDaym4KwsaipDeDcSwLmWOSCygPQqbCuPzKeaiTkMuAsgKt0vdRozW5YCwji9R3kR+r+IKFVZG7c14ljlaRCY3/ABRg/wCYbTeLcHy/1MLUXifp3FHKMnOL1CJOE3E2exBofJ+7jlQtPYfxMuw4NfcUFWNNkro318souPWgGh3fvuAZHtzJTyomxEqB5PRhAq33E4K3NwERjCt7B0TEuweR4IlIBcOp0pvDzFVEOYobtf0jbuwEFhi8oj54WswVpyxUgl16IQBtt9CMOfMTp/aDNAdgwKqMUkrhPFLB4/tMfINChHqVqFkTbZGUrdZJRytfwy3MOtm3b7i5b0WScDniGaw8tHfmKNZWPKXgia9KOFwn1K4tC6lg9Fy1kz8Q3A+QwiZIgpa3TuFYxmUKXxqMSttwM9QjS1MhPsKOQ+qC2ZhhH+YZtK6ckSHT2S8afKzTpSlv/I5w6jZG0vgDPuRLhwcZ1FZ6usMy5GzeWQqvI9ZjV6tYJod1zBqHbBIIkgz7wyDMtuVVtwdigiwMpZCbzT4jAKNy0OS2N7aG84IajodSugqFTEADJncpcTxniMFa2FuZkvm2ZNhdytr6jiivFp2yCEvYlWdfFy4u9IaM4j5lknEfpb8EXHu/UoWo8QPncEUUNn+uDBkNXD3uZZCOSs+4mb7y4ZBS84gaZO9QYVPV3vFtzo5J3JlsH4io5NK39LIUiwO2fqX1tPV/UBpy7t/Uays8wD3QHZI51tklIbsI1aswKvSMPpiqGHBiDJezDNDGS+f1YbBy/MSKMbJQ5BOLi5VXEBtVb1LFBsgCJWEHL+Yax8x8AvDWpy6DqPPiVF4sOf8AsS0rvPsHHiIEkVFKqrr93Cyhk9JQ3TW8ShAB3KDm5hcwCvVrQ27XeT6ihBBnd1beLhUqhW1PL/UAVaHpZAqCzjogUNHAYPuXVLBR5+69dwqagqgv3mk6cQqlWYXwQXGbG4XsuOlULOIABS2Z4jaMDiWc48cwrjaRud2bg7Qat5iarJzB6KXjG4Nm1+YIJ41xYyzbqbxXlrO7rU0OXVTwCSkAUcTHvMCuX6gXUd23uWLQwxjcXONdR3gKRLsifgsgjpDJWuoOSExXxXY44lu1OD8RUSOjUp5Gh9wMEQYnxMi6IuI0kQthqsxKVa/tliRv5lgEQCUz5q19Z1TIrErLgepa5pn5zMOntdTEbSx1qZrRKOoVog5zDDHE6R3K4fqABwwS2uJUq4JdTkV9ILOcQ6PPEQWtS1i4xjmO2nzM2rOQ9135h0S+4gbuKHauZQVBdRT8wSF09wXQfeJLuCgX7Ql7Qvuv0xFhavWsJV5CUvKjdehGpw9Uv6iiiztntwTs9PWcf3zNp8GUI+jMm8fjMrFNBIvCVzn1JlPxJRv4CZf4ku/nES5q9MTTR0YvgZ6I+ZboVMn0BBjefmkeUu7LxSlT4EGw3r/dES/RZD7giw+yFDb+yExc+mNH8OBH01jDA1K+GFSVgXVu+z7h8s5IAHb61DPfyEPlGyUYrMHLMhmqfEwWPzDHGfMostHMBOr+poNGZhOBYWxDAVEBNUXAp1AotC4BTzBV6c2YhjhcsBXJA03h1FsdrxGzgImnIzOQ7J6FXKZHd1UcUdR2TXE2o+O5cL3xmCopaqaXxqKil+IDEJMNRx6pbp8z/9k=;" vertex="1" parent="1">
          <mxGeometry x="53" y="771" width="292" height="427.29" as="geometry" />
        </mxCell>
        <mxCell id="_dNYfmlN74PMvxJpYnuO-29" value="" style="shape=image;verticalLabelPosition=bottom;labelBackgroundColor=default;verticalAlign=top;aspect=fixed;imageAspect=0;image=data:image/jpeg,/9j/4AAQSkZJRgABAQAAAQABAAD/2wBDAAYEBQYFBAYGBQYHBwYIChAKCgkJChQODwwQFxQYGBcUFhYaHSUfGhsjHBYWICwgIyYnKSopGR8tMC0oMCUoKSj/2wBDAQcHBwoIChMKChMoGhYaKCgoKCgoKCgoKCgoKCgoKCgoKCgoKCgoKCgoKCgoKCgoKCgoKCgoKCgoKCgoKCgoKCj/wgARCAGfASwDAREAAhEBAxEB/8QAGwABAQACAwEAAAAAAAAAAAAAAAECBgMEBQf/xAAZAQEBAQEBAQAAAAAAAAAAAAAAAQIDBAX/2gAMAwEAAhADEAAAAdHKAAAAAUEBCgpTEyBAUhSAApCEKQ9DN2bnstSgoBSrUi0FKWKUhQUFIUoKCS1Nb6Z13pimJsnPe8cOudmZkAAAUgABjLlYLUgQhAACAxWpqnTOl9uWZDZue914dck5KoKCFABSUgYS52AQhSEAFSAIQ1XpnS+3LIhsfPe9cemRmCgpAC0AAABIgBCApCkIQGqbzpfflkDY+e9649KZlAABaQqFQFAEJEKQEAABiQ1XpnS+3LIGxc971x6ZGZQAC0JFFQoJCkQVBEKQAFIQhqnTOl9uWQNi573rj0yOQAACqACFAIQQpEICFBQQhDVOmdL7csyHv8977x6ZHIAUgAqghSAEABIEABQCGINV6Y0rtzyIe/z3v3HpkZlABakWqQpAYgAEiUEUgBQQhDVumdI7csyGwc97/wAemRSgFFACkQvGmR5mpzy9yUQAQIWpFBiAar0xpPbnmYmwc97/AMelMikKUtQAqQ1fefM1nE4q7Eu78t5KIQQApEKQgNV6Z0ntyyIbDz3v3HpTIoALSFAYJ8+7c+ePM1MTml3Hnv286AEAiEABCGq9M6R25ZkNh573/j0GQIUpQQtDjTR+vPztSLEwPXzreuW6oACICAhAap0zpHblmQ2Dnv6Bx6ClAKBQoOlc6n0x7Gda5vPEcFlXfuO/RmgEKRACgxIap0zo/blmQ9/nr6Bx6jIFAqgohXlazr28+9jXHZqe89Gym/8ALp6udUAsQAAgIan0zo/blmQ9XGvpHDrmUAoqgRah0bnxd55Jca82zo2cNfSOHTOWgGRAAAYg1TpnRu3LIHazr6p5+uQKUhaFEWhxJ52p17MjXdZ7a80bXz6UQBQQpAUhial0xpPbnmQ7GdfVvP1yKUEKKsWkKHAnnang7ziezm88vr50JFBSAAoIYmqbzo/flyGB2M6+q+ftmmRRVgUCghQh51z52p3pfM1PVxe9LnLQUAgABDVOmdG7cuQwPRxr6Xw7ZpmClLVIUAgJHHZ0dTE8fWeGuxGz895yikAABAar0xonbnykPZxr6Lw60FKZCqQFIAQ6dnDZ108PeauRtXPfZlFiAAEIQ1bedG78syHsY19H4daUFKUUJFoQHAnXswrw9Z6Gp3Ze/m+7jWctqxAAQpgYxq/TOj9+XIYntY19E4dcgUyALQgKQ61nGnHXj6z5tg9CX1s69LOsooABAQpgavvOi9+XKYns419G4dRQZFKKAGJwWdKzM6Fnhaz2FJkuxY16GdWBQAQEKYmq7zo3flykPYxr6Nw6gZFKKpCgwTqWYmFedZ1bOCuFOVdr577MqKUgoSABDVd50bvyzIe1jX0Xh1hSmQLVBIGNnVqp168+56VdSzjNmxv182qighQDApTE1bedF78uQh7ONfReHUUpSiqAAcScdYJ0rPO1PMs9OXZue85VIFIC0MYFrCNW3nRu/LMHrY19J4dYZFKBVAhQxTjOKuJOGvNs2HGuaWFAKQAUgQxNW3nRu/LkIetnX0jz9RTIoFUQqFISJZidOzuS5rQIApAACAxNW3nR+/LMh62dfSPP1oKZAFoEi0AgCFoiAApACFIDE1bedH78szE9fGvpPDrClKCikUUAiCrAChIAAAEBCGrbzo3flyEPTxr6Vw65AyIUoBaAEgUEAAAAIACAhq286L35cpidvOvonDr6MClBaRSAtIVIpAAAACAAAhDVt50Xvy5CHbzr6Hw6+jFMgQp1p17V5KQAAIAUAAgAAIDE1bedG78uUwO3nX0Lh19OKZEMGuKb6+evUz2h6W/L298aSKQAAAHHLyWAQoBDE1fedF78uQh3M36Dw7ejGRkCHWnXzOfq45u2e51+f19Z5Y8bc93nrjqHIccc5QAACFIWpGBrG86L25clD086+lcOqKZgwXp574y9HPoyZ9jt4PD3jml69dmOzHTrAwNixoUAEKQACsI1fpnRu3LlIelm/S+HZGRRXHN9bPTluevnpbM9cuPXOGRDsx1qhielmigUgABSBiav0zovblyA9PN+lcOtlpQKRaEEeXj19LHep63Xx8muXNAAhjWcSrAAAgMTVt50fvy5Aelm/SuHbJEtAKUlYTXUz16ee/Vz15bn1e3zelqcktMznjzNTtSw7cdeu/mwFIAYmqbzpHflyg9HN+l8OyMikKAcM3Tp578lz5nP1clx6XbwdXWeqdiOpqdmXnjJfL1nlllnv89gACHFGsdM6R35coPRzfpfn7DKrEKAcM6YmE1yXODVTkuOHWLGNDiTkXEGCcy9zNAAVIwNW3nSO/LlKd/N+l8OxMpaCgGDUlzucGuW4kYNZsiFFIAUEBQEgYmrbzo/flylO5m/TuHYmUopQAYrxTfPedqRxTfLcAACFAIBVgQhiavvOkduXJVO7m/TfP2hkZEKUCkYNVMrJHXnXs3kBCkAFIAUgCGJqu86V35cgPQzfpfDtjGRkAUFoDim4Yy895ikBAUhRSBAAYg1XedJ78uQp386+l+frgZFBSgoAIUAAAAgKACAA4zVt50vvy5SHfzfpfn7cZkAUoMSAyBCkAIBEWEi1SAoBiQ1npjTu/LkB3c36bw64SwoIUAxKCCIogBCFJLiZAgskVSRcTXuvPT+/LlKD0s3klpSAoIQAEAJAtQkUUBCAgAIdbU61lCAAtIRKoEAQoFIEpFJVgAAIUAgSqP/xAAwEAAABAMHAwQCAwADAAAAAAAAAQIDBAUREBIVMDEzNBMUQSAhNVAyQAYiIyRCQ//aAAgBAQABBQL6eBh+6ewhsYO2MGbGDNjBmxgzQwdoYM0MHaGDMjB2Rg7IwdkYOwMHYGDsDCGBhEOMJhxhMMMJhxhUOMKhhhUMMLhhhcMMMhhhkMMMhhhsMMNhhh0KMNhRNoRuGSmwxIC/5X79LJ/tJsPT+P8AI/Qp+jP9orZBy/oZ/tJs8SDlfQz/AGU2yDlgvoJ/tJtkHMBfQT/aTZ4kPOBfQT/ZTZ4kXO+hn+yVsh5udfSKh6NabEO+l4s+f7KbDEh5mbFxlXH3FEsop1IUSVnDO9vEpMjLOn+wmzxIebmL/GKTcdMiiGlew/6mdRK13ms6f7KdbJDzcxQjTq8dUhtClmoqAhAO9F4jqWbP9grZFzsx9VCiCNxXaJ6LjLjSieK84ZGtB+8Cu+xmz/YK2Q87MijO7WiyfSba1XkxCbqwQlyLsPm/yDYTYYlbnSiNcx9Ps22RvJbS6Zw6knEfi0xU0tn1Ufjm/wAg2E6gxC/kWmWsgaaKhrgiF0T59+nAsGp7On5/4JsMQ/5FpmKILdbaJ1alm0i+pxP+cAoqZ0/2E6gwx+WfHN32IVFCBH03URSTCVpVm/yDYKwxL2eu+RUz3PwpQj0eOjilCHWZGk6ll/yDjp1skvPPPcOph06E4fvqlAYKjWXP9gtbJN8h5zVq9gYiXanUNJq3DtBOZP8AYLUeJL8hmqXYag68NQRVNgiSGDIwWXQT/jlqD0kvPyzBmCSZAw8qidQhs6HQiTUzh0XSzJ/sFqD0kvyGWrQVBmHjTQmlGFKokNpNRspulmT/AI5a2SX5DLVpQHotNUmkmkqcUZaEX9zhGSSRZRWz/jlYYk3yGYZCgoHEjpGH9yEYqaSpnT/jlqDEo+QzDBkDFA8fTbgoczNCSSWdP+OWo8Sj5DOoKB1vqKSmhZ8+45ag9JR8h9DP+OWoMSj5A/oZ9xy1BiVHSPIyMvoJ/wActQYg9+Bp2f0E/wCOWoUIPfgOH6kERO/sz7jlqDEJvS7hehXsLxVQs7xqcbi4hbqUM31HmXsqfbHkGIKpvwHtCel/bg9P7d5FV6NSS25EtIHUQtKF9oolEZIdQsdVu5fSQSr+xHUs2fcctR4lXPP0mZJIoltQYb6YcMu8jgs6NtkXYrIigIgqQsaRdw3DkkQbaXW41tLaTaR3udPuOWoMSrnnr6HE3kKYQ4EMpQlcI2an4clo7du4iFQkLhm1kiGbJL8MThm3VtiHNpURD9VSoYzdLOn2x5slXyB5aFrfWm8h943GohslEEOIX6kqJRZc+2PNkq5+QR1F8qxabzcKRm2ivWit+IWhLbDzZGUYgyKMbp3bV5TqElEPIfhoOiYVyLaQZuoIJi2lHkT3Y8jxK+eevrX7m4tLSeu26lkkoNs09d8y7p8y6MCtPTglJ6sQv/ds0qjXad/FJSiGhuJCtm6xFQ9E33kxHrMT3YtlfPPX1nvOJ/sbLax0kXCh2yU8yl0E2kkIh20IbYbbW5DoccVDoU6uFQs3IdC0lCtklmGS2t6FJwJh0Er10E92PNkt5ytfWsrxIXUKOgQZ2pOv6c+2PNkv5qtchSSMXSvW/wDp+lPtjzZLuarKWXsk7xWIO+v9Ke7NniWc5WWaPf8A0Fwz/UnuxYekt5x+ittRUVFRUVFf0zE82PIMS7nKya5NbKioqLwqKi8LwvC8LwvAzE62C1BiXnSNP01yqiorbXMqJ3sWVBHQJj4lIxGJGIxIxKJGJRIxKJGJRIxKJGJRIxGJGIxIxKJGIxIxGJGIxIxCJGIxIxCJGIRIxCJGIRIxCJGIRIxCJGIRIxCJHfxI7+JHfxI7+JHfRI76JHexAdecdsr9P//EACkRAAEDAwQCAQUAAwAAAAAAAAEAAhIRIDEDMEBQECFBBBMiMkIUM1H/2gAIAQMBAT8B6cBRUFBQUVFRUVBRUVEKIUVFRCiFEKIUQohRCiFEKIUQohRCiFEKIUQohOFLGdE6xnROsZ0T7GdE6xvRPsZ0TrG9E6xvROsbwaoHgOsZvE+K+BwHWN4Y33WN3jaN91jN0+KWjedY3dPito3nWN4FOE6xud8I+RvvsbnhjfdY3PAIQ813nWN4o3XWNzxhuOsbnijddY3PROsbnijddY3PRPsbxBvOsbnhgb7sWNzwgOA7Fjc9E+xueidY3PROsbnonWNz0TrG52HEltTynWNzc32on+vSc0Uk5BrH6S0m6biRRakG/i3jusbm/S/b2vqEI/Z/FaFJuonZVfGOI6xubgCTQL/He32tV86lNB+zRfS/0ivhfHgqiARVN91jc3MdE1TddzMGqdrOcalN+peAtLXLTVy1NQ6mVRFqoqeKKnAdY3O45jdJvv2UYuYHFaQZqadKLULfQbw3WNztQK+ndRy1yA72nUgFof6zTzVVVfBQVfFdl1jc7LfQkmMOofS+y/TMsrUJdn5TwYBaIP2iER6qgh4+V8+AgiNp9jdkfoUx3otQ1ns9Ar7rpSR13kUqtPWdp4TnF2VRUVFRUVFRUVFTZfixudlrqJzae/hAVTgB5Ipw3YsG0HEYUzSz+eG7Fjc7bT/1EU9Hy4REeG/Fjc7gf8Ffgp0/UcR1jc9E/Fjc9E+wZ6J9sipFSKkVMqRUyplSKmVMqZUyplTKmVMqZUyplTKmVMqZUyplTKmVMqZUiplTKJr1P//EACURAAECBgIDAQEBAQAAAAAAAAEAMQIDERIgMBNAECFQQTJRQv/aAAgBAgEBPwH45NFyLkXIuQrkXIVyFchXIVyFXlXlXlXlXlXlXlXlXlXlXlXlXlXlXlXlXlXlXlXlXlXlXlQRVwjb4Ut8Jnwpb4Rt8KW+Efwpb4Rt8KW+EbfClvhG3wpeEbfCl4Rt0RCiKdCXhG24DxTwffQl4RtuCbCLfLfCNtwxI3y3wjbaEFXE7pb4RttHingeYt0t8I22jzVBV6Et8Im3lDyTvlvhF04t8t8IuhCUfDqm6W+EXodMeDtlvhG3QHgYHZLwjbpDydsvCNujTA7Zb4Rt0Bidst8I26AVejLfCNuoTulvhG3Rr4J3y3wibohE9CW+ETdEHoy3wib4Ut8Im+FLfCJvhS3wiZH4Mt8ImRzD9qW+ETI5g/4vYiURKFf3bXVLfCJs4mUC/wClGwQVPD+KKnRlvhE2d4KhFEf6UaC/V+oOgqomiBQPrfLfCJsirQUIaKwIw1UIoqoRKqrTwSgVXfLfCJtgJiQqDRGoKHTlvhE2qqiHpQMg6idBEK1UVCqIChRdU8U0y3wibSUTRXAoekHUX9IIooL8QZBF0SgdUt8Im0/qIVoKoFaEYaoelVVVVVVVVVVQKrplvhE2koHwOtLfCJtdMP3py3wibWcB05b4RNsovap/vUlvhE3wpb4RN3q4S3wib4UrGwKwKwKwKwKwLjC4wrAuMLjC4wuMLjC4wuMLjC4wuMLjC4wuMLjC4wuMLjC4wuMKwKwKwKwLjCAA+T//xAA3EAABAgIGCAUEAgEFAAAAAAABAAIDERIgITAxciIyM0FRYXGREEBQgaFCgpKxE8FiI0PR4fD/2gAIAQEABj8C9HoTkN62j1tHravW1etq9bV62r1tXraPW0iLaRFrxFrxFrRO61ondaz+6xf3WL+6/wBzuvr7r6+6+vuvr7rB/dYO7rB3dYO7rVPdah7rU+Vs/lbP5Wz+Uww52mo48G+hQupqRMvoULqajsnoULqaj8noULqajsnoULqajsh9ChdTU+0+hQsxqfafQoWap9pv5THhKcyrLDw8hCzVPtN9QYZAKTbFrTCBBQpau9TFov4Wap9pvSnIFsv5t6Ix8Gojhfws1T7TfWrROKMlLwnxVl9CzVPtN9zQa4WyUy2xaTAtESCBQ5WX0LNU+03pQPNTLgtSY4i1TaB4ie++hZqhfwab0qTsER9LVOmQ3giEKe9SkhfQs1R+QoXtKSdRBB8cJc1Tdhfws1R2UodL2a0UTgpKxFt/DzVD0QvzLFtqmfCxaVi0TO9h5qn8c5THkHVQRew81RnQ+WaLyHmqQ/fyUh4FTON7DzVGdDfWeNnjOdnFaN7DzVGe99b4FWK2QG9cv2rd99DzVIfv5A/pW6DeCotwUyhLFc72HmqM97+U5LRUvjwnuU76HmqQvfyJKoj3VuAv4eapB8iV/I9WX8PNUg9fIyOCkPIQ81SF6FDzVIXoUPNUhHmpj0GHmqDof0oMuHoMPNUHQ/pQelctbgAPNQ81T2KhVRPBGgaRO7gi1ksdJ3NY0iVDNLsqTwBZuvcDdQ81QSxtULpWNGY6L3/pCnKlyUGljJTNgAWtPpatGIOEwVQnSZyU9ydRcDRxVOkKPFDSFtidN4s3cFMX0PNUg9a0zgpA280xs5nFEz/9JQ+iPCScf8h/SZZvH7UDof0maMyfm1OLt41dyJdPdv5JlCzFCHLR3238PNUg9axCm5tE8kQN6ErBwTQyQkqJbS6o0tPqtCxzcJbkA8UzzU2uov4qjTf1naiaZlwUw72OCa9sQiWJ338PNUgdbw0TRh8sVEaDPmgaVI7k58SQmtBwO+tNpmLyHmqQetzYpC1TlOXNSaZEztUS2Z4qGDjII/yWg7uKsh0Di5Gwz3DimkzE+SOlYN+5Gk8CSe0TnKciOabuCsNPLuQm9onaLVJpJO6zG5h5qkHrchnHFTOCLQ6iTxRAOiwYp9uP/KYd1iiylMMKxE5lRaRGlh3KZDEmytpIuMqMyfhM9v7T6LQMMOqb0RbumDS4WKH/AB4NmLTbajNrA90hcw81SBmuW8wmulOjuUyySoS0VSooUtyLaOiqNGc8Z70XNH/SDnW8uKpntuU5u524oDCWHJSt581SxO5E0jT47k1xm543k3MPN4lQM1zz3KRsdw8DO3x4HycPNUg5rrSE0Bb3qDp5OHmqQc13ZiFMeJf9OA8nDzVIGa8mDRKxb2Wm6fLd5SHmqQc3oUPNUgZvQoeapCP+XoUPNUsW07rXHZaw/FazfxWs38VrN/FazfxWs38VrN/Fazey1h+K1m/itYdlrN7LWHZaw7LWHZa47LXHZa47LXHZa47LXHZa47LXHZa47LX+FtPhbT4W0+FtfhbX4W0+F/qPJl6T/8QAKRAAAgEDAgUEAwEBAAAAAAAAAAERECExIEFRYXGx8DCRofFAgdHB4f/aAAgBAQABPyEXpIWnYgVGIikURBBmi1PA5KQrtvBb3v0L6c+lR9Khf8RHgo+oR4KPPR4CPIR4SF/0F/D6IfTKq8hfPFa7/wCU3ujv3s+0nP8AvOK3vF9gNiy94gdJk5cjTTAkS3TLEIj0XZNw300T66hTy3A3VP2f7IEKq9PMWha40+e4G+jwzj93dG4tC9Ba5vEfv0mq+e4G6jyPK5qm/qL8BaPLcDdR4Y1vi3dDzobfm+e4CZo8M8BxQ80LH46vrZ47gbqbhohxKfxX79LjTwnA3UdBvLFpQvwdqqrr8p2M3R4dGYheopsoaLI3dh2Q9QhzrbaFR1+c7GTpgxJfkTzRG1FRY1X4NZ4krmyzInauNmIUc5Ym+Qs4lNTMOkEEG5toWn5jsZOjypzyxaEIWnAW5BIhTgSWyQlb2W4to5LLP3yc6UI5/wDz/NTRBGv5zsZKPFOedFxa8SXjbfkLJ1DQhFl5ZDln/S1KRaNiQ0IQ7k7rS9EEaPmOxm6PDHgT1rTNwJzhbRQcaZcyxArmzyXGA5fVjS+HIhYtcuhzop9CBi+47GdNmYPC3oKirC0xzBzEsiRmGhV6TuQEqvFxqcj3iJQ7rSKT6LNqfKdjISZgyDVM+P0JyotK0yBCFQlkOErCSOiQNhYQu2PQsXyGIpJO4kI5aFo30s+Q7GSmI0WNn4PgKsUVFplTEvSbjHEacvO62LcsjczbUdS+aiavuYxSReOIl6rcEnUdjJkj2HjmqPihathaVpcnAcEudkhyLNjALTLkW2SYRxnV/SWhoX33apiRu8YnboQn604tt4+SVXd46DS3HMbw08FkRsKZTQqbegz5bsZifFGBE5FfgNtbmNCrx1ye6UGwGgTtyK8KDZcEzL1Pk+1R4Z4zgZCxVVVVpsSdkPqQF4SJ5u62FwBmn26kuuXF3Xb0JsedypMeGJPQ7BhVQqLXgLc2GgRs6HK+RLN52Fzk7eRYq7GwtGwxHi8qzyPIcB5FRC9B2F4E2EJODKmGw6BfsuDqLSSuC48RNTIHTKLDwuVPpQf2+wYqLQsaGhNskOP75HcDIeBtzhywPNJLLgM5Z3xG7iJrcjkiPUyxUWlaGfLdq2Q+B2DFReiy7llyWzuJJhtvZkSpXOz/AEXAQuEt2OVel9kObNhDUy54vQedDPG5Vng+L2DFVa0mwmjkDHM0+BaLeZ3Zt5NoDUXyzMSk4Ci+XgsWjbRBMF1GefyMxMwZ5HIdVoWoYwuSJz7CfIoNyDH7rYgadqKrRijG8vCtgx45za+B3dEL0UHbMsRe7imMsgDd3/ZCEhL0t9DPB5VnIje4uxvRaVqYxEhMW4hWBeuzaeYpfuh819h1WhY9KPXZ4/Ktiz5r7aCF+Jt6DPN5VsBDJwlJvhYSmpp4aqqL8hm1fB5GCuTQrf0Ds7D+xaFTP5LPF5VNg8eRcMrXiXqyuKFKxNLn9E5pOqfUQ6s8HlUxMXhZnw33dFV0zdXkRL2MmBINnmbtw9h6WBsrSMwsNJ9XMZbHalMzRCaePSfAx9PS8zkKjASDzCC42YkK9twhPQrUzixuM0zV/wDsPf27ZgZ48Sf4JA1XBvYQqVZ7XuomCvOoDZSLvDY5rg+REzwkTMsaG4Cc9ls2wNBnC0L5fAQluQm66cWIQyU1KqxY9GTzeRhoxd4cFuFRVeWwl2SMBsYpibRddrpBZZCWRG3g3+CGdjv9CUJN2HG9guoXZjdhCkJXrIYfiW6IrVTtNMFmOZLjvC9bBII9m+LD1xa6OU572FZKPUYzyeRgpg6PeEIVMU9Hhi1dTifvY3NxiWWU3JUl7dBY+bs8ez6fbjzIKitGazcIIags/wCeCG9zcVz9MiH5mYTEtq2XV8x6HU8ZEXLmPg6Qy7Z/pYlduNT9D57sLCjwzyeRkL0ZSu7FsmnmeSTns002fyOJzrhwHM/hKTskjPrFie2lwiPCRqV6To/uuwqHhiTH5gefQQktKE2Q+hScEd2sS5lqGdC6Eh2KaTcZgVu83HWSLK4TPsIU1ilzEYvuOONOonHkWITxLsUZvwuNKXadbl1H5mjTdzHamvFZk2mmX0uxYUjfKG7FbKEuZImdDhOxrZg+Y7CE0NhplraGspPoMJcEki15YtEQYKfM3L/weY0hre0enrNP7LoM46WEYNc67hwt/YSiTZJXuCG83Zs4cLoMktxvFkFaVLAoJG2lkbCDmUpvYWFQszyML+j4aVpUjOGOODEHi0xO8rp6DSfIdhZo8VSWmKWcxXZk6+V7jOs/0zh3KCClnhsNHknwboVFEyhriPiKmS59RCXbxw6OAquxQ9nBIgTuI6ywyektuc3/AD+hAJjiLt+hxz5pw/8AjkNk3+tH9G7eBa6coNiGXPQY+c7Cwox01lBCpOjCuEctwYh4IcmBZS3ZIYcyRYaVHMWieZGuoMr8P5LsIdB4Y0N5S1xMQjcWhHY6hruiadmz0O3Pf8JnyXYVD3FlfLStCxRVY0eRK58heyU6kQYLr8X+H8p2FmjyoDCFRVxoU2e4q36oS4vnL+j2t4VA2tbS+Rfh6bmLR+xnyHYWaZDq7KVSRWCYmbqkKnUSSSSSSSSSJk0midWxoHnqOwqcD4kzY6zplNWIkTEyaJqMzJk0SJQSrSJR/c9qmME1OIDziiehNiSSSSSSSaE15okkyJGReaSNjdhE0bscxg83YWaPkQxk7GsQIITuOBMX/On14+kaEAlIJ1ZW30St6/Rz6ufRz6mfUz6GfQT6CfUT6CcD2p9FOV9p4FPCg+J9guM9hznsG/f7CF4Ckxg6noVHrzj0FqdelJ0Kv//aAAwDAQACAAMAAAAQyCEkEkAgkhEEkElggkwDY97v4MEkSWSSdppq5k2BqTW2Xf32wb/W3/MMgA3uy2SyU2yS/a6U/wDaIJLXtllgIIAAmtvnk3yrjTcttsFIbIAFll/v17DCue80gMhANFhE1/sk2BIqU8loIBIBIglttksdDBr3sttIIJJJBkt8suebJvW1tMBBBJINJltmnaKKm/llAIKGSIIAtpssmSBvmvkAJan6rBIsotnlDIj2k9EJHGSkABItkksKAiVukloGyKQYIAsstlIIickloIP1MZwIosslsKJyXkgAMIEd/YAF8kstLA61sgBpOcFp/lkks12JhHtlpBoGiXLAlkuv0lbAC8ltNNBkFZBnk9sksoIIWpstJoI1h3lk3vskBIxXtoIAIMTOLVtv+3kYhct8oIBAIK6JBFtktqgBan91JgIPx6F9EllkXiFea0sBIIHb3YMttsoqqFf39kABBJnDDN/tlstqUaakoIA3wuHINkgEkkjA/XtgBk8Q8/jMtlkEspgvXtoAAHKz6UFtsAsPphl3koIgC5xmstlsottrMP8A5KRCCYtuCbZbJLJoyTJ5LAGACAwLbJbLLZYLJbbZRIAJRJALPbLVYoAbJr5LAAbJbbPJLZbIqJDLdINbBDJ7bbJbbZJKZTJJd1j7bP8ASSyySS2yAQTy1KE4GWRP22SWWWKsDOSWP09c0gSWTSWSGqcACyUDjtwXWKzSWWywso1mSgo0qoTwGe0yyUSQoRq2U0kYXASSQUSSSymAlh22SBsoZUHsnC2WS2k1mSy27gXpzJ6OqS2W6kx2C2WV7hk8niDi22GKg1lW22mcjm30yUi0kyyKXh36S1eG2ySWSW0S2ycFyy2SmHmiSy2020WSWGRGS3SEgOeW2yyCW2zWmgW35SSyy23yS2Wy2yoCx222Sh6NfJperpMQVNA1qydzNBryWBtxS16cJC0uJtNNpNpft/tNpNtIUb7yXSWT2yFaa2Skyi30/8QAKREBAAIBBAEEAgICAwAAAAAAAQARMRAgITBAQVBRYXGRwdGBoeHw8f/aAAgBAwEBPxD2e5gZSUlJWVlZWUlZXWqyvh1VVFAFCLNgt8Gu+9MdmUPAvrN2OzL2LDZl7Fjszh7Dhsyh7Djsz8Y7MY65w9hx2Z996JJZ4GOzKHby0RZY0VPgY7M+54mdj4h3Y7M+1mW1U9+OzLuPMxlJLjCOzux2Z+APMTU8d2OzOY33tSBzAuWjAgcwh24+DJKqU9ItTz34bB3KlhFgXHHgcfEriDQ4YGCPbjsNsu+9xq50UOzHxJ0Y6EHHZj4cuq6BBDsx8KvS4upCHZj4UaOgaiu3HwJ2NSo/GgQ7cNmffUqouo7sfDqjKjoB2m+DveCeowPEg8BLgeBhtD2HHwSvFx0r2Sx2l3vqs+Vj1GZyMJ51f1/7K40p8fHqAhDMsBFD1+ZScJXB9Hz+YTaoP8wzcj5/iUFV5/XbXVj1jE5/nEItPx/JBZ6Pv8wj0cXJ+4gljBw0EZZmXONmOvHaG01kY0EWfUXi0cB+7lTTn/mB5ff9y3Nw0HBMoQCcwBEX349RUqJ1U+4S9D9RQPLFfJcS+HxD5RQFIcY35lekKRtE0O3HvAXgh6mDOJVyscfxEAoespcoPVgjuHsx3BvJQW8Thrq/r/UvBsK4/wAMVuqOOIwXC2NVzBCUlJSWRCTCIJZAdOO0OgiL0x+ZRcoFoofEDEcrH44IMgx/TBHOeYpYTCZMXmoQwgEwgsqcEtHpw2ZQ6OX0JAGNXXP4mSJ+5bY8yy/7QhPVH7dwBxAEQylxtEMBUKRtAdF7TB03ecOYvBz8pc5xCCuHQq+Ze4bHx7M6syqCt/HoRb51OX9J4k64OshTBjvQ/Eq1nL/B7GDBRZ/3Ev4P7P6gfTPzli3y+HjoaYNtewmDrNDqCVKlSpUqVKlQJjsfDwala1odeOwgHj1EEAAACB0AIl9k+2Jl5t9n/8QAIREAAgICAwADAQEAAAAAAAAAAAERMSEwECBAQVBhUfD/2gAIAQIBAT8Q+njSNkJv4S/nBLoB+HpKqqqqIVaZi+jxwXVdJ6Lid8cWdMlwtEd4FpXewXajWtC2WdK/RWdZ/Q2fTVnkl4rMX0pZ+Oh8MY3wLPxWOWJIiLAkCt9mLwSGlCy/OUJD32eGRXjCJ4mW+wXgkMEXE0yBUMWHus8MpGCwsDctndYLlJCzsYbwTBB8HCicD3WeETE5UEvkXj5IlG+wXNNyYk3YkkNwJib7OlOFugYwig3+BprbYLl8ngV80EhJQ1ssF4/DkuGW2WfS3elwhCBuGNrfFn0t3JcQLkz9aI5sgs6Wb0JxPLToXWzWLquEIkYCXDcDc+Et2LlOBORJCKPi3WdLPAnwRAN7rOl+5CJMmRKEN77Ol3gkgG58FgubvorBc3eda7Bc3dl7LBdDBv6GwXSt3RKC9VguhZ9XglfGRktBv+gRSck2dpS1WC6Dt9k+BODNyWQoJ2Q1ZEZIGyJTBDFLyVy8i0plgubuzaSliwEYaGWZ8eDYTNhVjnhDmwOdjct9gub+ySoHdUCEhDcxaJI+CNzIN5wKonMkhDgWDxvs6XbGGKJFGZuRXlsaavtGywXN3D0QJpCTgSmVyI28DCRPiTMZkMwnZDG602dLtLS4ELkixMCrBUh1P/fIygxpcCuScITDY5QtGbfBA5LpITV6bOl2pkTHkNCigSnMCriKg3eRu1AnShCaIE6QnRORzRCN602dLNKSiTDsbGfzynPK8FnSzouzSdkJjzrBc2a0/gnKlc5OfHZ0s0V0fyXCTt5LOl3vXN3S7Uh8MWmSSSSScEvhJJJd0WW1zzPEkk9WLTImX0gbfjzf8Oqqqq/ifjw/ifififmfmfmfmfiUn1P/xAAnEAEAAgICAgEFAQEBAQEAAAABABEhMUFRYXGBEJGhsfDB0eHxIP/aAAgBAQABPxBaxX2nhmJRhq4LzDOIfiJirm+KorL+ZSZdwyP9c3YfESUnGoPjm4mc7jfBbWZTnziUP/yVpds0eH9wVxK1x7gq0v3DZ4gmw5lrxb3BZpJWPXmC8xVObxLU7maUUwHRmB5+Jq8RNVqKAmpto1FrmpgmU4xWpHcOc0fMcxFaKx/EbxXnX/MF0A/zqGPR/PE/jv6gv6Q/5mTb/PUW4fj/AJmJv4z/AJgAn9/iAZU+f+YV22e/+IGxxcyGZuH+NTgtr+NQDXzj/kpct6P/ACCvL/PEMjc/3qILt/3xARtX98S/F6f3UC2P++IFjJ7/APJX/wBcMI/ey9X3nEplBVvuAWn/AI7g4aH8bllLP9dygUev+kA9FK2AT9sQPZBrDl9S16MRbUXLObQqCpeDcreqhrcAGJR+IAtwIl/Erqc9w1K8RWlAuha+iVRogbmvXczaMzjB9AKYYzr3ELlFSrYlGWVW5pazLE3HJVSn4iWtalu3fEP1Mv7MJie0QH/s8F0ytW26Phf+Sl2WH6hrJqGyGsHqB7mWIZzC83WNV1KfiBy6lfcnib8TRW4fecHEtmOLuaMreZVETxBXVx1EzpqJdwDV6hv1MXmbOolHqPhhe8TV5nw/8kd2q5947DfMVU0/PByktb5npTOM6moY8TZqOfc/mPmHMPxEMwweYDc0pHJmcw81DDO2WXZgEWneP7uGv3OJ3+4OfeWBPjMzLjmyaOpkN48Q0zdLv/JNKRfUB+iVqTNmaFttl5uDhllYo/Mrzmb3CXsmfMrmcTzzOI7mFTyFRaMyzMeI68fTaRepUe5pg2bslUXcLZxNLjq633EeNzTqfwukdhwQOnE1ujcaotfLg7pwaZsXDgeIbr8x27lgcwpILm6g55m/cvMvnibyTlz/AOQzzNk5i4qa03NxMbf+xH5ltXqZEHNd/R1FvUvGIGIXmVu5zTuVzVGpT/a8JY2OYmcw7owPv9hN4ZSJ53MhZD8Tzdw1cNXyy861L1eJ4Z7nswQnudzonicMsL79TiW6qViNe5+o3FkUiPPPmBDX/Jxhni48Rdl1E8EzxY/yT2XBszccIy8AUN+w/wCRyX8xjBx2w+mKYOMyl1xA8wL2zjcpIDy4gUb1Hcwz5JnhleWfLK39AGMsq+Z45msmyWN1ubJd6I7xFogWq46zDuP/AIJQa6lbwseVwqKdWecQUGdsOTuFiV95v1CVjzNPM0SXuVW8wIHc5j3Ka5qPiWZly8S45ncMbhWYkOomMYZl7hNQSsZ+8dN8T9N+yczU9KRJ1eYLTYU/4JtbMeYnqG9O4UQf/IZhkeJW9T/IGOp+5d2MdKRLCA4YAqx+Y206njfLLlg2jdHDKaeZwz3qHMNZmJWsrJ+57JV+4sbjqWxPGGbIP7eE9yWEfgl3TaX7H+wXwqB4smGTcGKqLKfE4iy4Z8zxCeo4jrSQhr29fozFICDYr0eI5laLFK8PEJdaaUfmWheAZri/VN4gMQsNMrc9JnqWLczNuo3GMzEqjy8yxjjcTEddQN4qGu5v/wA0j5+J3klfgip0/wBkFcUTcUrzqDjOY+JkR43OUrFS4alxqmCEu6o7lJ2ODjiv79TFmlJcR0OLlrTgXaOjxBc7wFd83MlqJa3WA7omYrozd7v/AAjv6G2bP1GrmDHc+6aSqJueJuby34nE/g9IOTrUrc3hUqO9tP4h2vczYGu5xLx5icH6CvvBoizmfOY68xI28S42UpHXXzFTtWqrOP3ESgLmsTpM6uHSVtuuHH/svLbxXnN1mMkCEOSDcYTmDB7gt0zWeokyNzweIjzK4I3zzL/z6yvLriU+J8SpSYXT9os1zUMe6+huLu5xbcMlzR+g0+4ePoyqYK/MqNWohQmfm5l9k0yLL+YhYmNHhXxNukoFvk8S2cIcta/vcwTYW6c8faLcEqK7DX96hZPMLzMBw/EvE2pEylR3DTU0fuMp8wcTMTYvGUlnmPFuJ8efFwudVDeNwvmG6OYVTX5nUNRUOGPMGYc5jpzGAK2+SOqI7mTVOPMvDWy4FN/EUgBwT5Dda7iKQ9AT5lJVWfsf14hFwwOOYlXGpRqXxMo+4OfEWj5lZzKrywMwK4nfcpzzE4PzGqr4iKP7pFnXUQXcy/FFuX51y/ETTioB38RZx9o5a5IYEhFyzAfcvGIa8MPUC1TeoBghKiKWi61cF7nhqzb8txCbi7Ep0cRKfrZLW/3piIBFFvA/+/mEmFIppL/2cWICuvEQRu4Ny7OImoa3DFy81CNYmLlXL5lK/wDPoNsVmpb0sWsYJa8DzFDDv9UrOssLvFe4UupfiKHfceGbgY1OMRvVSyHJCSIh00/iWq4D2i+kxLps8Zjs1sdIoRnD59BxcAYK8FVn7gVH3NEMXU0MXBPUZ3UM19OI1zCCrUIAOIuF1DyieGYNR5KuyO3G70eorM7l6uejxU9MqmBbqBlMqnEMYnufOJaIorQW/aOQLumXMOJkWKGOJSd0CJAu48xGNdXyaftDUqxqpfe4GMwLjovU8Jm489zw/Ew7hqOMdyr3xLr5qAKdWIwVXqIrFjiMJWiu+6hhlVxepkt1Or9zbUCIXA3Aww3uYreJh7gX61AzK+8S95gishRmuH2z8RjS3B2dowTIjI744Su57TJ/2Y0AtByfH0yYavD9BcxG6moOIZcRMfP0ezxRe9cnMCuT3L3zrxKEvp1vAvXxCgVAaqUhv3DL4Ji/ovOIYMMMH0aJqcM4l7nZlKmqX5JUCAKMQEXL5lmpk1AoMXnjqAkq2qw+R8QO9jmcbgM4D6cWz4jbDmcx9xlPQk7bhVdQ36vUdGch+czeNfUL2fQV8zmYDc1FzuZE5S4t2TzGo45nZXLArX3VF8iPMezyNubgLnI1Z8w3WaQG7WK+Y9QHsLDW5+o/tD5qGdan4nJOG58y8eemfA9S+rnmFyWbcs3o+TWT85dVx5Sbh+alOIsVfzL3U5XFmfiH0zMZvUJWnZ1iU5B4olB1jJLXLseLIiFlSA+nMHirFObrj7Rj6dLs7277esECF18ahuc7+hL2gC5WJdYZmflDeRxE57Z5NWv7p31pg41+IcyR1SX+HOXbXh4iwpiZpxmCs7gx7/E7m/MHfEXLOJzCIGWowW00pClHbq4z4VmENdXWolcNq2+OpvE05YA7ejcCWXwJ9g635al6CbWH4EqM1CHirnG6zDVwJp4hlZeZaq4g1ZEh2ZlzJzJxBnTG/SC28yiuizfviy2zI8T/ACWvHENX9DUUOXdwoleZZig5ihrPI+YSm1tG7zA2MHmMSr25iwXdqtZzE0ZtG6eQ76g8AqWfO8fgjVWiAwOgqb8jef8AIfMuW4gYlwdxziXBHhj8sO+SYnHMN5pBz6gFbCUMlYhcGd/q8qNTofL3D3iYkPDB8wwZhqG3gmpZM0fMLGmmqOMxfyZhJAp3GqWoXJ+zXuMnuX0v7L7mTC87NVrAVeinqxwf2WU9CeOu5aW+VcyjFfiGNQ5qOt4mK/8AIm5ZqYekUqyc4+mviCqVc8s9+MTfDGW5OZYrLx/nN03U41VQ8wut6nT6mnOfpd/Eo2xFMlhhKjMEmkFDbNbrqOVQ0M+a+IyQW0o5xlcw0FOM3vjr+Y3LGgZXXJAQs8q0Qe2XPUHLGn5TcNyohKNx2cdRItwxe4oeHS1Nn1IlYqLdiOsV6Y948uKYOIb8RGYYg7l7nL3HLDc7l4bnQa1EyPMo7bYD9qcP8lSi5OvP2YrBkEwvlorytkraYzTCnEMgC5vX1OZ0Pqq5dWS6F4ccRJs4gI1kX7w9nUusF/MI5NRqFZS+ry9kMXxNB0fuA2Q5g35OYUXDTUNxgy2mWOdRV2V3C0ZzLb1VqU3GLpKtdR2W9AmHt8cQkbQDiHM+YQ1DDcck3FhO0c6+IJXUHGvvFXuPe5t+8bg9bmt3HZb1EPQPdo3YvzOG50sDEPOZlvqG6h7iMyqnDOGGoipn4gvUCnE6NynjXby3QfuFRQVUoOoecxMfQ3NMxXzKc5l7/wCQfLB+J5nGcEdTlCo9n7y4+cMy9PmWFbHlyv8AtnpiGvcM7gKheZy1zN7lLTUcsIXWI8XDBMVUSAQGZ7nGJ/kMw5qcQ1OZimNMCpdLH7R01mYZ4jMnb951Oa19MLJjRyH5wVriV5h7n+o8MP8A5OdwaI7gLAczuOrlVKs2XK+8MlQ1xDHMNf8AsqOOYaufuDofLHficNw+jtWVjMZpKprWX7zHNJT4+8dpeYWpxGgK2Ale0WJCm4FP0jvGdTTPECzLPUNM/MMENOZsnH0CXid/Qw2zjLv6P4leIZvM4hepzRNtcxR6RcVZK8z8t+873iepqU3mFfsjuoGDWBPIh/JNPxOWBd3zAzLOYa3mCaInhv6VnE/H0uoa1iHxLhm8wxFzvEwjH3DTKhOcZjcJqdh9OO441n6Ml8v2la3nMuWfRhJ8f4IisDcfiR1uBAh95YCrR26gj5EKw4YygcDjNr5/4gGglm86l+4BUvNXXMWnEvGdwcVOyXxDKLDCVDAwQIUzv6u4Y/U7+jZZ4jNMTEzVsfKafcp4mjzBZ5Tjwydgjim+sX08oQx4mkAtqsXC+N/cgQDRp6Kymjl/EouYBrkXToEfBKiCBqJrHpO4X8cLXQG07lE/oWMTb1rXmU1jcwKgtoTsbuZlTVx5h+YO4eZgzGgu8TaHmkNPmZ9XO7ftOJerhruPISmNVuLQ9SmOnP8Aea67jh5YcHgYJpgjLwg7ZzKt7ZViv3MlEIVzOM7iUIIrNOjy4z7httnR2iVHZREctM0PiHQWiHQA/EJSNVQA2sQW2jWc0OAtXxNmiAlEXi8WCNR6QrWKbcnYrc7NsOHULOKEsu9Y7hZCWKFV75PJjcF5qpUE4z/MKEGtaTQ7WD4juFAzyZ89Q1AyHI5JnxP1A0ht7hrIFcqc+Zde5uXZROfE5m2ViuJw+pRmG3b95+ZmWlmH3MldwA/l90Aig8dQ2Y1+JhiC8S/vCGHseCYuYlVzIZzXzEnTXuOD4yRGQzcqxRbYAL3XT8RLpcL1h+qj/wBYlQO45w/eIwcJysr7bhlAowXdL95IpWmFAaIK+LM8XLZ3ZK+jI0XDj1LGosFBzuHaIZ6h8CqFJS9nmy73fOgeu7hZTcrejfnuEAAAoDQdS9y8TjP3lte/p/P09TzNQnKco8NcmOxzEbcX8TlcxUwD1+GOxqCjruZMFal5iGCVE4RGnw1E4Lui/msP7hTmtvKdXwQBnuU671Co4QxbfzgZfCUpCr/z4l8DnAbAYL0acsxpa9zyrXqs6rnEANSXLRyG/gJfCQM3BHlwYRKp3cw6+Cnva09V4jgSoPjCgOaAYowYxKAsvlApSUnyzDdACHFLFwWIbHiqgpNAFu3yxf3BxPU5en6KtMPEtrqfiJVxxF3HWIyqiT4Fxc5uUfVKFn9tHaM0TLEN4gw3OIOYNX9GIFAG1wEHloBBgrNp4R1/EUv/AEXCmoChRZSxo1x7lYrK2E2vf/JeFUKwiaFOJxj6DOIgtQO3E2HgmFFH8jPMGXPmGvE4j+Ppc5RMQqOZHgVzGZJ4i4gS+fC+lqD94TUttlTFyjhNJLIAabwfJiXmYiyBWaG0rHuGcDFLRWp5ogwPlc0BZR5X1MNly/NMZjM14G1cHMUIlZqMBs2ugo5xH/lNI8HqLEbccxFri40LOiEFllvhhZjOrach50x5xK/HBIBLMbzZFtJbgJ6GXBnPELlkMrQLvgjZbbPvB1gzW2W8whB3F7IXAEi+fcOXgL1GfE3DJjDB3BmkXZqiPN3IcPcFxqOVzGLVLX8MFVd1E1XBBzL3PMKFzLlmbjLEdLDWrD2oerh9a0y5egiliBajO6prXmI6oZKsIuuPulMebLQimH1HninxS+fUOmEkihefWIje2AIn4YZ6mtrAkuAOePvFRGAsLgdWBv4DMeBSkZhEXDpR+ZcuW+wbdY8wwDZT0bhygtRst4hrdwCjHzOUdKeeBYHxEiAJSvSzxVSgv9qixwTSpbzictYJzCFsrfUJo3NpwRr1yYm85gEwVvESKVr+mNjT1D6be5QnidpePMyyYHfI0fa/tGeMBG6BkvaVr3D+8v8AamvvmBVlUQUt8s8fA8l7p5l/A1eL0MTFIxolNu3Eq2dRKDYLkKMaxCEYYWxdh7c/8xET026hujmlcecw/VCFVsSnKAFawRZvzqHSv+GIcDZGt7NF7vL3H5Au/TlrtmmO7iKuNigqiw2rFvwENcSuJLxbwGMV3LwUFc2XWLqi2iuYfS4bzHXn6OfU2Us5OyROjmb01NOlYe5jcnKecMpYHJL/APsxag05nIx5hruH/wBhKwo6po18bHwxDzoOfZ2eZSZkaFv/ADmWfUFcLybdPPvqd1MjFw4RXvXV90+Hk6YQwQb/AM//AAe4SzUJp5nP7+hqp3VS4uMx5Y3R5oGD5hfCyLin9F5lgeYlQRZ0lP3gFmszAuHYQGq/UcDKEIZKXXp4i0wAO0YpergVQABiupw1LxmVUOSJ2CI/Fv3jNvr6CV4hvE/2XNS4c/8A4HcuMcDLHF+oxS8EjsdXNXl+9TQcksJxZn5gtG/vKX5hkg9y6IoVZpzHN3qcwo7rX5fIs+0GOqxSUjyJw+JfUxtAdrg9y6rkFYzsPFgHpncwiRaJ9otHUNblku+ZxDU7hqXjEHcvFbuHmd9S7LuDerK6OYNXxKHZUIk9demZMuY46x1CbS91ODxABeobgSoza0Oc6WYf3KlPoL8QrntvIvZt9LUKAUBgOoWWQutyrMyperyeMwtWHu4bcTnxDUdSu4YYXW5n6+dX9kWGd+XMe4ltqkwZI6pNL8MIL75irbuWqBVdxw3csgaZpICwZ9ynySmpRzKHJ6gLzVyjdQGspKPMrmuJUiJXslMygblKzLQde5zuXKZZYz7kUg9swSku5yORYdXMO7jty5Vv/pLd1XUF1XuXkuWW6mC5gkuCCpzLQxnPMUV6i6pYPcVxUZxPeWymG+N7jpupj4lq3h6iru2IcsdGWWc+ocyCl3EUwozBEvT/ALLHUQYu473dk6d1N5z9p+RCKaGX0wqqw5Jw+ZXhcy216l1qNGpsnlHKU5ecQpPeNcXmJ7nOAIhFRvFdefNwy37jjjMyd4nA6OYZseHFwtY/eC2U45hhvxNvBEtbUaCXiYQbWuIlu6lqAXECNqfEHF8wO0IlJbfiUFOFYI9wiG0/1CWS06GVTeeB54hmr8aX4cPhNP6EpOD4RFfpQ5/sYjafZRtpU7hl2/GGG/sY0KTscopxKAVLGXxEnMsrJeUh1xuSNv54YYBQtgXau/niYta/nidir++JQ/r+0pujv/ziiNVdZfxNv8Y/5AqjalKL3qFi9pb/ANJnuFX3OOgzE3kxD/yfKO+cTuiU1oslqKy7FMeYZKnAg58wydMzxqC+IeSZBR5qcXZiPPqXjohLoantgxOhxuW4wXHt1ETOkxzPLPUvDwwKmW/cyvOIacZhRvM//9k=;" vertex="1" parent="1">
          <mxGeometry x="490" y="777.2" width="278" height="384.57" as="geometry" />
        </mxCell>
        <mxCell id="_dNYfmlN74PMvxJpYnuO-30" value="" style="shape=image;verticalLabelPosition=bottom;labelBackgroundColor=default;verticalAlign=top;aspect=fixed;imageAspect=0;image=data:image/jpeg,/9j/4AAQSkZJRgABAQAAAQABAAD/2wBDAAYEBQYFBAYGBQYHBwYIChAKCgkJChQODwwQFxQYGBcUFhYaHSUfGhsjHBYWICwgIyYnKSopGR8tMC0oMCUoKSj/2wBDAQcHBwoIChMKChMoGhYaKCgoKCgoKCgoKCgoKCgoKCgoKCgoKCgoKCgoKCgoKCgoKCgoKCgoKCgoKCgoKCgoKCj/wgARCAG5ASwDAREAAhEBAxEB/8QAGwAAAgIDAQAAAAAAAAAAAAAAAAECAwQFBgf/xAAYAQEBAQEBAAAAAAAAAAAAAAAAAQIDBP/aAAwDAQACEAMQAAAB4ZAagAMQwAQgGACABgACRKxgAACCgxCADPxrMzUqQEOlCpAiAhUhBDoABCAARUAVEwAxrKbBZFZ6F5O9+dSlYrBWjVQVJChEMYwIjAdjESABAabTb5SVGj3jifRytAhHoXl9F+dSCJWSIjFKWMdiAJXYARJDogskAEJZolkiVDs0e88N6OWQkVhHoPl9GRmyAmMoKNTMzQjZj2ZkqGYWplSyjH1JxcJWiAsIwElQDpJo9zh/RxyBJVL6L5fRbmssERJRh6iq2IVCyZWbHNwdTLl12s1mRKWSLs2a5CAQUpXShirQ7zxPfjfQVx6J5fRZm2DEAzGsZbLGyqpkTLjHshVZXK0yhkay4kAhSodgrgrQbzxPo43AQj0Ty+izNmrQAYhEgJUkACnARqQJBbUQwGKUAAA5/pji/RyuRLGPR/J6J50x2AARGSCmgAUQwHYEQJiAYBKUoYh1zvTHG9+VqSWuPSfJ6J5opY5UAh2MB2AEgEA6RXE6kMAQFKh2NSCue6Y4ztyvpFceleT0TlxtSJdmwqQ4jYFpVTRVbLUirJzcbUvjArYxiVaMqsQjKzblIKDm+mOQ78rQIR6V5PRKWNkVnCAAsYxEhWSWIJNUgoiJkCQDK6cTlBgc11xyPflcgVS+meT0YVWEUtUiJMrqRFL1ijEV1bFFklaWy11IrsItJrjWXy35qGOuZ68+S7c7yJXHp3k9FYiQEpWAxDR0AIBgABQCAwAABVDFXNdOfJd+dwFcen+T00JEsIlsrGMQ7AQwGIKIKcIdKHYSlgIYSgVzHXnyfbncgtcen+P0hEYCGA0KBkYlRRBSgHYKIDVIKIANQBHMdOfJ9+eQIhHp3j9KGAgGAWIkAgJCClAOxStClK7GIBBLKlCOY7c+U7c7xEZfTvJ6IJrdSBtsa1+83y3xrt5ulDGstJxsc6wNZwtSyXbY1r9SqzaY1galVmwl1Gs5cuDqbvGr4SqA5frz5bvzuRKo9P8AJ6NPqXxg7mXi5C6zWcqW6MDedpjWDqVWbrnuVlNavWbJbY1+pn5qXE1nPliYGpnZszPzQFIRy/bny3XndZFZ5vpnk9Gg6Y2GdNMDU2mNafpm6NhnWp3jbY1pOmdnjWxzWVWafeXLsZdXrOyzrFsx7NlnWNZRZRZ0nPZKDpQWcr1xzHbnaiVS+neT0aDpjZ41dGq3naY1p+mbozs61G8bjGtP0zZLveekQs0+8yMvNwtTOzaKxrNlnWPZj2V2bjGsmUlKcFnKdccv253ESWb6b5PRpOmMzOqLEmbnWt3m2XKl1u8bXG9frONZ0HPYV1q95zM2mzHrNzYWYdmxzaaxbNpm4OpuOe0KpCOU68+X7c8hILPN9M8no19mDvNq52bhWIzs3A3lGTLrtS0yMtnnWHqa3eZxtca12ozZZut3lGwzdRuZ2brN53vPV80Qh1yvXny/bncgrzfTfJ6Kiiy2WwpLhlNlsqsRIBiJAIQqlBSSYAIcqIjA5Ptz5ntzuIk8303yeisQwAYCJWAAMiOwAJUOhGAwEAxApBZyfbnzHXFxEnm+m+T0QERldjhkSVBKwEADAQwFRDCwVohihK6QJyPbnzfXF5Enm+meT0Y4VGGSGKxEgHVaTVoECYERgWy4+stZRXYyZbNAIl5Hty5vri8gX5vpXk9GFZEkSAmREOglEamIklZMBCJFstdRSRGpQyUrsBLyPblzfXF5AuzfS/J6MLUgl8tdSgK6tiuxiJEiBIVQGWxECuySyEiESXJglLEvI9uXOdcXpBb830jyeisdgMcqGRJIhKWSgpARJCJCAYWEpYKhwgojkO/LnOuLyJdm+k+T0YepFJkwIEgIlhEYgJkACxBLOK6tKqcA6kX5sBhZx3bnz3XF6RW3N9K8noxrGSIlpAVOI0JJSEFSIo1ilpTVsVkCVSiugviZGVgcb35aDri8gX5vo/k9FNgCiTAAEFgOUESsQxK0CUQoAYiZAlKxBXG9uWg64vIGTnXovk74diq+EQstlrsauK7LpVVaSlsqtAZCplkQI0yMFIkX5rEOuL7ctD1xckVy8X0Py+ioRMLEBYAhDIgBIQwsBjAQhkRiHKDsJeK78tF1xcRTLxv0Ly98SxFwhUJfLIQAIBgAwChGASgWKVgIQURxXflo+uLiJm416D5e8AJAJGrsAEMQDABDIjJWAShEdAQCEM4n0ctL0xakVzsa9B8vesBgCNSyREACwBWkQlLGqRq4kRAKIQyI6DiO/LSdMXpFdhjXf+btCWJIAIEws1O8zBIrIZj2ZEuPZly0WXS7DNcshAFEIYgFXE9+Om6ZuIGxxrvfN2hLEkACJiTR9cWy02Rq/JrVqSimsuIkzMzrJzQkIBCABhXD9+On6ZuIGy567zz96oCQwAYWBEYDAVhK7ACMpZKVgFBGGIQDOH9HHT9M5CVLssa7vy94jGSEIQwsAGIYhgSsiqiQUChiAQCKyyuG78dT0zcRNnz13Pn7xhpJSzX6gZubhamVGBZetkQq/NwN5ulkiMyXXal0RplsuRDlAEIiM4b0cdX0zcQNrz123m7xJAFmNYi+WqyRXTGBZFNSJpEmVkpVYhl+aLIREBiOF9HHV9MXEV2vPfa+fqSgAFjGIYxAMQhjohDEOxK4Qh0CgIiOG9HHWdM3pWu2567Tzd0FTgCxEiJIAFRARIloyBIdVJKWQgsgSWQoQVwfo467ebUgu5577HzdsLWatTMzcazJlxNTKlrREKuhFVZMRlxtS4ImVVEyYoqksLCcFZWdAyJwPo46/ebkgu7576/zdgYIAFOCgAAYhEholQAOyEsgEMKcIKicD6OOBvFxBd3y31/n7AwAYIK7AAEMBAMBAADACJAmMApHA+jjr95uStd7y313n7AiQANC1ohgIBiESACIx0CgERJ0yIAef+jjhbxaVrv+W+r8/YGNAKcpYAAAAysCYwEIB0QgAQxAOvPPTwxdZtIL0HLp1Pn6oYwCxgMBBTgoIhExCABCGMB1GCoxIZ5z6uFGs2rA2WNdp5+0okADNfpsYABEskFAhWCiIQhyoBjpAQSaoiec+rzqrEkqJRICUoADABDGMCwUCiRoiasRIAAlDACutdvMkZEAGAAA1igogAxAJWgJWJGrRKCGgAhiGJWgIasQIxiBUgqRqkaiAyBMSsiCADEqGJJCVIxkRr//xAAsEAABAwIDBwUBAQEBAAAAAAABAAIDERIEEBMFFCAhMTM0IiMwQEEyFSRQ/9oACAEBAAEFAv8AyMPhpJx/nyr/AD5V/nzL/PnX+fOv8+df5863CdbhOtwxC3DELcMQtznruWIW44hbjiFuWIW44hbjiFuOIW44hbjiFuOIW5YhbniFueIW54hbnOtCVbrOt0nW6TqRjo+HB+Ah9cZ0UuEdqUq2lAtrgboOuX7g/BQVUPpDg5ocAy2v4g654Yf8GQQVU8upe8uyJtbM5zeDEOe1dQp3ObF6q1RKCLqJpJy6IcW2PE/c8J4XFH32+4/DuvhxQrBOKMZ6J4w5zFiujh6G2jESOBhcQZADIXhzVGW6Qbz4Dw7X8Udc8L4fAMmMIksN0bQxsjb2Pjc9oYdVsZGUsd6dGXrRdWRnqZGXP0/VYaiIh3xbZ8Udc8N4aHIZD5eRQyrXIfFtnxh1yCw/icAzp8tPk2z4/wC5weL9KqBr8u2uwOuQUHiqr79Xld7ZfRB/N7rVqBMkuLnWrWFNTmJeQf7esLdYIGrRLcXm0alrj/Al5RyXOlK1bRq8xN6Y3Xt4NtdodcgofGVorY1U5WhWhEVVoVoqQFaFQVtCoKUCoMuS6rln6RkeiIa5NYG8O2+0OuQUXj2nWGovWBHqVN9x1E+tAJF7i9YUl1vrq0HTtOgRImijKSUtfS14UYIDGuDntcTY9FrwhUwsFAI3KIFrODbf8DrkFH2C5qD2ouANzUDUfb23/IzCb2jG0ox8nNDlpCo5fc23/I65BDtfIMh9LbfQdcgh2/t1QNeDba/UegTe2SA1s75FvRXRCZ71BMJU4hoZLLMsPNeZ5ZIzFiJZFJNIx0L5XOWIdM0smnkW8PjfXlNMb3ySwmoImmIe+SaFPJMTpp2H/psZLPI6G7T4NtodUU0VNKN2g6kWE5YfEtpisaaQ4YUg/jH44+3hOWHf6MbP2cCj/wBGJym7WA644VZhD7GCN2JxwrBgzWHCm/FY3nBgT7ON7+Nl048JFpxcO21+oqLuPW0euF8eWHUftFQdrEcsXj1h+xix78/YYbYsEBp5S9rBFrTjHaqDdODACkmL7GB7eB7uL8fZ38YymsZL8Txbb6jqim9TyG0P7w3ZL2h20FD2sQK4rHCqw3Yxnfm7OHi1FgnWy5SdvCxtccTFpiJ+pBg+7jOxgv4wPexXYwKxo97Ew6ceHffFXh231HVFR9x62gOWF5wT+Tjh6IO0/njccPThuxiBXEz9nAKf2cSOeUn8YDrjOzgu3guUuM7GCFIsGLcRjOxgR7WNHuzsvh2c/i231HVFRdxyxMepFhJmsaw62JnZqRQTNZHhhqSzMvjw84YyEas+Ila0YaVsRxT2vOHnGU8tiw0umZZHzmJmmyT2Z5ZNZRttZKNKfES6waNKGZ2oRiTZGXRywvMjcq5bb/r9RUXcfk+GN5a0NCdG0oZGNjkOhCtCoFQcbWhuYaB8FMtt9wdUVF/bvpH59udz9RUf9u46/APk/OHbfd/UVF/b1cK3BXBAhXCtwpeFe1XNV7VcE6QIvAQIqHVWoKXCgcFeK3hNddlqe3qBXtWoFqtTHB3Dtru/qKg7rk6MOIjWkE2MA6YQZ6NMIRhaYWmEGctIUcwEtYAg0BGJqsCtFSwLTFAwDK0WhjahoTYw1WNTWhvDtru/qcoO85Ol9eryBqo3J5NWvqS8prqm4kykg6hV5THFyvKaSX3uQc4Nq5BzqNLqtc4l91auCfdW6S0mRAyKKvDtrvZFYfvOy6IUVeCnBXhJplcKngrlUKoQ58O2u8OqKw/KZ6c191rla4otqmtNbSUGFFpLrHKhpYUGmlpVpTW0ViLKnTWmjGmttOknsuWktP1OjqdLnHHZw7Z746oqHuP6udQ3ouAWoFVPJaLqEPBV6vV4TnURNDeg9XKvp1ORNE2Tk91qv538tVF9Bq0WrRMdcODbPkjIrD953UtBQaFRWtyNCC1BoCtCtCtCoqKgVFTKgRVAiuVaCrgKAUGVOHbXkjqisL5D+ri+71lPqmXL1VbVVfQX1cTdc5MuTOgqU2671Xurd61zpRxHrXqtjBBo6tCYqPVrkWPTGuDuDbPlDqisISMS/rVFwCqFVXAi4V4qfLTnxbY8odUVhPJd1fFV+kiy42LTWmKN+1tjyh1TlgvKd/X0q8+Ecvg2v5YyKwPlu6/JXOuVcq/Ltbyx1RWz/KdxXDM6glD3RyyF7HzSOiOKLmta5wgbJVs1wZf7VDEyMPmbh5b0Pk2v5Y6o9dn+Y7gHAehkDsSRrTYl4dISGSTSXxMed2ka0iV5bAWjd43a0cLnRNgYWCBxez49reWOqPXZvmO+qAAPj2r5g6orZ3mO+ev0DltTzB1RWzfMPC8Uka+xikrqPFWxm1apt1PUZHJhq0No+94Zq0Wo8lSxgyXuVzynSPTHOQ+DanmDrlsvzXcOiL9JNFAYgXvBKEIC0gVohaSa21ogbeIQtMV0RaxtE6FrnGNtdJtDE2uk1fnEVtPy29ctl+aev/gbS8xv9ZbL8z9qga8FcqiudRVE0AIIa9rsyQM3Pa1VqMqhF4DgQeHaPlt65bK8xYltzWh4ZCKD3KsrYA9R3VLXXesn3bW3NMgdeWvo8ExsBDBG9Br0xrgZAS4MemNeHStJT4iU2J1TE6gjNXMLpI2Obw7Q8tvXLZHl/QHGRX4sd5Y65bI8v6A+I8kUOHaHlt65bI8r7f7w44/9beuWx/J+vX4sZ5LeuWxvI+xXiGeJ5ztzwEujiGuDhwuv1/rA1zqpDWRuXLKtFeVe5aj1qPWq9asi1pFryrXkWtItaVbxMt4mW8zLe5lvU63udb3Ot6mW8zLeplvc63ydb5Mt8nW+TrfZ1vsy32Zb7Ot+mUmKle3/AM39Q65fvGeA9Pof/8QAIhEAAgICAwEBAQEBAQAAAAAAAAECESAxEBJQMEBBIVFg/9oACAEDAQE/AfIUbOjOjOjOjOjOjOjOjOjOjOjOjOrOrOrOjOrOrOrOrOrOrOp1Z1Op1KZR1Z1ZTKxjrwZaxjrwZaxWsa4/3B4P8UtYx18UMeDzXzlrFa+74rh/aWsVrwZ4rwZ4rwZ4rm+L5vm8bwvi8byniuaxrCvyzxX7FjPFeDPKiuK/bPxp+NPOy+LE+LsTGWXyy2XizXFn+8LGeUhD2SEf0kI/oyJvCIxC2MTFsYhjYsp4LiQiiQj+khD5jhEf+8RGIiMiP4TwXEhcSEPZIQ+EiOC4sQxCGRGPOeC4kLQ9khH9JCHsZE/uERiEMQhkR8LKeC4aEzbGJi/6MTENiGJ8NiLsRo3lec8FzXNc1+meC8KeC8KeC+F/S/heU8FxRRRRXFFFfGiivrLBcWXxfF/rngvCngt/nriuKKyngsb+l5XhZeU8F4UsI78KeEd+FPCO+KKwr9csI78KWEd/W8r+8sI7+zzv6y3hHfy/vzQvpLeEN+FLeEN+FLeEN53giyy+bL/BLeEN5UVxXFFFFcUUUVxRRRRXxlvCG/ClvCG/ClvCG+Hwvy1gsZbwhvwpbwhvwpbwhvwpbwh4Twh4Twi6L8F42WWWy2WWy2WWyy2dmdmdmWzsdmdmdmdmdmdmdmdmdmdmdmdmdzudmdn/AOQ//8QAJhEAAgEEAgIDAQEAAwAAAAAAAAERAhAgMQMSIVATMEFAMkJRYP/aAAgBAgEBPwH1DqSPlR8qPlR8qPlR8iPlR8iPkR8iPkR8iO6O6O6PkR3R3R3R3R3R3R3R3R3R2R2R2R2R2R2R2QnjVv8AtnDj3jVv0PHvF/6yRCwWCuvv4941bzejQykpPy9Nvw/bas/r4941b+pCZJNkySRiJtP18e8at+h4941b9Dx7xq36Hj3i92hEWiyIItBBBBBFoERaCBEEEZceL3aSbSTacZ/k48Xs/DweDweDxfxj+ni3jKcXjx4sj0HHiySSSf7eP03H6bjz6xs626r9GotCQ0JSRAkNKyghI6/9WS/WQnalfpCdoR4IQ8ePKjZVsp0ULyPZ/wASgq2fgio0roqKR7KtFOypeR6KSop0UobnLjwdqCrYnBQPYtFA9lOhbtVdFRT42bZUUlRUU7Kik/M+PKgeyCgYtFA9lOhbGyq6GJzsiCop2VFWikqKRMay48Hagq2LRQMX+SgexaFsrF5V0VFOyoqKdlRVop2VFItlWXHg7UuGVI0hOBofhQU+BqR+FBSipSUjVkhqRKB+ReUJQMXlQJQbEiLPHjwd5d5d5/p48H6LjwfouPB2gjCCCLRaMIvBGMEEZceD1aSSSSSSSSSSSbTaSSSSSbzaScuPB6tBFotBF1hGMWi6wePHhVr0XHg9WRJK++SbySSSSSTjx6werwQRZEEWgi8WjCLQQQQQRlx6werySTlP8/HrCrWC/u49YVa9Fx6wq1aSSSSSf6+PWFWvRcesKtfwxaPvo1hXr6vBFkpFaBW2aGvt49YV6+qPBpCsj9sj9H4H5GPx9lGsK9ei49YV69FRrCvWSIuhkEEERaCCLxaPqo1hyaykm0iJJJJtJJJJJJJJJP00awr16KjWHJr+yMqNYcmrU2Z4u7+LLCTxZYSSSSJjxo1hya9FRrDk16KjWHJr0VOsOTXoqdYcmvRU6wrUoj0KxgghHVHVHVHVHVHVHVHVHVHVHVHVHVHVHRHRHVHVHRHRHRHRHRHRHRHxo+NHxo6IVC/8h//EADcQAAECAwYDCAICAAYDAAAAAAEAAhEhMQMQEiBBcTJRYSIwM1BygZGhE0JAgiNSYrHB0WDh8P/aAAgBAQAGPwLyiLRLmqtX6/K/X5X6/K/X5VG/Ko35VB8rhHyuEfK4R8rgHyoYftcH2vD+14f2vD+14f2vD+14f2vD+14f2vD+14ZXhFeEV4RXhOXAvCcvCcvCcu20ty2W382NmUMV8dY5bHbvpfwzvlstr539kTVoBh7N55BNww4oZG4CJmE73OaYQTIGWt0zf07n3y2O2e19laYtDAJpdVOTQP8AOFaAUwgpjhCNY3M9YREYdVZ/jEAQfdWpPFNWJ1j/AMK1pWE0CW/klApuCmii6vdf2y2O2dzoifREtImg0UTm80AXCRjRF8dIQgoYuxyuHahAxonBz5EQkEwm0m3oncnJpjDD0RLXYY1XYdCUE2DzBv33Y9WWx9PkLfVlsfT5Cz1ZbL0jyFnqy2XpFxb2eaBPusQ5RRUChcQgOd0OsFOcliUYIyUU0CUSoqJquSaABHdeybOAJmVq5br25qMstnvlsvSLowmqBQ0VAqBTVFRTVBdoul2l2iktEDGV1chBmpZbPfLZekIuwyjdBvJdqidy0UkIRXW4OIjBdmqKhBYdYQRgnYlJf/clIp0UI0RgftThHmif+VCeLqiCpHSFVBxjls9zls/SFULiCgqhRH8yy98rNkSdVAc43Csv5tl75WbeQ2XvlZt5DZe+VmyiUfxWchqU0Qg6MCFOiJsrOLeZR0cFE0CJswA3qi14g8Lss7PNSYCjFohohiaA27/DAwwXYwrDatuFnZcf+yH5IOaVEUQs7IReUDaQc1Rs6wkoPhHZGmKKIaRFD8nFlsvfK0cgocymph5qGrim7KtUG8ymrEn7J6/0C9+ydsm7oJzkUOiLkVDlJeygKuU+I5rL3yN3uYmJjo8KYmbIbhM90zZFP2TwKldb37J0SAg2zmocgjsirTdHZOTx1Xsmudwxz2WUJiZsgDU0TE3ZfCYmbIp2yI0ATm873bI4xGSxWcQjzgjsin7o7Jyfuv6phHumnNZe+Ru9zCmqwTT1TdkB1Td01Q5wT9k/2WL3vdsnbIo7ojoij1KcE5E8yvZEDkns9xmstsjd7iBXRYHmEFjHA1FqwvMCE61NNERqsNpIhG1hJOYYxIToz2UNWpjNbsOEzCiQeSgxskAscJFBlnNBo0X5P1QZZTiocgo4CET+MyWMMOyiRhy2W2Ru98XNEVBogLoloviWgqV1O4mpAC+QA7qz2yN3Q8hs9sjd/IrP05G73EahVCrdCIVVUKqqFUXc1Mqt05I9FVVVV0uDoVX2oKVLpZbPbIze4klVKqVFRmoHVTJWq1uhyUFEqV2qPW+d8NFS7mhKikMtn6cjN7i2CjBGSaFAdFRfKohpNCB0XCqaoxCpdRUio9U6VL3VUBzUo6Kk1IKidiys9ORm+SXcyzw7iuZnpyM3uMCiq3VR0VUaiSqiFWiM7heVW6qKrdVBExVVLK305G73fF+t0UYrZSu1votbiVNBTrdBdYXNMKqiMvvMPTkZvd1VLqXTVFJUVFS+l1MlLtLp0UlDOPTks/ULpCUFTVSXaXyjiu1hFABCK7SO663f6V/tdEr2uHNHEuiINeqqqqv2iScv9cln6rq+Qf1yWXqF2KKqbqqpVf5ftksvV5F7DJZeryI7DJZ791g/IVhe7ECoY6oQfiWMOI6IvxEmHwuzaHHyKDsRBAom9t2I6RTnOcXIkvcEWmo707ZLLfug+cE0tBAHNCsBVNewdjZQgYmagAcTeikxzXoMIdiIXCcceS/G4GMKotcxx2TnkThRRIh3h2GSz3/jS7x2Sy38ifks98zpnCapsi6USbo4jX2UIwUYupqow+0ZdlcE90CsRJ4vZN7IMeq4U2lbowjLmpQLaRTOGqMAIaI44dy/JZ5nGJnohMylvdinsoaKpOiqVquJyhErFE81VyKhNHeKiVFQ0qj17p+Sz8itMjLpqRydboZIa3Too6LskG+d8yoil4UDVSOW0yM97gIEzQgIFGMa6r9kI1Tey6KdiToCdQV+8F+yi6MzBAtRiD8qk1NUhXVf+037mgQh/wBpv/a7IHunGi0+VpRDhkViC0hltd8g2PkVrvkGx8itd8nt5Fa75D6fIrX1ZHenyK09RyRNDJSMc3ZJh/LceuWS4j8rid8rid8rjd8rjd8rjd8rjd8rxHfK8R/yuN3yvEd8rxHfK8Ry8Ry8QrxCvEK4yvEK8QrjXGuNca41xriXEqhVCqFCP/iH/8QAKBAAAgIBAwIGAwEBAAAAAAAAAAERITEQQVFhcSCBkaGx8MHR4fEw/9oACAEBAAE/IRaxrF+JaYI8EeDbWK1nTPg+dW4GiEu4dXzldPWYuhoB4A9XP+KF/Cn+EP8AAm154gfahZ+gaP4H3IfUh9SFH6D6EPqQXJ9BB+5H+wj/AGUfRWiXxOe60hQAjH0OuqJnTGDdm0XkI30IhsSojqLcYjY8hDSmdydFEk6ULAo0XGmF6Np1uPkzERN84KxU3v3EiEsLR6miwzAXpuKqFw6GOwtBGmwtF30WjmMJ6jqRUjYsQq1POmw5PMIRIlyMeJGmRnsut8CyTImCpiMkEoFB0EKzZpXgUqjhCuxOkShbDpEi52RNGlciixEkoUhdJORqBNuuBOW0KFMk4ks5K2oyQUYsSnQp5Y1CElySDiNghjqN9ewmfDFiIgWgrIsmEbHQZX6sCUFdqrIzoIxEja0JniXJ1FVJqOtie1dp5W+UZ0ahtMjWDwLKiVPlEAy3pgRtbHuFbG3eyh0tWos90iRSeKP4H3Z4cHkPYiyZ1WhDSoqt7ChnRaOrem520YGWgjXQNCU3yt+TAWVCZCIRIiyaGa4CbC2jBW3tNL7SIdXDzAmZSYQR1J2TBWwrZVziBRILBvN9lEyNU2VQalDBQc211m+snOnceBae3fDMGkiPYBuERgWF1J0YkbJELJsSM2GxCGkWkxIUKtFhXnowmTnSdN9Njcf7uGYJ8BY7QanIkbaIQNciC5NhiogiiNORIjRQc6QJR5EXq+NOdOT7HQWGqPtuNbeixRtpkRv4FqjYgiypU7IuuNNjqbCV6rVn1uhgEhGR9txpfMFseJYqI8Ujov2OTQbA2xTEvgYoEuduBjPlOZ9DjTc46m9m67EqKWFYhup8okjFlfILVDyTV1IilVEwTX8T8/oqRvPdcwRSbqRnLRLyokjIJ2lb5NoNHylNv9DNs7aB8wcsNhqlCWWSH4EBtAqd93v6Cer2Qrre5I7rE5dsSRu9snJPgqrr+PAZH3HA+hYilUwf5RGEFsiBtz6BYsivAlKp9zkS+mRIRpJ5gaijfU/xDjKewk7Q7GAoFdJNbUNqxDDIUURNYcChLSiHFQhBA2xyi8ymujESZtwtKFckIqRo9Nj3L4MGmxkJ9DY6YT2l0M7uYnaPsCmVNYVG/wDChwbwYTYEtJuun3kyLKHBkO5Viq/ZEOsPft/Rpkhm0vImvgO4sf5/RKa0NQOmRpc0KVCrAyKhtt0KVKoq+39LCeWsz2fJSUSsSSRLnPQZDyi56IZVW2BIlsN3RoVIbfSXT+iOJCG4fvht56i7TSnCUtk/2X8J5kkTlWIWhMOjRkfScCTeZdcEt/KILbqUzErngQllMgWiWu49ErIsiNN9Hgg3EJQQJKDD07i095+BkhjwzIikdPwPZkwnyERZUGkYJts9VEJFLjwb6yk0tK089ORDerhXpgT4JRIznTY9/wDgYBjtGQvo/g2YhGSBVvokLOiwRogQS0zpUkaNRkjnSK021en2uxg02ZkeQhpRgk4KvR5JExsnRE2Niek0xPkn0JGSTVCZKnTAlY1WDD7bCHuUbRTtR6bCWWN3k3gbUpWTA2kbaEUlcpuRIoRrcIa3wiWQxmuoduhEOMTVTIYyq3iSFFOGe6JdyplCJC8sm2PmkaEpIjzS+SDknKZBpNst4DedhshIWS1o6oQbFhFmBkjbyE6FyoJJM6kOsbj45OigVaPONO5Iinl1GBErk7IEQK9bsKuoliaLH5K7sCA9xmiCa/NFMfJ2QmDE2OrCSle57wPCft+T6HH9FgQ3qfgdeSFMboZJtxOSQstN+52A0Q5ubImPqxOyaGuRzNj4vyQPFeRFQ3X+hPRjVCMu0LDTEgmPCQacWXT3Z7QxhlMRkvFdT2X4JQg9RSFp6Cx6Iv3PwP2hibxutiFB7oW5iWWQrdOW0Tq3l0leMc18jVcU9Dav6Zx+PkpIkLAnx+WKQU0RJcLRqtHr5aGYtMS6rliQM0eQhj8QelGMWfGx1XMQggaozIdZ9jci+TCPd/gUzGSQM/JCZyWS3uI1IpAnchSkS57iZHk5jzH0+RfNFPpyNl6fJg/KEnYnyxUpnDcjGmYh9/CZ7XUYCz2B+B2S2mONX5w6AsQPJwyK5iVCvIla8UPZnehD3f4LZTX5Cru4/kjZYenvxidAnelR6iNz7/gJOO5KPMh5i+SdxlJB4fyfCIkgVZvb8s3PWXczD0GLV/WGDTE9oM0bVl9w92rcftjCZyllC7gmBi1GEiH+pTyTesD3zJXU8ik9x2FIjlAq9pzUjianWJ0VYya0Ka0leQQnEj4+TmXLfUpdeYlUHaWxGICDi5O+glCbNdCIym6tx+3UREmaeKjkjKq8NmSm2iNYae+fInTTEf0Bs7aSAOQiocCWjOXfLQiSURBA8l3LQiUESS4EO2kzch6HSQlOYUiMkKMEbGENJqLSIvTFGjSacpM3vOEPOu+dY2GlGGU7n5GppieyHxGwh4jSeDsNmxOiZIjbSdTFjTfxbV4fdxYa/aD8TYwTeiJEkwsrxZJOrSTItJ8G2i0MUxpI0/RkWGmJ7AUdC2ryDRHyEjwjubZqXg5w7itJIXUTf3EkqFWLFd3Lr9YcKcq6QgpShE0xikldxtEke4uu/HmJrNsof3yLhusimsmNLJpK2OD2feSQ44NPkdKrYmfDKnlnXeNmwprXwOrLdT4kuSly8UJZl1nw/Z6iw0zFTW6TXSwlD28oE3R23MWx9/InJMokdsp95/AmWKUwNmR9f7EHTp/f2LGn9R+hLxKyJSo3DSLLOIgsBQ7mQ8lSMKH7u/7FCt87Fe3nnJeamXedxULOImSChOsWc9SJFVNpE5Kwm00ohQRFuDlSbRFsEUKWixekG++pFhpkPHZ/I9kCCtpTnLJ4sffwNZKQNbYspXN4E8RL8rHrVFEmelHD9jmJpGZN6rD4wV5WGtUx7x8ihIhPTjdw+BMlNKMC3PaQSUN2n1/g51hGEPgckvghmyUN5gRJUc0x6+xpU+F/RPKC4KVsX8GEd7F2Fx0N877fehSb7q7/AML2Ry3N9jqSO0SfS6izopbt/kzekqTeEKi6rGituEM3JIKYWcm2sHMrWfCmCYupBzdhksm5JWakyyiVyjJLUkGUXmOsGq16aN9XLMGtpPC/IljTqNrYmtJarM1v/BzvyGs8Y/ImrckN++Qi5aOIIiaN3UfS1BwJRCYkJZf0LKeSyRpWq2FvIGunKxGBOnmpn3kbYyt+w2mYZ4G2zXp0N23dTx+h7MzIm9c4KMuIUY+8F3PFrHJkU0rkliE9OkEIuThzDLMm5N/A/wB/LMGlWe3aMskrXyYk8nEDVpyQ+ScCkv2NCJQhshwqPP8ARIdFjWoXKytpFJLipcdBcX1H7EPeImkdoj8iXkIc19f6KeU56IlMVqSCqbf39j0plwUoz0Cc1y/QW0hzv3gT5rckgplYr4/Y5h6mKHAnhzPn8DkRomvwE1Z36aNT20g9r/IlrXbs/kzks2glhBzcu5UQzpBJJylYkJJQh5RmJJScK0YKUUYDV5SkaPKR0D2IxSUiScCKioLpaRDeI6iiiHoInErBFGWWJUo6DeAIQkpYFEhqRQbaWckmxjT2b8mDTMSfqXorOnPcjcbgloUqXVDK1GUWPZt6/wCDSq0m2oe6Heg3SvmO/wDBsi8hgUc5UkEKS+CRMpFUWY60/U1gZkmUosVkhLltl5GGRJbGelUKRtzuIZ5hSQynxn8jKyaVlu3bnr+hSgbKsC5flgW/w3fIxPSgsW01jJA9cHKT8mIZmOVcPkyjVU0nMCROd4o5GhqnDaEhc0yVlO0ztokQRZejlHQhi0SyJEcF6QNEUJG4RwQxZvWT4hgPIzPuOSczJKqIEn26foWxy7/v7Iq005IxGxBiJkUm2+5ItV1/4Tpz4FnwY0yN7Zi1L6L58AvDvonK0jVXpvorFHmRx4USQqQvEiEijOmR7QRl0OReB6OiRtG0iaiiBvkTRET9CEEkPIVo7m2q0WkCMaUxaZFnPaQsN99MPpozuKaJQs4HYyU6d4FrmFl5IaqMjlYg2IxNBrWUrD5Uod0qVCeQ7l3WxsJmfGG6LApCSoYgLAeTuMWq05Fp7ILqryGUuSRtzAtF4GhYGhmIAoR0aHaEJpqadRx5Nz6i9L2C2kQZYiL6iKbhSVDpxTbqUShZbh7EO8VDf4nKaDbs6bhLmG2oN548CNyRYoRvqzATqFkx5I0Xg2HgZBBsRolPgiRTSQl4MaJynGxBgeSR5g9uvjTgSywHt6YI0eNJFjTzNtU0NBG4i/IkVrVGxJFVrsySwIt5HwYzyMmJ93BmxasZIjVliWMUSFk8EkCVEizTuSUkuCnzLT5fQioynewbKB2lTO5LSSbY7B71RKkZabq5t0FeVMTa6RjeYFQF3ZxBI6SM57IIsUIkdtwR7SzzwJp8k/IONbE6g6tdhZNjPY2PgfBjJHkSehPwNYtJETMvjDZ0NXtkovkV0t3Nk6PlamJWspt0WjpQl4IkN/LnIktXDifcwWROZm2RasjdnUTSakkJ4nKsbnOb22FaPOZmyPbLBsW23mxqtzjNDfU7bmNsSfOzpvKeXsXlrtpN9NGWJyfC+DBo8nyPgbwEd7NtLsyhYFq3AhUtG6EM3FotFnWNJylkyfA+DBo8nz/geRBZJCsRxw9XihJMNro0dk748FySpMEimNktz4IQafJHsKPTYzpKaWk5ISJN4EqmSxKxpE0bSbwKjrdBK2h6MihjeuvjVyxZ+zA8kdObksCtbZMczv0GKolraZJklQm4fX9DxlajYimUBRnNo3bBkCz9CKJMLb30/JFHRL8v2OxJgS6HUDxEzi1kZUzENcoZEFJolSKyzupxwMqVOu45cisTMezNfA2nMJZbhKkpJ7iDzwpz7+o1I3U+QQ5E5DBCU0oh+pa2VZ7h+DbOkz0j+kk3LXZiyxJKO5QvewtUxvI0u0COT6zgeSL020iSBdRawQNHbRCCNGiNNxgjRiocCOumRY8J1PWSTfxc+B+AiBsTFnVoYkaqFlQ0Qlq14VPnj1SFkfjerwIWkaYERqzZqnpues/BL6zVHXTkWs6IwtHgYs6ba/PhRqsCdCFks7q+dCTDPevlD8C8G2snkM2IEqEPSSR3pgIek2Jko6DxRhjy/pJlpFi1NhUmLjT1Hmb+BXoPYRpA1IlDH/wYjYjwSYssLgVpaODR1qZiQiYJ4FcC5iOHVcIlg/15YSj884PVC3Qf7YRLgN/vi/vFMe6Ml4AmJtby9y784l7zynYo/QXL9Buw3ofYhI/kXG9D/MKq9IX8YaGq6cEK6J4JnZeCReJ50em2mdNrFgWm+r031QvCvCx6liyx5dzbw7C0IeHqb6PV6IRybGxsjZ6//9oADAMBAAIAAwAAABDmSBKARKQTSQB6AAQxBKRUN8sh/mx0kGLOk+mshXlKwjDC0lq/d8nWzyYCPCagnHG3HvsK01NNY2fJItJAo/JgI8g059TAwL42k9saVbUWq1g1nAYTAOaG4tqoYuYN9Em7UIQTPUGlaLBLTaDwpY7JZ+GP7Uk0qEqJa2090oZcSEd9HbanW9rYBQAUrUODK90HQK8rgOofHKWlxSaQO0zZa15WShwlrJj7JK//AOXn9gYZYbTcBfFiqFGHJuqhk6RVSSkNvNI/jgnG9evEtPS0U2GOPpWFBHwIkmdr4mmxlosvoAngD2ClQtC1yGVzOrq2GxmGlSAFM2PTKWxyi0BiTDHu88y5SuIO/wDeMNHYkUxso9oh+tg/gxnl/UhrhZJJ0gh/Ik8emus/2pjBpsYumpR//IrNeb2VoIo5lmAqzSh7AWly3MWE4px6HggCr0jFqphzaVqkhJ4oVCsQksbdhSmtTYiQI8bq39idyDthlYaXhLQIygctdtLCS3mkQ77IYSIdbTTcJoIeX31P4miRYJkGooL7/WxIn3A/5dYYw9jTkM+KzbsudriIsEYBcG+S6v628m+2xSAtj55sSacDCFhPG4f4xHesxJ4VBEiTUtbQSzUkUlooJDha8xro8L3BVBpAkghY1Erkasv/AKInUmlUpFaSo7nArW02/JS27HJLBIQLChdW5m1fB5UpaTJJQELWHdU3YmU6izLYLLAScBIGoqyNTXeGHLYLJqEaHqb0p3aPAi2xbJLasECOZIYampFXG3XLSFdpOGXLJJbU0XpIhIBJK7UOSMLooEPjjVf3O2VZ/d8QdJKtpeSRwNl9k/JZJu8I6DXkp+LfzZKxLSJ9+OfKLEk36dPZJi5Y8BaQOLeF8BsP2+D8Yi0MSSCcBJfusnZ7FNXYlbKJCa8fJLL6kn2mlVdJI3rQKGVKJbw0s37rLoTdcCSI+FbPlG7+1G3LbBZPL6E8DHLU5LBASLE5d7Dz9wiEUn4ACgiIwk1LIQUDGEREr7KbaWn51raAHttTt/l91fd+2yuSg5Bv8t5v7T9sMEfNmpRO1obvf+r/xAAhEQADAAMBAQEAAwEBAAAAAAAAAREQITEgMEFAUWFxUP/aAAgBAwEBPxDxPpP5DP4SqigCol5qqsFFFYr8BNl3whNBfSE+smITK+COGZrCIL+BzKWsTCL6kJqLCwg21wT2WENjNFEyjP8AClG/6GylFzDKd9TzI4C8oXWS2jVC6EEo2JaqIfgguk02P8O0hxrM998yOXhvFEmnSf0JRQe1Bpsm6JTCUavT/oS6sIQnnvykchLEIIpcUuKXFEPRSl8X48eEco5hYhCEJCYhMQSHshCZhCC98eEcLwmPCfy4XLL4vvjEuEcLFdELqrBMbhAmNwYpS1UuC2Ub8CdGywognfPA8o4WIQQhCUQSIRYJIRBJCIQSEiYhMRMSSJ448I4N2lZX+Cb/AE2bGbNmx0dFyH5BUWjZGbFwQ6QdFtC0TBeOPCOCp6NDE0azCfSEJiEIQTxzwmELhGDVwS1lfO/b8eELmXrE9onmEJ7gvCPx4WbhFL5oi4pRPN8UuKXfn8+Fj/omfEbmkU+IQzUK4KdGa4JmNkJtveGa4JnBMtPDe4htrotjRxDb6PzRS6cCbZ/rz+PCw0RyJ0NEci0W1Dkehxh1l8eVtYOSSGtHI+jsghYi/F0dxXQ6dGOB4E0dD4xOIiZfBkfgiRQ6OTk6OMOy1n58nQjtHBVhxkNo7Hwp0aOYo+Cp9GptCpD7ODk7OMOxIhOoXwU68bgIJof4E0JVgTWD1hB8w5F0as4F0dnBwdjVQ/55Xl1iiFJRi6CVCUozdhaoISjEropaHgybhXWIaGg20Qk0PajfCEoocdG7pHEN0WgnHRO4nt2LDR9EpwhDFiGaxEiInqESwxL3cI6wnjrNxSi386fmL4WXlYR147yv4V9J++vC7RCiZSlLhSlKXCZSlE9DFE8X9KVFwWxZR1hY7WNsijCeBBIhKSEhCZEElmEEhJCSWXjvCQjvDjRRRBtrQg2JvDtKViZWfpWJsrE2Jsps2OmysVFcJe3fnXhPF9IqxcT6depp0jIyCo0zZHRpkZGJMjIyEZCEZBLBoQSyJTz1lHWKUpAh0pSlEywpcIUuKXCiZZkTuFnrx2sNEITH4IShCExCEEiCQ0REwkNCWZ46d+OAht3RWN/0Jmxf6bKzZcLRtm8TZvEbNn4I2fmNkYk1568cMUo8Jl9TzPUIQglCeevHDD2uDRCYLWL6RfSzPUx3lHD4wYvjPCWO/DvKOHzpcKUpUawpRP6d4uZeo8tuwTacZWmNtDNbLqif9MdLo4tm2hUhel8rkLXq5vRK9DZx1DdQno1+D4TQt6E5piPpsvS+MsC+MITEITMJhaJ5mV9YXyn8BeKfAdooKN7Hs08C03SsbSk2NsrGxNi+cvZ1RiYNC/t4CUOvASwaMSECT7wvqlmZmUT51F4L9aXNmbBPNKVee3hMFptLDYm4bFSGysWujTujeEtEZsVGJMVxHhGJMafRGvPT5i0PM9wnwSzMo6fz5Z746fyK+15mOmUd/C/xrlHbyjti+a8rFv0eEdPxYKsX3S+b7TyvFzTZ+aRRWL/Yv+z/AGP9i/7P9hv/AGf7H+h/of6H+xXoAl7qqqKxNyn/AJbFh/ZZfhi9sfj/xAAhEQADAAMBAAMBAQEBAAAAAAAAAREQITEgMEFhUUBQcf/aAAgBAgEBPxD/AJHd+IVd/wDUX9cP7n7n7n6n7n7n7n75/wDQ/U/Q/Y/Y/Y/Q/Y/Y/YQ+eX38TysLKfzrUpcMFlnfwsXC9oXpHfCFlL0seMM6OfWKIm9mhN5SoqdpBogqdpCCJuMSUdITKRDnlZV47jJ54D0UFScGjG2xuoxtJtPH2Ex2qJxELjNQJ3S0I7vyvPPKzv4Sy2mkir7G66xo6ITZEg0f1vEBIuInag3GPExaRia+z7UXxq8dBs77hBEJiYWIJCWZ8Qss6YQ80pS0uKXFwhF8UuL8Ess6eV4gvFwvKXmfJdCGi4pbjwn8EpY4QlRYmNHD+MWo4aCG2bgTpsIPcamvEOxZZ2EVCi4UJzClKylcH0pXivFzsuxMpWtjbfntiyzsJrQgn2H/AALTYgkrs19CYUehRdFBvdL0UPbwqKhscgoQJocTHvZVksI7fhnTKRHBLRGPwmJ+l4pS4pc3z9xFwzpidYqCy7+FfEsInmH3Flj7hC3mlysPYn5oii+T7iyz7xBZhBLEIyExCYmVhEIQhNC8dsRMM+xbehp0F2LZDrGVY9VkdrgpNsap0S10QWnhW6PuIao4XQLgHooq4LgFLsTto7GhbIuvP3Fl8LsWjdhtyg7EoTdNmFWez6ixQ6WPYoSRmCyTsSPFR0sJ4R9/HDx9zoRNH3OhufudsGgar2Xc9Ct8PsF2HJ0dI5wdnAlIXv7+HwfTlnYp7R9zp49KLtgQSFqp+CR0O1w4A6HGDpYuj6nJZtEHhePv44Yx+o6Hc6Y+2N0Nto7YuWHLinRzgfZxgbZtgdnI0oT79ffxw8o1uofL7ZZR7dWJaqPaoYDXsYEaVJ14tvERu2N0cR0saujA7GdUh9nco0mpRJi4R9/HLHhK0hu7ZSWkXCZLpWytFZSsWFlODbfcIbeL5hMcvxy8ImZ44dFmCEQmyEwvGheuX44fwX4V4nqeFnlizyynFKIyCTKwojEIIJEIUJDTEExNCGlYJFYJhqeeX47YUot9wdI/g6ohZeH9CYThsNleSbYr6UJsYobbyljl+O2FapJEMJKDgSDSRFCIREQ0kQRQiGk2RDQaRAoaIIhJDSI+srHL8dMreFfUINeUniYvqE88+O2GU2QIE0htQTRUVQTRV0qG0VFQ2VCaQhBRu4KMHoKEIuhYQvN2wlcFSKOEPB7CWSUSwmE2QSwlEOsFWZprD9nY4JtZEFvpYyjdK8KUpSlLhMpRFEy5vwnQYkpsiQi+xpfQoOfRERQUmyIc+h7IkaNQTUho0KI0fY/4jRxmioqG018N3wkJURBqE8Uvi4XqlKJ6xRfAd8KVMFChtgj0glhe1/jO4/gTF8N8t+57O4/KF4SIQhCFEeEJ/huoyeasJiTKwaNVCSaEIxU9MaTcHH0TwS3w00RppCOx5WEP2LPUfhYghCiBPoLEbajFjGgm/vhs6UJVQlVDJ6Er3fhu/wAC9UpS4pRD3hYuLhfA9/UF45hZoszHfU8c9ffwsNUbNiQpIabEuhFGf7g1CHjpcJ6EhEqJBpfXlfBdfCwtILsbFrBoNhY//A3TmeI6NRNwssv4tZ7+b4vlF9X2vXPx1wlSeP3EF56SEeUm8pN8JvEIUyMnjn464eNjjeyWxBpXRoiaKoaOhx8GU2KITjG1SChtDf0qKoJoSQgSDQQlBk8rHEXwKLhCEX0vCzM0Xrh8Hf8AAvC8rCzx+CXlfCsTxPKws8/8VMrC+CZXjh8UvjgiEeFm+lnh44g5IQQiCkIQhPMwvEJiYWZlISLzDJPyPwPwPwPwPwPwPwPwPwPyPyPyPyPywfgfl6gn8/fgSG/+TBfCvD+deULKP//EACYQAQACAgIBBAMBAQEBAAAAAAEAESExQVFhcYGRobHB8NHh8RD/2gAIAQEAAT8QMYz1ED+4FxsKdQ2aKhtH2j6Mci7jQA/RFw0TKZ5nrqo87W+IN1EDjjuaDePMvXR5gvHcUdfmBigq521K7SoXejcWipVrxHFle8pTep0OIcq11Euj7ubVRfiIUP4lcj0nc2tKQEvFlTaFFoLWJWPMAUQuGI2g+DuWwZu1/kRVs5y/yPFZ/nUqzX8+ksLP7+kwt0v84m3B9ETTSxgS2wLmShf5PWFGMX9bhlyH8cxM2uY/0g63UO/9JkUP78wZ3TO/9yro+f8AWOTl/fMaOfp/vMJpR/e5v/r8wzZ/z5lGhrf5zHv3j/aAjl/juO7m/jMD468/6iq13bP9hi8mqzddxcb3VwZ+Y1U57f7EGD9pZ6NFVyircurxMLL5je4ZS0C89OWZoDWIMJWPWDWKqKaMFZX8TDpfeWsy/TK1pUGZcE6m1e61M5oV4m2sVBYjy5mSFYgFmIrFvcbYmOX7mAYxuUWeagViwC0+pgYTWiYbJYusSsOOBESlO0iK60ppbccBSYaw4hJYKCDeuIWRcMZLwxNA4mGhSd7xzBMjyyii82vVl2Cn7lBTvuDF2qmonRuWHXmJa2VmG5jwzKqzAzixlGqCHJDTUXMMbIbsHHYiByQmhtj/AO5yox6xOQNdwAoGW3hdQNjePMFqp5blUl+IKZy6Mr69RBQy5WFjGIrxd14jwXdb1MlndQZxMLvR+Ysa7hrl9oK3xygDKoFEVUaundzASruFtuZcml9HEoBmRXECvCwgvK+CByS0BmXW8Qcll5SXFwMrBV8wUovbYqxmYSitYiVDkzUSKcQ3uaBN3cK4ytVS1DASx1GgnFiwcRDprWC3MU8RQFDgW7gbgxgtgIbEdJzG7A47WXr0TuJONxuVPVxNqHxOZYdQ0nuxNK3TccXw7gAuMcXE2xv98xQOYGsNe8cGkQ5npi49iMstlcTI+TcSpdQty7uXdZF5ZY1qCkd5xUWoD6SjzbvxNmQUCrRS/qGtrBkTNwfuyn5svLTJtZFfVAi7HGqFyY1WKvGIZXuCzxu+4ygg0EVlviXx9q1gUXl5bdy4lRaZKQD2PzKNwSUzVnxiA/GrCwCq91fWU13MKIto3fJvBM4ccxZy6rXtHUlmBdRzXCWaDEiXjUEkdkDZGnZqFDmZe0pKs9zUZPo6ZgXnMF3XiFg1QTJLYSrxYLO9wKoI8UxxLaoZagKqr8xytj5WUUJSjNzBre9QKpndceINDWLf25na6C6l9IqIqsAvBHe61pQKjd9rMLgo1i72a9vFxAGvUmvwcxTXMSTxGLeptmIIOOCwEC8ONyoYWCvS7zf1Ms0hyFpM56Zi3hUbDFl6a/UDnNy1Lnd3nuVyUCZZK9ZWCGsc8EsN/MMG4UHLiK2GysQoeyQLbiClx4ti3jWZQM2yCmbFx9pbLdQ25fMN991EIltsqMqOgu0ML4g1rHrNDo/Mo7ZQgrupR3xGtj7TQ8mmF1fMywHNTBviDWeC9ygMWTIx3mLePW46qB5gMADQHEtu+QuVgUH0JBwnRLFKqoKlZXcs0oxjcCh5/cwym5xZVRzw9Jyh7RMjm9wPhMYclYJ9ZGv4lUNk2M+0PIv/ADl8oNO+pS4L81EH7xLLKuuIlHRxMVbuWFrMTKu4i7GSiDdDDiCyiCysd87g8FYq04lVdO34lYtzDpzjcpbdtwEvNwRC1136wLfSX8zUcQZUY7M+s8XiKrBmWXv2nQ1N3m8zmwhMTecflOZeGKXqGuRl7OoQPfB7IhRUFrB7y8mC4cH4gyyieziVYbuPBuYBXzBoY3maHEvLfMGroWO9xxz7y8NxWNW1zmXXL3lylLchK9Emw37wbFEpy5vqUt9HMF5YgAxi6d8wMKoiNIyqS8y/xC3WqlUvU+DHQ8v7Jyu4FWktS8+SZHgmFn8CGUaqF0UFvICrvdBHTIzDdsKb1Cqxnbni80xWy9KtEA353ELFYJwWxfzK7CgazQmzPiGAaSamCjzjJzOpFIYpAll7y6hAK1WQwVbl8zLvTJstvoYhUUggdIXXqwCrAQpZ4L8MbaUTw4uz6g4KRIsKQVZ9U1Bmg3PqYykPDioclkpUAKBUYPXs3KMyviAVP5lrBwOop3o/dIOckjizEv4FDRfCa1bnXhiLGqmTY1jFOPzFrU4Fhwazxbi/9ishK3xiQ0HSrjygD8CiKU5oq8fvK3hbAhyx5S/EZRAmtNr+ICmWW+WpWXuUhd8zFmxaA1vh/wDjbd/9nVuYjz+pFeFNuytuTq4OZf2VX8EKpUOhXVQxP+pv5hbiJSxd9/Uqwg2AuuJbdm+TohBeWFGI0EbAXrmFyFS24VbuNRb2sP7iA8QC6Qo4IqjVQY4ZVAleIsLcsB8MAuxEwmqiVoirgZefeCwPeNzISwYaOSXYFI3didn9zAXaHtLyY2NKxf4zAQjeiuYCLat6gC+SEKUpvuryX8Sg17ujldswwZa72zHWIGe+5/H6SoR3M8NRsWNRUMwgf6pKioFgRkCjeuxq5oFbdb+Ktz8GEvrkQBZ08mkqVNXdA3bWl8QJnhYAUpWF3d2a5g3RFIbYvf8ACM5sFAWlJ6bqUBUPA02YuMpLqRYq0Q160+InYlgDVsYvN9XxAbMO7CmmvuobBpqzGdMbr8Y7MHQdteOoimsACBdVuUJ1okV0PPfGJUAi7XZlo94u5OnKxjXFV8/hbP5nl1YxFInULO2lxnCecSwgcbLYN94gTABMwasFdj8zJQBS9O8G73cALoF32udddpLEbQBn21gxkZplfTpa3d7XfnXiIIYam4U863xBxZ4TRukzkJfUsENN3x9UIoXwRFomaiXAXKmW4isK/wACfcmKzMTayoOYaP8AqkOG5ROirx7nzAhq3h1f4LjG0XBw5CvslTmlAJl/kliAbHuUMGoWiUVlB4mUvH+QLbEjhqAG2+oMU8Y1AxZ1YTdvDEWLvOIGxz3KyuKgGF+0qji95jAXrcLZuUbVxKXm4QfN6nd3UAjNd3K8hMPXibGhcQjjJ3C8t+ZuPP4I0q5gpoX4mlghqGHEoTnFJWAuIdOQ5xevghUd9gWgKK8AeizCWiIOEUc/EVSwPA/WvEMdUAC7hladEsr8QMm7nK4VbSpDariNy5S/ad6tgaLdeZQjXcAVTKXs68ykbNg/URb+WBeXOKinMDF89wJyg916wrbrcBbojGhzKUDeYCyqrUM0rXLPFbhZai+plZtiebN3FTqUW3MoYWLKxf7ExRwy5dldQUvUeF0RwathNrYnNckS26YaRdZgIlHtUw7xaYgsC7jt0ToXMQytPiIC/wCQ29aiZLSrlq1l6js863Er/wBgBwx1DZ5dTKPPrMBvErO4mD1HF/OpRTnDFdmsXLw5t6iUsc4y9SFBWY6N4mGhGAfyIVTLtWmYHgmQJ6ywpHBHxA+4u0pyemIFax1ARPkhZCYNNRiYb5qUFW/SZLzVSwa4l54lNm+ZRSqqY4ww3M7iou3PUTVAzYbJVzUKJ3NCncKNVh+v6oWet3MViiWN5yeIS1Fcx3hKqRKepNXg8oMgyk3LzB0dvxC2DtOCCjZRQVrrErQcxayGPuF8sC8Tbzw+CEdjivx5+opqwPARR+0OSv6v9hrlPQ018xZFauq89PEpAKYsM1TnczQTY4Odyx09JOMc/wBcKFl3NSlXUc3i+iXMGWA36vhgIZdWOQ6bEvEBawsSE1hhYVc2jKZjxozVvmGMCIaRh8a9un9My17dM1T0YM/U3qCdX5mJ0AAQG6z5R+JU76MKOWKvUGCl2ADu0549IdpZ3p3jXiG8HvM0+XzHPBzzG943DbCtHyRlLMXCy6WK3n7iB7QFzJnPwJFOmEp0z/kpApuetsClBtQ5KX+ItiUKrwZf1BDpaWDd5lh8TENuj5zM8SrD1H9SnlAVXlYoBDpm0FMVieL4goYLWH5fmJYGyzh0f2+piK8BjRBd0+ZcxZhPlKaWhtM7ZRfXt5EcelkQUxU6AuIt7Ujxka9oA+2IazX7jU8dh1d/hhAAUL3QPeoRQtWPTcBuWU63+4sbbUyjyzBQJiVsG39e8sIja8nXsJSambCLZ3KLQU9TEOP2EJY7s95fgYLWGr4jFSwb9SEhVKM9ktRiV+KEKCv+55GZtsP6lhpVfNdQ7gOEMQkko2gcWEqoGgBr0lVbJuO4JXKrp5cv6nhVzReM1rq6C7+b+4qA17r6+v3AIHWZQtdwlAf+bKRsZUDv/Za3ogtwZ94SoS2DbSsrdqONlckRZS2dY03KsAsf49IafO6utL+oLGi1+DMDTAFHuz/kVzD8bwfE3/EiWYfnMAH/ACWZ8SslbPuYHpEFoqBZuyYc+H8k9lMeYGt76uYBsCFqADPpHR1SP7IigopxNZ/UXcOScPXURjsY71FUhDy02bhWlAbqHOFzYSocvU1OFdkom3qhn2B1luvh/EsWAogUZro9PxMWRxjEEMBvdxFOKV9YYAEUDrO0gVRSVdN4S/P5iCWo5y1+8SpRbWeDkjWhvP2SzJZ8hW4Lpi1XjCMNtQoeKRuM2i95rUA2m1D1/wCkUQGx5s5H6faOtZK3waZhiswcruWI+ZQcnU4Vu6m0r1e5FhXcq+mND5YgNWH3Bk5wjdJBqrr/ACZlsEx6sxDhKHVwW3Svyf8AIrrvCOWoZnY34Cz+JnkFK/J/ybNdfjETLSiDvGYhM3+1KYVaxXb/AD6ggWCS4RaHrh+YgFELE5IGUg3etfhjwsolt3vUze/DXhBFrbl8iKHIZ0SlQ01o3hrCAjQQHpR+orvJSfzxL7wvkXyQ1V6fYC5UVvxZJVS1g9MkRAlx4uE/Ezesu5TXDKDRrqXVl3ncdJzLD1t+SaB3L8RFN7iHr/cRrQjguPUrj0n8nvHcX6q+563AQ1YXLn/b9iPZUqTyS3tm7K5a/vERPcjt1fx+Y9Jr4VMkbveiy+det3icYqxkYK9DPrHjFIApdmcxlAwYUbxlJn/BVU+DPYR35YCJgU5vRPIkbeFoo4zA8Z4GKMFDNym3taKhGljC5W4hGzqBq9n7jdhHSrXtnfiXaUULtjjparySn/YT2SmlVnnzl9IRVeWi9vywcMCrFVrd15jHEgZWHkx4ji2crNmLrupfKCsg7w1dWwTKdQsM7cEsqnuU2ZIrsjsi0tlsxBzcuP8AqyGt6oTavHmUO7dKX43AYbVAi9hKaOaKwMApQGtTA2/MI9IlYbCVBgEWs3kGYNs6EEW2XKVKMPsBMFp1ExvOdR1BAVhXMclEZgDYdRSEOwsvaHpRAIhKRNw5eQVFwOkNMxwzEFHX3HMyRXW7IgFZGx6iaM3LjgquOZTxUsG73Bk/iyU9FNekTvmMbPXEw2VtgXd4qNjlApuEpxXmGXzDDscRSy5QZMRShW4trXpBD9Ib6PxNGswc4vJBXVtZJY1MclWc1nuVWlwUDG4LR5g7u+NTIigDzGleQ3jUB9iLWMVHHFEtGr9ImRtSIAvm+4fJmW8v3KpnGYEQ/hmCG2lSvUy8sRyDFazWczS6zcUmKSuo5Je46i4/yGcai5oy8Qpi026nSvM9GYnWFyqxuGW46JNEzG8jsmnmBeVxLp1NHiXW9s3drqWE1bBW+KidBLAYu84lVbUeRqajy/KXPWiVqs5lSu8zOjX7JUMMhqIt0DYyJdkCwhFFGalRbo0Dy4+PqKS7wHj+IqgV6QFjFNErUsHlmuo9H9w/ExA6CzilQ/DCOQnGEBxCNGEMxR4Mix3QEkMUln3capJgwvj+9YqASgN47+42YAvBsoRf1CDoQLql69UwhGz6/qgKBo+69sy0aKaK+xKxoaLoSuvHh8wFVQAOjcdoSnBcSlbXyUAdZ3LBsqyCyN/EqS19Hz/jFN6ii6lhjohQE4SbnG5oE2Wb8JKzkxU0Y74mCyuYUWbNSwN6f5T7BKeH5jwDURuhqcZJXqmtSspMititdXpZSGQUtDBW9eXUtXgw2ZM+PKIiw5p78Wb4goiXBfNOnYgc9gFjPURtxKVrONseUKZRKzqmnHl4gaAAoBMHs8ZeioAa5K6z7wGmozm8/WYJbtQQxjGvBASB1po2P5CWN0rLhxV/RDTNztwq3+Vi20O/ev2/iBS0FLZ3zDBjSzllal+6xWMRwWKbIk2AEEXQGr8EpWZMlirrnyytM8MQrBqqzFNnPiCtKm1w7xLhcBS1RrEyhAInDSKHkWW6JqmKOoisNYPSj6xC7p43FatNbfmAVriHF2flHhcgw13NINy4JdfjSiviW6JGjRdalyqBotS8X14Pv4mAZjd75PqomGrDsltnEdoIQ1u0B8VFHeNrz8dbjkGgpZwg6V4+4N0DAuR1X38Sk0gnL2bebC/WCSWWg5Kpqsu8cxooq7HCZxfrDCPE0mKAetNy2AASr7cZ9PuNY2UL0WfyVFS59XdlL53FA0i00uz9L8S9cmWD0vvXyiF2UC1dtyetHrA1qrq3vF8weCQXZYVmrxiz1IDiW3haxb751KCaKJg0VmsrlLTlhZDYTOSvtJdzVoa7vasQoxMjwuz32BXmCXArgvbXPX84ev6AIM35eF7wEXHgo0us9jC609pXQ5jsEggy3PNvv6pmDeZS6I1jMBzX9InVRiGVs3iUHgVq9S0ChNu75mJVgZebi3UKveoitlMFshV+U6EbaqIB0HEKyxaHXMczXv4g008cSxzhLqJWBRQBbrcwcjLiJGQmi1S0u/QYIqDi4VYDMo8imIpRYMERgI1dXGosPNwLBcrSZgEbXRiDYMGm89RaGyFFni5hygFrRXcqIzMr4MxKajUMyzzC/pGGQV4w0q7KMZ72S2OrV/LA9nLxDKVcVTo+v/fEbbVkbvZaUc2yrcZaPOE+IFCFgFWyxv6fmHUAxbclX+/mMTCmWPt5b9ohaGXBdt/iWFo7JXjnPcxzSW8+Z9WTJqIpdjVX+4oBEI2abvz/AGYu2baZw0ap3j7YhFq6qK97gtxCAFfxp8RkqXBS0ulGfeOegmm5kTvz9TGpgjTcchd+fqcACqPOyc5/1HBk3z2uc+YNUCVNVp+a6lp2k5NoxZLMoAdv9+pY3xWl22FVoc3AcFi0MQGbgMBNrT3lYVJjNhg/cRtjHcFFsxdEL6L8QpK4mL4BDc4uY8w0VrcC02v7yC2UkvHUDjFUYl/LbaK2YuVjkL1xlv6ZQyZKm1F3+GGaCLWMEjkBN3u1Ar5YOZdFBcuF56hjN241xeoyq2ssKVLipSsibWnGca8yxVXGTX8EcgUCnkS7uDmu9qC1sHfmXERwJi1VSq9ogKm6LN68+EMZhMuAeoVkSWCtXUxQGhQDOLxfhGVeNFmLlBKnhSZ8+GEFzZg4BbBsGAGwYVb6+5hEbKqBC7fo+SK7ufI7H6QjQPI5CzR241N77ZFgwbepfZlaB6pujz6/UvuoKdkvki1fJfUzU9mpVNm8SiN5YsNZ/ZGT8y+qmCXZBQ5Tr2R1VfcQtMM302fDLClg+oa9Yggc/OJUtV6uvX/X5jsAtpzWpWBuyYYldgAqeE/b8xJNIaN+ImBT0K1n/ZwB4Y+PzKaLh4P7ggao7JxEBRitDiDWNboRtmErR/dTDNtVaGurlR4HdnD7TFsWi0Mwq1oN9cS1onVK3iGUHyzBlk1MX6/3UV0VWHAemianCua/uIbwwjqIIJZmhqrviUMb3BLrQrusfib5rUEcMLGsKz+ZdFt1MsP/ALwmjfEUHH4hXv1GAFuL4S9qdssWkmUwUzfYHvMTILZENmcFXAfGN+tmHoq43WbFpA5fo+UsaQWFI1fVxa8U4xVf7C8LkZDHovx8ojWOILz3717VFoWoKKsT9MbBVsAtY/6TRQ3igx9zk5yr2rx7QmuAlDJP9mQZsKKvOL+ILNrCbN4pPuYpMGyqL5c7/UOCxXNDv3zUtggsXZGzg3coZBAEGUNld3FhtkIJq3Xt9xwYphavw+4LQhIdoN4g6cwnAt48I+CYyWDA+Lq/eW3VFVF3k0XWcSmVrshWFn5GpdethGcXx4c+WD1EZOQcXrnuVG5kCRu+faAqmajGtwf3GILzEXsmYczeaCY7pFk3EqAGRNdyohECxtaiFhq3bUCBN1Sm+oUSdjkXhhUHRWMHzCuJgeiC4b95ajcOBfmJYY133KobtXQ1mABT5lmr4JXbzqW4ajjnUFYqiBZiO7xFBeNcxKac3GwM4iXbTLrS5qWBw4iThj4PeWJVcxoDxEB1BZ7/AGsv7sruMzeg3L/zaSwAIRNGkCUiP5nGwvIPY47EapUDAcA68oLoLFqL36eZl4Xg1SddMURY0AYyuGvLCkNxu6YviIHzMbg35YO+9SmbeSbp8TjEUKojS5g8TDWdMWseYZLTHVGpaoldcRVgjdeksD4m3OphKhznRHkcwUQxbMr6jb1QftmdrmU53BlqpcVTOl8Q25ahpMwY8nc4qBhIlYvUAB8S9q4hhWrouu5eKVnGY3+ohJxSkpprdTBm7lXMC3jqCUHuxFbCrODLWq9mXhqXSrrzHA1LvnxKf0cEWNyzUMvpzGxqszAtSxSorWWXurGvDMHNN6i1wzoJkPNv3LMtqCvO/wBys/hNJtw6O40Hjdz23Eq11Bvmr4isek5VeoDaL+IJbhyxWQZS53FrogrpvFxS234lJbVtMpsvvUBV3XrMjt9EZVxKINr9ZWKrHmXzFfpOXjxFlPEVs1c0xHQw8OIAxfuxKe/LXQ/EOW4RZTU8oNEMIUX99RtUPaFrkYHHBF7xqEoXGEcR2kpRY8MxVfv1EchmrSXqDuYUQOcGvJMMFzBguvxBS0mYu8VqUFZQjl36ypqsUTLfmv1Ad2LrpvA6vqAnXWaE1a+Z7EMKW5LogUCXmOj3ma81aFdkPmhw3amm4hGTHERQuXSsZWfEFnYeIA4rBFzW8zpqchVzgZ3BRi6xF2fcS2/2SgrzqBjLNlYCAALH9GJeddnoTJVwpKAVvMai8cTK9cz2Acy0yC9JMwwWNArUtW8wlNU8e8yRWVbLXHlxCC8iwt6fEXwN5HlADpxKp9FFQspv2PmEWyiwbpWd2RaCorqbP7EYOwo0DgvdEEczEra9+K+5ce0uirTfeom6l4H3mzsSab+/1LRaCvCKRBoqC1yvdwo9oYZs9dxTgVK2nAS2IfWLNfM4ZCpZi22orq/gl6/MKFWzdefSG70xy9GKm58TKmKJkiOOZjg3Ak0S8+GYrDEHhEm1QW81DO4jA+sstUFS2jKRM7lD3lAVfrKa3rMAy/mJKN5xuUphgjpfzLaszUzmWIHTMuodRtWSfZ5iul/7mJNP1AKXi+4vQInw0/SCweZSULN+YUfr+mUI3AsW8kABzDRqoIGtwYfEHGNn1HbF1OD2l3NDtxiGFTdwB9uYKY4TZEbzRi4zfWI+Ag6oaxN7rHNxo4qm73KG0q/eKyssG/DH4qJvDdSry45uGXibCDVvZFppqKITfGDk/cagJfdYj9j+KY1dxVzZm1CVvAn7Rq/PETVfmA8ue4Z28xUbxGYYFKXQEeKQPeHKwzELsvenHiVDLhaiCjg+Diwdt/iNVAbdPsxhai+i1fzub3IK8QOHnD9MdLRRyoXVdcX3B2wVrAcjPW/iYACo5q5YWYWcN0+k17Q4wY5YaU48PxBxarsWgWTVVipZFR7gbHGOr9wmZhpq7qKq9COwaH2hWCLAMzddZPmaQmlwc3/fqWDouquebPJeo/lZtCks3LBasYBZTiuYOVJiybdkTa9Ev1x2Lwx7wX13WJ2dH4pnLwMTFjfUWklJfaFcBfaZGpywVZ3LaOYjsNoCqwR01nSUAdfzmW1Kq2bluoEHpEMg0pMeCW1IeGPOXwxBxjqACosTO9YfgmQMFWwWqt5qGC3Dxiuuo4k4GVgQkb37Ct17whwvLX09N/LEjQUW8ilruou8Bampqt9Vj0mXWcRxbqK2K6MH2mAgmFuFXXdYuLb6Ns1mMN64qA9OFWeWurolY8+Q2ch3GgFicjbgpmhUjeg9RW8blsEDswrggwQtUeYap4z+Ez6iLS4Iss8xJ6n5Iw8m4GRouZR1cymSIFL9pp5DIzFA56g5dXDwAYEmAsxfMDYshA1UvY1epq7qupUm11uCzF9SxTuWKo8VqeXMByddQAZ941eJhjZHN37zUhd49pQYX2l2ucTb9xA/DcVXoVkcjHNx3wBT6TUHFwMYzMnrcA+v+SZrWXUVFg6FqX3cqGp7z9RNj7RoApeWQ7iGa/Mogm+WWct8QS6suDlricAtli67iC112wZgLRgSsZEsTu5elJsNahg86i1Z4iYusseYZVdwzhkXrR51f5lUyWJpJowqO3OAimo0L2mZX9qxZ20Z0WwoRdYeRp/EFrJiZDVXBuDmDGTm4j4g+kwEdtsGy+5QN0L7T88sNNqynv8AEUMGggcL6F/Up6SGAKtnjMc4eFF5azrD3iqtBfY+0BEt2j0FvVDiLnJaEwZarOqr+uOUbXJiqh3d8azO85KBTFH4+RDRBtIiuVhnWELisFWjVoeEfZlr0Wmhkeooe9w9iu5LfOMV8T4YgFlg+ly+1NjIi2l84ouMcjyhg6FawJ7ym3ocNqZetyL8TH+DZdG38TNro41ZioEtAsqyz7tDxL86Au0cha+PiDLlWSqBFrDuiNDkatmjiqdc+kpuCNmjI10h7RNlTSc6tav5fMOoGZF0Gaxu4VCDZeradI4KZYA7rU5bP70g23ezUvDW5QZb8xKSUZxPDVfgr9TTkiszcQFDzDnR/wCiVtnmUbu9SnKEpYqrY0X8+Zk4rGZo8niAMaxUoMHEMMyG7u7KhYT7lgVEMkIVvUKinfcKMLpUo1wQExVEeOKlN4946BOWhwwGQIGNe8of71MGXG46Od9RF/UyDo/Mc8WbjeF+IQfJ+czVr0ja4WbunMPsfgiy5mHveyCVV/8AIUPRhi2Yg1pjiaWKOuZuycGMxM7yQ5GoObQzNhmLW9TyMRY3LzBwSmIgycxO7WJxk7mXhHWO5ZcTlF13EQV6z+vMxA9o1C8jLo4S5q+p0b5lky2l+IMFTEFjuC7nD/iIVYod1ctRqBxWOJRyMzC+YVzKM55hiVRDdw27qU+4OadMW1j+GYwe4rGtwANw2uO29nMDIOeZlh+o0aXE4q4NmjEQ4o7qFqZq6YIYGiNVstlg79IrZTiGaLvURY6pgb5Jg0k2rzLPD+cjlcTNNJiFLv1msoO63OdpS8wptubEgkKqu4uKJbKq9SrO53FTzLNLm+Y9PqDRRvmX8pisTFP6iYha59COWcksRxLsrNQpzcwPNxLadwV2oncPeBMu4LIVGOY/3StL6jTVfEqwqC36kKlxzC1epa2m+o3/AOy5dHvMihziG1qGG7xUGuz4g749Jz1U0oq+pat7MNxEBV/uKKx7xdKWDvxFpL3WoLbWo4K3DDiBybxqDQ2X1C1k51HTqYJRcUCCeFEo8eZYsGTxLGRt7g0J7xBuU+03+mJXZmNnRLJSdIefogcqrAiJAuwFQKVZ9Je+oOKTcrde0wECWPDnEE3ZzKCclvWYFkycwMuc4irZDRXUoK78xtzsgoUHxxL4igOcygw8yzcpbRiNAySt4NRM4jtl4L3E6ilvwmGCaNm5ggoqChn2h0G38Hcr1vOHlY9rzKYXc3Y+sF2n2j7PQZloGe0ApufXGml/fidc+v8A2D/o/wBInYdPOaoTCor0v/aJKVjuRELOTj9hxABwPVKs0ebwrg5Mhz5gS7ObSWRL6VChbU6QiBRbiAbbWLynvsGBXa9iZQP1pAgtnSIo0h8JR/wjFgfURe1PBiV27d3WBJpTSpouaE50ELOr3HMoRAFBOIhWh7SvMvCUp3M8ywcPrMDNDLctKT+qVZfMXKcxQbf/ACLyTvUuBrmBZunzFulS74qF0Bs/EyYrW5d5GJFThg6w+Zo5zNYZYXZawU2PW5Q5uDB/8TVo3+paDdf5EPhO4sqrhgiKweHUu0HQ8R1rM2EcdRVcMJ36zh9Juek0R4m6bf8A3U/lDT6R0x2ekOP/AI2Zwn7z6E5fWbPT/wCOD0mh6zqG5+0OZoznGDX1/wDofsnMZ//Z;" vertex="1" parent="1">
          <mxGeometry x="27" y="356" width="280" height="411.6" as="geometry" />
        </mxCell>
        <mxCell id="_dNYfmlN74PMvxJpYnuO-31" value="&lt;font style=&quot;color: rgb(255, 15, 47);&quot;&gt;1.title&lt;/font&gt;" style="shape=rectangle;strokeColor=none;fillColor=none;linkText=;fontSize=17;fontColor=#0000ff;fontStyle=4;html=1;align=center;" vertex="1" parent="1">
          <mxGeometry x="508" y="71" width="150" height="30" as="geometry" />
        </mxCell>
        <mxCell id="_dNYfmlN74PMvxJpYnuO-32" value="&lt;font style=&quot;color: rgb(255, 15, 47);&quot;&gt;2.navigation/links&lt;/font&gt;" style="shape=rectangle;strokeColor=none;fillColor=none;linkText=;fontSize=17;fontColor=#0000ff;fontStyle=4;html=1;align=center;" vertex="1" parent="1">
          <mxGeometry x="557" y="176" width="150" height="30" as="geometry" />
        </mxCell>
        <mxCell id="_dNYfmlN74PMvxJpYnuO-33" value="&lt;font style=&quot;color: rgb(255, 15, 47);&quot;&gt;3.images/links&lt;/font&gt;" style="shape=rectangle;strokeColor=none;fillColor=none;linkText=;fontSize=17;fontColor=#0000ff;fontStyle=4;html=1;align=center;" vertex="1" parent="1">
          <mxGeometry x="170" y="312" width="150" height="30" as="geometry" />
        </mxCell>
        <mxCell id="_dNYfmlN74PMvxJpYnuO-35" value="load more" style="strokeWidth=1;shadow=0;dashed=0;align=center;html=1;shape=mxgraph.mockup.buttons.button;strokeColor=#666666;fontColor=#ffffff;mainText=;buttonStyle=round;fontSize=17;fontStyle=1;fillColor=#008cff;whiteSpace=wrap;" vertex="1" parent="1">
          <mxGeometry x="331" y="1205" width="150" height="50" as="geometry" />
        </mxCell>
        <mxCell id="_dNYfmlN74PMvxJpYnuO-37" value="" style="verticalLabelPosition=bottom;shadow=0;dashed=0;align=center;html=1;verticalAlign=top;strokeWidth=1;shape=mxgraph.mockup.markup.line;strokeColor=#999999;" vertex="1" parent="1">
          <mxGeometry y="1290" width="818" height="20" as="geometry" />
        </mxCell>
        <mxCell id="ShbpVxXoi6kMIU_gVBng-1" value="&lt;span style=&quot;font-weight: 400; text-wrap-mode: nowrap; text-decoration-line: underline; line-height: 150%;&quot;&gt;address:&lt;/span&gt;&lt;div style=&quot;font-weight: 400; text-wrap-mode: nowrap; line-height: 150%;&quot;&gt;email:&lt;/div&gt;&lt;div style=&quot;font-weight: 400; text-wrap-mode: nowrap; line-height: 150%;&quot;&gt;privacy:&lt;/div&gt;" style="strokeWidth=1;shadow=0;dashed=0;align=left;html=1;shape=mxgraph.mockup.buttons.button;strokeColor=#666666;fontColor=#FFFFFF;mainText=;buttonStyle=round;fontSize=19;fontStyle=1;fillColor=light-dark(#2E2E2E,#229AFD);whiteSpace=wrap;" vertex="1" parent="1">
          <mxGeometry x="140" y="1337" width="655" height="121" as="geometry" />
        </mxCell>
        <mxCell id="FwT92crmONFdo0ZQ2igA-1" value="webname" style="strokeWidth=1;shadow=0;dashed=0;align=center;html=1;shape=mxgraph.mockup.buttons.button;strokeColor=#82b366;mainText=;buttonStyle=round;fontSize=17;fontStyle=1;fillColor=#d5e8d4;whiteSpace=wrap;" vertex="1" parent="1">
          <mxGeometry x="3" y="1334" width="130" height="114" as="geometry" />
        </mxCell>
        <mxCell id="FwT92crmONFdo0ZQ2igA-2" value="webname" style="strokeWidth=1;shadow=0;dashed=0;align=center;html=1;shape=mxgraph.mockup.buttons.button;strokeColor=#82b366;mainText=;buttonStyle=round;fontSize=17;fontStyle=1;fillColor=#d5e8d4;whiteSpace=wrap;" vertex="1" parent="1">
          <mxGeometry x="3" y="50" width="105" height="64" as="geometry" />
        </mxCell>
      </root>
    </mxGraphModel>
  </diagram>
</mxfile>
